NotoSerifGeorgian-CondensedLight.ufo
<glyph name="acutecomb" format="2">
  <unicode hex="0301"/>
  <anchor x="-37" y="536" name="_top"/>
  <anchor x="-20" y="766" name="top"/>
  <outline>
    <contour>
      <point x="-56" y="606" type="line"/>
      <point x="-51" y="606" type="line"/>
      <point x="-13" y="653"/>
      <point x="36" y="721"/>
      <point x="55" y="756" type="curve"/>
      <point x="55" y="766" type="line"/>
      <point x="10" y="766" type="line"/>
      <point x="-4" y="721"/>
      <point x="-26" y="678"/>
      <point x="-56" y="619" type="curve"/>
    </contour>
  </outline>
</glyph>
<glyph name="circumflexcomb" format="2">
  <unicode hex="0302"/>
  <anchor x="0" y="536" name="_top"/>
  <anchor x="0" y="766" name="top"/>
  <outline>
    <contour>
      <point x="-89" y="606" type="line"/>
      <point x="-83" y="606" type="line"/>
      <point x="-47" y="645"/>
      <point x="-23" y="673"/>
      <point x="1" y="721" type="curve"/>
      <point x="23" y="673"/>
      <point x="46" y="645"/>
      <point x="83" y="606" type="curve"/>
      <point x="89" y="606" type="line"/>
      <point x="89" y="619" type="line"/>
      <point x="65" y="657"/>
      <point x="37" y="721"/>
      <point x="20" y="766" type="curve"/>
      <point x="-21" y="766" type="line"/>
      <point x="-36" y="721"/>
      <point x="-66" y="657"/>
      <point x="-89" y="619" type="curve"/>
    </contour>
  </outline>
</glyph>
<glyph name="macroncomb" format="2">
  <unicode hex="0304"/>
  <anchor x="0" y="536" name="_top"/>
  <anchor x="0" y="660" name="top"/>
  <outline>
    <contour>
      <point x="-110" y="642" type="line"/>
      <point x="110" y="642" type="line"/>
      <point x="110" y="670" type="line"/>
      <point x="-110" y="670" type="line"/>
    </contour>
  </outline>
</glyph>
<glyph name="dieresiscomb" format="2">
  <unicode hex="0308"/>
  <anchor x="0" y="536" name="_top"/>
  <anchor x="0" y="736" name="top"/>
  <outline>
    <contour>
      <point x="66" y="632" type="curve" smooth="yes"/>
      <point x="82" y="632"/>
      <point x="89" y="640"/>
      <point x="89" y="668" type="curve" smooth="yes"/>
      <point x="89" y="698"/>
      <point x="82" y="706"/>
      <point x="66" y="706" type="curve" smooth="yes"/>
      <point x="50" y="706"/>
      <point x="43" y="698"/>
      <point x="43" y="668" type="curve" smooth="yes"/>
      <point x="43" y="640"/>
      <point x="50" y="632"/>
    </contour>
    <contour>
      <point x="-67" y="632" type="curve" smooth="yes"/>
      <point x="-51" y="632"/>
      <point x="-44" y="640"/>
      <point x="-44" y="668" type="curve" smooth="yes"/>
      <point x="-44" y="698"/>
      <point x="-51" y="706"/>
      <point x="-67" y="706" type="curve" smooth="yes"/>
      <point x="-84" y="706"/>
      <point x="-89" y="698"/>
      <point x="-89" y="668" type="curve" smooth="yes"/>
      <point x="-89" y="640"/>
      <point x="-84" y="632"/>
    </contour>
  </outline>
</glyph>
<glyph name="period-arm" format="2">
  <advance width="186"/>
  <unicode hex="0589"/>
  <note>
uni0589
</note>
  <outline>
    <contour>
      <point x="94" y="420" type="curve" smooth="yes"/>
      <point x="108" y="420"/>
      <point x="122" y="429"/>
      <point x="122" y="459" type="curve" smooth="yes"/>
      <point x="122" y="489"/>
      <point x="108" y="498"/>
      <point x="94" y="498" type="curve" smooth="yes"/>
      <point x="77" y="498"/>
      <point x="64" y="489"/>
      <point x="64" y="459" type="curve" smooth="yes"/>
      <point x="64" y="429"/>
      <point x="77" y="420"/>
    </contour>
    <contour>
      <point x="94" y="-5" type="curve" smooth="yes"/>
      <point x="108" y="-5"/>
      <point x="122" y="4"/>
      <point x="122" y="34" type="curve" smooth="yes"/>
      <point x="122" y="64"/>
      <point x="108" y="73"/>
      <point x="94" y="73" type="curve" smooth="yes"/>
      <point x="77" y="73"/>
      <point x="64" y="64"/>
      <point x="64" y="34" type="curve" smooth="yes"/>
      <point x="64" y="4"/>
      <point x="77" y="-5"/>
    </contour>
  </outline>
</glyph>
<glyph name="An-oldgeorgian" format="2">
  <advance width="460"/>
  <unicode hex="10A0"/>
  <note>
uni10A0
</note>
  <outline>
    <contour>
      <point x="265" y="-10" type="curve" smooth="yes"/>
      <point x="366" y="-10"/>
      <point x="421" y="43"/>
      <point x="421" y="102" type="curve" smooth="yes"/>
      <point x="421" y="132"/>
      <point x="413" y="148"/>
      <point x="400" y="148" type="curve"/>
      <point x="400" y="64"/>
      <point x="353" y="15"/>
      <point x="265" y="15" type="curve" smooth="yes"/>
      <point x="142" y="15"/>
      <point x="83" y="162"/>
      <point x="83" y="338" type="curve" smooth="yes"/>
      <point x="83" y="523"/>
      <point x="165" y="698"/>
      <point x="329" y="698" type="curve" smooth="yes"/>
      <point x="356" y="698"/>
      <point x="369" y="681"/>
      <point x="374" y="651" type="curve"/>
      <point x="392" y="656"/>
      <point x="405" y="670"/>
      <point x="405" y="687" type="curve" smooth="yes"/>
      <point x="405" y="713"/>
      <point x="386" y="724"/>
      <point x="357" y="724" type="curve" smooth="yes"/>
      <point x="325" y="724"/>
      <point x="296" y="714"/>
      <point x="259" y="705" type="curve" smooth="yes"/>
      <point x="228" y="697"/>
      <point x="192" y="690"/>
      <point x="146" y="690" type="curve" smooth="yes"/>
      <point x="116" y="690"/>
      <point x="103" y="694"/>
      <point x="101" y="724" type="curve"/>
      <point x="82" y="720"/>
      <point x="69" y="711"/>
      <point x="69" y="697" type="curve" smooth="yes"/>
      <point x="69" y="678"/>
      <point x="88" y="667"/>
      <point x="111" y="667" type="curve" smooth="yes"/>
      <point x="133" y="667"/>
      <point x="156" y="667"/>
      <point x="200" y="677" type="curve"/>
      <point x="102" y="607"/>
      <point x="55" y="502"/>
      <point x="55" y="338" type="curve" smooth="yes"/>
      <point x="55" y="137"/>
      <point x="128" y="-10"/>
    </contour>
  </outline>
</glyph>
<glyph name="Ban-oldgeorgian" format="2">
  <advance width="533"/>
  <unicode hex="10A1"/>
  <note>
uni10A1
</note>
  <outline>
    <contour>
      <point x="496" y="-81" type="curve"/>
      <point x="513" y="-81"/>
      <point x="523" y="-70"/>
      <point x="523" y="-51" type="curve" smooth="yes"/>
      <point x="523" y="8"/>
      <point x="487" y="25"/>
      <point x="443" y="25" type="curve" smooth="yes"/>
      <point x="406" y="25" type="line"/>
      <point x="406" y="646" type="line" smooth="yes"/>
      <point x="406" y="683"/>
      <point x="412" y="694"/>
      <point x="446" y="694" type="curve" smooth="yes"/>
      <point x="466" y="694" type="line"/>
      <point x="466" y="714" type="line"/>
      <point x="312" y="714" type="line"/>
      <point x="312" y="694" type="line"/>
      <point x="332" y="694" type="line" smooth="yes"/>
      <point x="362" y="694"/>
      <point x="378" y="683"/>
      <point x="378" y="646" type="curve" smooth="yes"/>
      <point x="378" y="399" type="line" smooth="yes"/>
      <point x="378" y="332"/>
      <point x="316" y="263"/>
      <point x="227" y="263" type="curve" smooth="yes"/>
      <point x="118" y="263"/>
      <point x="76" y="337"/>
      <point x="76" y="477" type="curve" smooth="yes"/>
      <point x="76" y="619"/>
      <point x="126" y="695"/>
      <point x="205" y="695" type="curve"/>
      <point x="205" y="703"/>
      <point x="203" y="724"/>
      <point x="174" y="718" type="curve" smooth="yes"/>
      <point x="100" y="703"/>
      <point x="48" y="636"/>
      <point x="48" y="477" type="curve" smooth="yes"/>
      <point x="48" y="312"/>
      <point x="105" y="238"/>
      <point x="225" y="238" type="curve" smooth="yes"/>
      <point x="283" y="238"/>
      <point x="343" y="264"/>
      <point x="376" y="330" type="curve"/>
      <point x="380" y="330" type="line"/>
      <point x="379" y="309"/>
      <point x="378" y="289"/>
      <point x="378" y="268" type="curve" smooth="yes"/>
      <point x="378" y="0" type="line"/>
      <point x="438" y="0" type="line" smooth="yes"/>
      <point x="479" y="0"/>
      <point x="496" y="-15"/>
    </contour>
  </outline>
</glyph>
<glyph name="Gan-oldgeorgian" format="2">
  <advance width="562"/>
  <unicode hex="10A2"/>
  <note>
uni10A2
</note>
  <outline>
    <contour>
      <point x="472" y="25" type="curve" smooth="yes"/>
      <point x="435" y="25" type="line"/>
      <point x="435" y="646" type="line" smooth="yes"/>
      <point x="435" y="683"/>
      <point x="441" y="694"/>
      <point x="481" y="694" type="curve" smooth="yes"/>
      <point x="501" y="694" type="line"/>
      <point x="501" y="714" type="line"/>
      <point x="36" y="714" type="line"/>
      <point x="36" y="694" type="line"/>
      <point x="56" y="694" type="line" smooth="yes"/>
      <point x="96" y="694"/>
      <point x="102" y="683"/>
      <point x="102" y="646" type="curve" smooth="yes"/>
      <point x="102" y="426" type="line" smooth="yes"/>
      <point x="102" y="389"/>
      <point x="96" y="378"/>
      <point x="56" y="378" type="curve" smooth="yes"/>
      <point x="36" y="378" type="line"/>
      <point x="36" y="358" type="line"/>
      <point x="130" y="358" type="line"/>
      <point x="130" y="689" type="line"/>
      <point x="407" y="689" type="line"/>
      <point x="407" y="0" type="line"/>
      <point x="467" y="0" type="line" smooth="yes"/>
      <point x="508" y="0"/>
      <point x="525" y="-15"/>
      <point x="525" y="-81" type="curve"/>
      <point x="542" y="-81"/>
      <point x="552" y="-70"/>
      <point x="552" y="-51" type="curve" smooth="yes"/>
      <point x="552" y="8"/>
      <point x="516" y="25"/>
    </contour>
  </outline>
</glyph>
<glyph name="Don-oldgeorgian" format="2">
  <advance width="530"/>
  <unicode hex="10A3"/>
  <note>
uni10A3
</note>
  <outline>
    <contour>
      <point x="264" y="-10" type="curve" smooth="yes"/>
      <point x="404" y="-10"/>
      <point x="485" y="103"/>
      <point x="485" y="298" type="curve" smooth="yes"/>
      <point x="485" y="503"/>
      <point x="418" y="599"/>
      <point x="278" y="605" type="curve"/>
      <point x="278" y="680" type="line"/>
      <point x="313" y="687"/>
      <point x="361" y="696"/>
      <point x="396" y="696" type="curve" smooth="yes"/>
      <point x="424" y="696"/>
      <point x="437" y="682"/>
      <point x="442" y="649" type="curve"/>
      <point x="459" y="656"/>
      <point x="471" y="668"/>
      <point x="471" y="685" type="curve" smooth="yes"/>
      <point x="471" y="711"/>
      <point x="452" y="724"/>
      <point x="415" y="724" type="curve" smooth="yes"/>
      <point x="387" y="724"/>
      <point x="345" y="715"/>
      <point x="290" y="704" type="curve" smooth="yes"/>
      <point x="227" y="691"/>
      <point x="169" y="684"/>
      <point x="144" y="684" type="curve" smooth="yes"/>
      <point x="114" y="684"/>
      <point x="91" y="694"/>
      <point x="89" y="724" type="curve"/>
      <point x="69" y="718"/>
      <point x="59" y="707"/>
      <point x="59" y="693" type="curve" smooth="yes"/>
      <point x="59" y="670"/>
      <point x="78" y="659"/>
      <point x="116" y="659" type="curve" smooth="yes"/>
      <point x="161" y="659"/>
      <point x="202" y="666"/>
      <point x="253" y="675" type="curve"/>
      <point x="253" y="605" type="line"/>
      <point x="114" y="599"/>
      <point x="44" y="492"/>
      <point x="44" y="299" type="curve" smooth="yes"/>
      <point x="44" y="113"/>
      <point x="116" y="-10"/>
    </contour>
    <contour>
      <point x="264" y="15" type="curve" smooth="yes"/>
      <point x="137" y="15"/>
      <point x="72" y="129"/>
      <point x="72" y="298" type="curve" smooth="yes"/>
      <point x="72" y="476"/>
      <point x="131" y="580"/>
      <point x="265" y="580" type="curve" smooth="yes"/>
      <point x="406" y="580"/>
      <point x="457" y="476"/>
      <point x="457" y="298" type="curve" smooth="yes"/>
      <point x="457" y="123"/>
      <point x="392" y="15"/>
    </contour>
  </outline>
</glyph>
<glyph name="En-oldgeorgian" format="2">
  <advance width="537"/>
  <unicode hex="10A4"/>
  <note>
uni10A4
</note>
  <outline>
    <contour>
      <point x="407" y="0" type="line"/>
      <point x="435" y="0" type="line"/>
      <point x="435" y="646" type="line" smooth="yes"/>
      <point x="435" y="683"/>
      <point x="441" y="694"/>
      <point x="481" y="694" type="curve" smooth="yes"/>
      <point x="501" y="694" type="line"/>
      <point x="501" y="714" type="line"/>
      <point x="36" y="714" type="line"/>
      <point x="36" y="694" type="line"/>
      <point x="56" y="694" type="line" smooth="yes"/>
      <point x="96" y="694"/>
      <point x="102" y="683"/>
      <point x="102" y="646" type="curve" smooth="yes"/>
      <point x="102" y="426" type="line" smooth="yes"/>
      <point x="102" y="389"/>
      <point x="96" y="378"/>
      <point x="56" y="378" type="curve" smooth="yes"/>
      <point x="36" y="378" type="line"/>
      <point x="36" y="358" type="line"/>
      <point x="130" y="358" type="line"/>
      <point x="130" y="689" type="line"/>
      <point x="407" y="689" type="line"/>
    </contour>
  </outline>
</glyph>
<glyph name="Vin-oldgeorgian" format="2">
  <advance width="562"/>
  <unicode hex="10A5"/>
  <note>
uni10A5
</note>
  <outline>
    <contour>
      <point x="472" y="385" type="curve" smooth="yes"/>
      <point x="435" y="385" type="line"/>
      <point x="435" y="646" type="line" smooth="yes"/>
      <point x="435" y="683"/>
      <point x="441" y="694"/>
      <point x="481" y="694" type="curve" smooth="yes"/>
      <point x="501" y="694" type="line"/>
      <point x="501" y="714" type="line"/>
      <point x="36" y="714" type="line"/>
      <point x="36" y="694" type="line"/>
      <point x="56" y="694" type="line" smooth="yes"/>
      <point x="96" y="694"/>
      <point x="102" y="683"/>
      <point x="102" y="646" type="curve" smooth="yes"/>
      <point x="102" y="426" type="line" smooth="yes"/>
      <point x="102" y="389"/>
      <point x="96" y="378"/>
      <point x="56" y="378" type="curve" smooth="yes"/>
      <point x="36" y="378" type="line"/>
      <point x="36" y="358" type="line"/>
      <point x="130" y="358" type="line"/>
      <point x="130" y="689" type="line"/>
      <point x="407" y="689" type="line"/>
      <point x="407" y="0" type="line"/>
      <point x="435" y="0" type="line"/>
      <point x="435" y="360" type="line"/>
      <point x="467" y="360" type="line" smooth="yes"/>
      <point x="508" y="360"/>
      <point x="525" y="345"/>
      <point x="525" y="279" type="curve"/>
      <point x="542" y="279"/>
      <point x="552" y="290"/>
      <point x="552" y="309" type="curve" smooth="yes"/>
      <point x="552" y="368"/>
      <point x="516" y="385"/>
    </contour>
  </outline>
</glyph>
<glyph name="Zen-oldgeorgian" format="2">
  <advance width="527"/>
  <unicode hex="10A6"/>
  <note>
uni10A6
</note>
  <outline>
    <contour>
      <point x="307" y="-10" type="curve" smooth="yes"/>
      <point x="430" y="-10"/>
      <point x="481" y="100"/>
      <point x="481" y="266" type="curve" smooth="yes"/>
      <point x="481" y="455"/>
      <point x="430" y="546"/>
      <point x="318" y="546" type="curve" smooth="yes"/>
      <point x="257" y="546"/>
      <point x="213" y="514"/>
      <point x="183" y="435" type="curve"/>
      <point x="179" y="435" type="line"/>
      <point x="180" y="456"/>
      <point x="181" y="476"/>
      <point x="181" y="497" type="curve" smooth="yes"/>
      <point x="181" y="714" type="line"/>
      <point x="18" y="714" type="line"/>
      <point x="18" y="689" type="line"/>
      <point x="153" y="689" type="line"/>
      <point x="153" y="259" type="line" smooth="yes"/>
      <point x="153" y="91"/>
      <point x="189" y="-10"/>
    </contour>
    <contour>
      <point x="307" y="15" type="curve" smooth="yes"/>
      <point x="208" y="15"/>
      <point x="181" y="104"/>
      <point x="181" y="263" type="curve" smooth="yes"/>
      <point x="181" y="445"/>
      <point x="228" y="521"/>
      <point x="316" y="521" type="curve" smooth="yes"/>
      <point x="413" y="521"/>
      <point x="453" y="441"/>
      <point x="453" y="266" type="curve" smooth="yes"/>
      <point x="453" y="125"/>
      <point x="418" y="15"/>
    </contour>
  </outline>
</glyph>
<glyph name="Tan-oldgeorgian" format="2">
  <advance width="559"/>
  <unicode hex="10A7"/>
  <note>
uni10A7
</note>
  <outline>
    <contour>
      <point x="469" y="385" type="curve" smooth="yes"/>
      <point x="432" y="385" type="line"/>
      <point x="432" y="609" type="line" smooth="yes"/>
      <point x="432" y="686"/>
      <point x="440" y="694"/>
      <point x="493" y="694" type="curve" smooth="yes"/>
      <point x="506" y="694" type="line"/>
      <point x="506" y="714" type="line"/>
      <point x="307" y="714" type="line" smooth="yes"/>
      <point x="147" y="714"/>
      <point x="65" y="576"/>
      <point x="65" y="343" type="curve" smooth="yes"/>
      <point x="65" y="124"/>
      <point x="139" y="0"/>
      <point x="308" y="0" type="curve" smooth="yes"/>
      <point x="506" y="0" type="line"/>
      <point x="506" y="20" type="line"/>
      <point x="494" y="20" type="line" smooth="yes"/>
      <point x="440" y="20"/>
      <point x="432" y="27"/>
      <point x="432" y="110" type="curve" smooth="yes"/>
      <point x="432" y="360" type="line"/>
      <point x="464" y="360" type="line" smooth="yes"/>
      <point x="505" y="360"/>
      <point x="522" y="345"/>
      <point x="522" y="279" type="curve"/>
      <point x="539" y="279"/>
      <point x="549" y="290"/>
      <point x="549" y="309" type="curve" smooth="yes"/>
      <point x="549" y="368"/>
      <point x="513" y="385"/>
    </contour>
    <contour>
      <point x="404" y="25" type="line"/>
      <point x="308" y="25" type="line" smooth="yes"/>
      <point x="164" y="25"/>
      <point x="93" y="128"/>
      <point x="93" y="343" type="curve" smooth="yes"/>
      <point x="93" y="557"/>
      <point x="164" y="689"/>
      <point x="307" y="689" type="curve" smooth="yes"/>
      <point x="404" y="689" type="line"/>
    </contour>
  </outline>
</glyph>
<glyph name="In-oldgeorgian" format="2">
  <advance width="301"/>
  <unicode hex="10A8"/>
  <note>
uni10A8
</note>
  <outline>
    <contour>
      <point x="247" y="714" type="line"/>
      <point x="18" y="714" type="line"/>
      <point x="18" y="689" type="line"/>
      <point x="153" y="689" type="line"/>
      <point x="153" y="0" type="line"/>
      <point x="181" y="0" type="line"/>
      <point x="181" y="646" type="line" smooth="yes"/>
      <point x="181" y="683"/>
      <point x="187" y="694"/>
      <point x="227" y="694" type="curve" smooth="yes"/>
      <point x="247" y="694" type="line"/>
    </contour>
  </outline>
</glyph>
<glyph name="Kan-oldgeorgian" format="2">
  <advance width="515"/>
  <unicode hex="10A9"/>
  <note>
uni10A9
</note>
  <outline>
    <contour>
      <point x="339" y="0" type="line"/>
      <point x="499" y="0" type="line"/>
      <point x="499" y="20" type="line"/>
      <point x="479" y="20" type="line" smooth="yes"/>
      <point x="439" y="20"/>
      <point x="433" y="31"/>
      <point x="433" y="68" type="curve" smooth="yes"/>
      <point x="433" y="346" type="line" smooth="yes"/>
      <point x="433" y="484"/>
      <point x="382" y="572"/>
      <point x="275" y="572" type="curve" smooth="yes"/>
      <point x="209" y="572"/>
      <point x="165" y="549"/>
      <point x="135" y="470" type="curve"/>
      <point x="131" y="470" type="line"/>
      <point x="132" y="491"/>
      <point x="133" y="506"/>
      <point x="133" y="527" type="curve" smooth="yes"/>
      <point x="133" y="646" type="line" smooth="yes"/>
      <point x="133" y="683"/>
      <point x="139" y="694"/>
      <point x="179" y="694" type="curve" smooth="yes"/>
      <point x="199" y="694" type="line"/>
      <point x="199" y="714" type="line"/>
      <point x="39" y="714" type="line"/>
      <point x="39" y="694" type="line"/>
      <point x="59" y="694" type="line" smooth="yes"/>
      <point x="89" y="694"/>
      <point x="105" y="683"/>
      <point x="105" y="646" type="curve" smooth="yes"/>
      <point x="105" y="346" type="line" smooth="yes"/>
      <point x="105" y="208"/>
      <point x="156" y="120"/>
      <point x="263" y="120" type="curve" smooth="yes"/>
      <point x="329" y="120"/>
      <point x="373" y="143"/>
      <point x="403" y="222" type="curve"/>
      <point x="407" y="222" type="line"/>
      <point x="406" y="201"/>
      <point x="405" y="186"/>
      <point x="405" y="165" type="curve" smooth="yes"/>
      <point x="405" y="68" type="line" smooth="yes"/>
      <point x="405" y="31"/>
      <point x="389" y="20"/>
      <point x="359" y="20" type="curve" smooth="yes"/>
      <point x="339" y="20" type="line"/>
    </contour>
    <contour>
      <point x="270" y="145" type="curve" smooth="yes"/>
      <point x="173" y="145"/>
      <point x="133" y="222"/>
      <point x="133" y="346" type="curve" smooth="yes"/>
      <point x="133" y="478"/>
      <point x="180" y="547"/>
      <point x="268" y="547" type="curve" smooth="yes"/>
      <point x="365" y="547"/>
      <point x="405" y="470"/>
      <point x="405" y="346" type="curve" smooth="yes"/>
      <point x="405" y="214"/>
      <point x="358" y="145"/>
    </contour>
  </outline>
</glyph>
<glyph name="Las-oldgeorgian" format="2">
  <advance width="701"/>
  <unicode hex="10AA"/>
  <note>
uni10AA
</note>
  <outline>
    <contour>
      <point x="491" y="-10" type="curve" smooth="yes"/>
      <point x="614" y="-10"/>
      <point x="665" y="100"/>
      <point x="665" y="266" type="curve" smooth="yes"/>
      <point x="665" y="455"/>
      <point x="614" y="546"/>
      <point x="502" y="546" type="curve" smooth="yes"/>
      <point x="441" y="546"/>
      <point x="397" y="514"/>
      <point x="367" y="435" type="curve"/>
      <point x="363" y="435" type="line"/>
      <point x="364" y="456"/>
      <point x="365" y="476"/>
      <point x="365" y="497" type="curve" smooth="yes"/>
      <point x="365" y="646" type="line" smooth="yes"/>
      <point x="365" y="683"/>
      <point x="371" y="694"/>
      <point x="411" y="694" type="curve" smooth="yes"/>
      <point x="431" y="694" type="line"/>
      <point x="431" y="714" type="line"/>
      <point x="36" y="714" type="line"/>
      <point x="36" y="694" type="line"/>
      <point x="56" y="694" type="line" smooth="yes"/>
      <point x="96" y="694"/>
      <point x="102" y="683"/>
      <point x="102" y="646" type="curve" smooth="yes"/>
      <point x="102" y="426" type="line" smooth="yes"/>
      <point x="102" y="389"/>
      <point x="96" y="378"/>
      <point x="56" y="378" type="curve" smooth="yes"/>
      <point x="36" y="378" type="line"/>
      <point x="36" y="358" type="line"/>
      <point x="130" y="358" type="line"/>
      <point x="130" y="689" type="line"/>
      <point x="337" y="689" type="line"/>
      <point x="337" y="259" type="line" smooth="yes"/>
      <point x="337" y="91"/>
      <point x="373" y="-10"/>
    </contour>
    <contour>
      <point x="491" y="15" type="curve" smooth="yes"/>
      <point x="392" y="15"/>
      <point x="365" y="104"/>
      <point x="365" y="263" type="curve" smooth="yes"/>
      <point x="365" y="445"/>
      <point x="412" y="521"/>
      <point x="500" y="521" type="curve" smooth="yes"/>
      <point x="597" y="521"/>
      <point x="637" y="441"/>
      <point x="637" y="266" type="curve" smooth="yes"/>
      <point x="637" y="125"/>
      <point x="602" y="15"/>
    </contour>
  </outline>
</glyph>
<glyph name="Man-oldgeorgian" format="2">
  <advance width="491"/>
  <unicode hex="10AB"/>
  <note>
uni10AB
</note>
  <outline>
    <contour>
      <point x="212" y="-10" type="curve" smooth="yes"/>
      <point x="305" y="-10"/>
      <point x="369" y="55"/>
      <point x="369" y="214" type="curve" smooth="yes"/>
      <point x="369" y="396" type="line"/>
      <point x="455" y="396" type="line"/>
      <point x="455" y="421" type="line"/>
      <point x="369" y="421" type="line"/>
      <point x="369" y="646" type="line" smooth="yes"/>
      <point x="369" y="683"/>
      <point x="375" y="694"/>
      <point x="415" y="694" type="curve" smooth="yes"/>
      <point x="435" y="694" type="line"/>
      <point x="435" y="714" type="line"/>
      <point x="81" y="714" type="line"/>
      <point x="81" y="689" type="line"/>
      <point x="341" y="689" type="line"/>
      <point x="341" y="421" type="line"/>
      <point x="230" y="421" type="line" smooth="yes"/>
      <point x="100" y="421"/>
      <point x="48" y="325"/>
      <point x="48" y="207" type="curve" smooth="yes"/>
      <point x="48" y="90"/>
      <point x="100" y="-10"/>
    </contour>
    <contour>
      <point x="211" y="15" type="curve" smooth="yes"/>
      <point x="111" y="15"/>
      <point x="76" y="116"/>
      <point x="76" y="207" type="curve" smooth="yes"/>
      <point x="76" y="299"/>
      <point x="111" y="396"/>
      <point x="229" y="396" type="curve" smooth="yes"/>
      <point x="341" y="396" type="line"/>
      <point x="341" y="205" type="line" smooth="yes"/>
      <point x="341" y="68"/>
      <point x="289" y="15"/>
    </contour>
  </outline>
</glyph>
<glyph name="Nar-oldgeorgian" format="2">
  <advance width="553"/>
  <unicode hex="10AC"/>
  <note>
uni10AC
</note>
  <outline>
    <contour>
      <point x="37" y="0" type="line"/>
      <point x="219" y="0" type="line"/>
      <point x="219" y="20" type="line"/>
      <point x="194" y="20" type="line" smooth="yes"/>
      <point x="144" y="20"/>
      <point x="138" y="31"/>
      <point x="138" y="108" type="curve" smooth="yes"/>
      <point x="138" y="290" type="line" smooth="yes"/>
      <point x="138" y="377"/>
      <point x="200" y="446"/>
      <point x="283" y="446" type="curve" smooth="yes"/>
      <point x="365" y="446"/>
      <point x="416" y="401"/>
      <point x="416" y="286" type="curve" smooth="yes"/>
      <point x="416" y="0" type="line"/>
      <point x="517" y="0" type="line"/>
      <point x="517" y="20" type="line"/>
      <point x="498" y="20" type="line" smooth="yes"/>
      <point x="448" y="20"/>
      <point x="442" y="31"/>
      <point x="442" y="108" type="curve" smooth="yes"/>
      <point x="442" y="298" type="line" smooth="yes"/>
      <point x="442" y="413"/>
      <point x="384" y="471"/>
      <point x="285" y="471" type="curve" smooth="yes"/>
      <point x="233" y="471"/>
      <point x="173" y="445"/>
      <point x="140" y="379" type="curve"/>
      <point x="136" y="379" type="line"/>
      <point x="137" y="400"/>
      <point x="138" y="420"/>
      <point x="138" y="441" type="curve" smooth="yes"/>
      <point x="138" y="689" type="line"/>
      <point x="416" y="689" type="line"/>
      <point x="416" y="714" type="line"/>
      <point x="40" y="714" type="line"/>
      <point x="40" y="694" type="line"/>
      <point x="60" y="694" type="line" smooth="yes"/>
      <point x="106" y="694"/>
      <point x="110" y="683"/>
      <point x="110" y="609" type="curve" smooth="yes"/>
      <point x="110" y="108" type="line" smooth="yes"/>
      <point x="110" y="31"/>
      <point x="104" y="20"/>
      <point x="54" y="20" type="curve" smooth="yes"/>
      <point x="37" y="20" type="line"/>
    </contour>
  </outline>
</glyph>
<glyph name="On-oldgeorgian" format="2">
  <advance width="580"/>
  <unicode hex="10AD"/>
  <note>
uni10AD
</note>
  <outline>
    <contour>
      <point x="543" y="94" type="curve" smooth="yes"/>
      <point x="540" y="94"/>
      <point x="535" y="93"/>
      <point x="533" y="92" type="curve"/>
      <point x="534" y="87"/>
      <point x="535" y="82"/>
      <point x="535" y="67" type="curve" smooth="yes"/>
      <point x="535" y="37"/>
      <point x="515" y="15"/>
      <point x="482" y="15" type="curve" smooth="yes"/>
      <point x="457" y="15"/>
      <point x="436" y="30"/>
      <point x="416" y="69" type="curve"/>
      <point x="465" y="138"/>
      <point x="485" y="244"/>
      <point x="485" y="358" type="curve" smooth="yes"/>
      <point x="485" y="610"/>
      <point x="414" y="724"/>
      <point x="265" y="724" type="curve" smooth="yes"/>
      <point x="118" y="724"/>
      <point x="44" y="596"/>
      <point x="44" y="359" type="curve" smooth="yes"/>
      <point x="44" y="137"/>
      <point x="116" y="-10"/>
      <point x="264" y="-10" type="curve" smooth="yes"/>
      <point x="321" y="-10"/>
      <point x="365" y="11"/>
      <point x="398" y="47" type="curve"/>
      <point x="420" y="11"/>
      <point x="448" y="-10"/>
      <point x="479" y="-10" type="curve" smooth="yes"/>
      <point x="511" y="-10"/>
      <point x="561" y="6"/>
      <point x="561" y="67" type="curve" smooth="yes"/>
      <point x="561" y="83"/>
      <point x="555" y="94"/>
    </contour>
    <contour>
      <point x="264" y="15" type="curve" smooth="yes"/>
      <point x="137" y="15"/>
      <point x="72" y="153"/>
      <point x="72" y="358" type="curve" smooth="yes"/>
      <point x="72" y="574"/>
      <point x="131" y="699"/>
      <point x="265" y="699" type="curve" smooth="yes"/>
      <point x="406" y="699"/>
      <point x="457" y="574"/>
      <point x="457" y="358" type="curve" smooth="yes"/>
      <point x="457" y="146"/>
      <point x="391" y="15"/>
    </contour>
  </outline>
</glyph>
<glyph name="Par-oldgeorgian" format="2">
  <advance width="580"/>
  <unicode hex="10AE"/>
  <note>
uni10AE
</note>
  <outline>
    <contour>
      <point x="562" y="714" type="line"/>
      <point x="402" y="714" type="line"/>
      <point x="402" y="694" type="line"/>
      <point x="422" y="694" type="line" smooth="yes"/>
      <point x="452" y="694"/>
      <point x="468" y="683"/>
      <point x="468" y="646" type="curve" smooth="yes"/>
      <point x="468" y="202" type="line" smooth="yes"/>
      <point x="468" y="114"/>
      <point x="429" y="15"/>
      <point x="317" y="15" type="curve" smooth="yes"/>
      <point x="229" y="15"/>
      <point x="171" y="74"/>
      <point x="171" y="210" type="curve" smooth="yes"/>
      <point x="171" y="714" type="line"/>
      <point x="18" y="714" type="line"/>
      <point x="18" y="689" type="line"/>
      <point x="143" y="689" type="line"/>
      <point x="143" y="214" type="line" smooth="yes"/>
      <point x="143" y="55"/>
      <point x="213" y="-10"/>
      <point x="316" y="-10" type="curve" smooth="yes"/>
      <point x="439" y="-10"/>
      <point x="496" y="89"/>
      <point x="496" y="200" type="curve" smooth="yes"/>
      <point x="496" y="646" type="line" smooth="yes"/>
      <point x="496" y="683"/>
      <point x="502" y="694"/>
      <point x="542" y="694" type="curve" smooth="yes"/>
      <point x="562" y="694" type="line"/>
    </contour>
  </outline>
</glyph>
<glyph name="Zhar-oldgeorgian" format="2">
  <advance width="526"/>
  <unicode hex="10AF"/>
  <note>
uni10AF
</note>
  <outline>
    <contour>
      <point x="426" y="68" type="curve" smooth="yes"/>
      <point x="426" y="646" type="line" smooth="yes"/>
      <point x="426" y="683"/>
      <point x="432" y="694"/>
      <point x="472" y="694" type="curve" smooth="yes"/>
      <point x="492" y="694" type="line"/>
      <point x="492" y="714" type="line"/>
      <point x="332" y="714" type="line"/>
      <point x="332" y="694" type="line"/>
      <point x="352" y="694" type="line" smooth="yes"/>
      <point x="382" y="694"/>
      <point x="398" y="683"/>
      <point x="398" y="646" type="curve" smooth="yes"/>
      <point x="398" y="399" type="line" smooth="yes"/>
      <point x="398" y="332"/>
      <point x="336" y="263"/>
      <point x="247" y="263" type="curve" smooth="yes"/>
      <point x="138" y="263"/>
      <point x="96" y="337"/>
      <point x="96" y="477" type="curve" smooth="yes"/>
      <point x="96" y="619"/>
      <point x="130" y="690"/>
      <point x="225" y="690" type="curve"/>
      <point x="225" y="714" type="line"/>
      <point x="18" y="714" type="line"/>
      <point x="18" y="689" type="line"/>
      <point x="142" y="689" type="line"/>
      <point x="89" y="654"/>
      <point x="68" y="584"/>
      <point x="68" y="477" type="curve" smooth="yes"/>
      <point x="68" y="312"/>
      <point x="125" y="238"/>
      <point x="245" y="238" type="curve" smooth="yes"/>
      <point x="303" y="238"/>
      <point x="363" y="264"/>
      <point x="396" y="330" type="curve"/>
      <point x="400" y="330" type="line"/>
      <point x="399" y="309"/>
      <point x="398" y="289"/>
      <point x="398" y="268" type="curve" smooth="yes"/>
      <point x="398" y="68" type="line" smooth="yes"/>
      <point x="398" y="31"/>
      <point x="382" y="20"/>
      <point x="352" y="20" type="curve" smooth="yes"/>
      <point x="332" y="20" type="line"/>
      <point x="332" y="0" type="line"/>
      <point x="492" y="0" type="line"/>
      <point x="492" y="20" type="line"/>
      <point x="472" y="20" type="line" smooth="yes"/>
      <point x="432" y="20"/>
      <point x="426" y="31"/>
    </contour>
  </outline>
</glyph>
<glyph name="Rae-oldgeorgian" format="2">
  <advance width="692"/>
  <unicode hex="10B0"/>
  <note>
uni10B0
</note>
  <outline>
    <contour>
      <point x="217" y="-10" type="curve" smooth="yes"/>
      <point x="310" y="-10"/>
      <point x="375" y="45"/>
      <point x="375" y="204" type="curve" smooth="yes"/>
      <point x="375" y="320" type="line" smooth="yes"/>
      <point x="375" y="407"/>
      <point x="407" y="476"/>
      <point x="494" y="476" type="curve" smooth="yes"/>
      <point x="550" y="476"/>
      <point x="596" y="438"/>
      <point x="596" y="354" type="curve" smooth="yes"/>
      <point x="596" y="297"/>
      <point x="588" y="263"/>
      <point x="558" y="224" type="curve"/>
      <point x="561" y="222"/>
      <point x="565" y="222"/>
      <point x="569" y="222" type="curve" smooth="yes"/>
      <point x="606" y="222"/>
      <point x="624" y="298"/>
      <point x="624" y="353" type="curve" smooth="yes"/>
      <point x="624" y="448"/>
      <point x="571" y="501"/>
      <point x="496" y="501" type="curve" smooth="yes"/>
      <point x="440" y="501"/>
      <point x="394" y="470"/>
      <point x="377" y="419" type="curve"/>
      <point x="373" y="419" type="line"/>
      <point x="374" y="440"/>
      <point x="375" y="460"/>
      <point x="375" y="481" type="curve" smooth="yes"/>
      <point x="375" y="646" type="line" smooth="yes"/>
      <point x="375" y="683"/>
      <point x="381" y="694"/>
      <point x="415" y="694" type="curve" smooth="yes"/>
      <point x="435" y="694" type="line"/>
      <point x="435" y="714" type="line"/>
      <point x="281" y="714" type="line"/>
      <point x="281" y="694" type="line"/>
      <point x="301" y="694" type="line" smooth="yes"/>
      <point x="331" y="694"/>
      <point x="347" y="683"/>
      <point x="347" y="646" type="curve" smooth="yes"/>
      <point x="347" y="200" type="line" smooth="yes"/>
      <point x="347" y="64"/>
      <point x="294" y="15"/>
      <point x="216" y="15" type="curve" smooth="yes"/>
      <point x="134" y="15"/>
      <point x="90" y="94"/>
      <point x="90" y="202" type="curve" smooth="yes"/>
      <point x="90" y="260"/>
      <point x="103" y="315"/>
      <point x="140" y="354" type="curve"/>
      <point x="136" y="357"/>
      <point x="132" y="358"/>
      <point x="128" y="358" type="curve" smooth="yes"/>
      <point x="87" y="358"/>
      <point x="62" y="267"/>
      <point x="62" y="200" type="curve" smooth="yes"/>
      <point x="62" y="69"/>
      <point x="124" y="-10"/>
    </contour>
  </outline>
</glyph>
<glyph name="San-oldgeorgian" format="2">
  <advance width="464"/>
  <unicode hex="10B1"/>
  <note>
uni10B1
</note>
  <outline>
    <contour>
      <point x="241" y="-10" type="curve" smooth="yes"/>
      <point x="334" y="-10"/>
      <point x="396" y="69"/>
      <point x="396" y="200" type="curve" smooth="yes"/>
      <point x="396" y="267"/>
      <point x="371" y="358"/>
      <point x="330" y="358" type="curve" smooth="yes"/>
      <point x="326" y="358"/>
      <point x="322" y="357"/>
      <point x="318" y="354" type="curve"/>
      <point x="355" y="315"/>
      <point x="368" y="260"/>
      <point x="368" y="202" type="curve" smooth="yes"/>
      <point x="368" y="94"/>
      <point x="324" y="15"/>
      <point x="242" y="15" type="curve" smooth="yes"/>
      <point x="164" y="15"/>
      <point x="111" y="64"/>
      <point x="111" y="200" type="curve" smooth="yes"/>
      <point x="111" y="714" type="line"/>
      <point x="10" y="714" type="line"/>
      <point x="10" y="694" type="line"/>
      <point x="33" y="694" type="line" smooth="yes"/>
      <point x="79" y="694"/>
      <point x="83" y="683"/>
      <point x="83" y="609" type="curve" smooth="yes"/>
      <point x="83" y="204" type="line" smooth="yes"/>
      <point x="83" y="45"/>
      <point x="148" y="-10"/>
    </contour>
  </outline>
</glyph>
<glyph name="Tar-oldgeorgian" format="2">
  <advance width="453"/>
  <unicode hex="10B2"/>
  <note>
uni10B2
</note>
  <outline>
    <contour>
      <point x="347" y="-81" type="curve"/>
      <point x="364" y="-81"/>
      <point x="374" y="-70"/>
      <point x="374" y="-51" type="curve" smooth="yes"/>
      <point x="374" y="8"/>
      <point x="338" y="25"/>
      <point x="294" y="25" type="curve" smooth="yes"/>
      <point x="137" y="25" type="line"/>
      <point x="137" y="284" type="line"/>
      <point x="207" y="284" type="line" smooth="yes"/>
      <point x="349" y="284"/>
      <point x="393" y="399"/>
      <point x="393" y="509" type="curve" smooth="yes"/>
      <point x="393" y="647"/>
      <point x="339" y="714"/>
      <point x="217" y="714" type="curve" smooth="yes"/>
      <point x="36" y="714" type="line"/>
      <point x="36" y="694" type="line"/>
      <point x="53" y="694" type="line" smooth="yes"/>
      <point x="103" y="694"/>
      <point x="109" y="683"/>
      <point x="109" y="606" type="curve" smooth="yes"/>
      <point x="109" y="0" type="line"/>
      <point x="289" y="0" type="line" smooth="yes"/>
      <point x="330" y="0"/>
      <point x="347" y="-15"/>
    </contour>
    <contour>
      <point x="137" y="309" type="line"/>
      <point x="137" y="689" type="line"/>
      <point x="217" y="689" type="line" smooth="yes"/>
      <point x="325" y="689"/>
      <point x="365" y="629"/>
      <point x="365" y="509" type="curve" smooth="yes"/>
      <point x="365" y="420"/>
      <point x="333" y="309"/>
      <point x="210" y="309" type="curve" smooth="yes"/>
    </contour>
  </outline>
</glyph>
<glyph name="Un-oldgeorgian" format="2">
  <advance width="530"/>
  <unicode hex="10B3"/>
  <note>
uni10B3
</note>
  <outline>
    <contour>
      <point x="386" y="-160" type="curve" smooth="yes"/>
      <point x="456" y="-160"/>
      <point x="504" y="-117"/>
      <point x="504" y="-34" type="curve" smooth="yes"/>
      <point x="504" y="29"/>
      <point x="475" y="70"/>
      <point x="428" y="89" type="curve"/>
      <point x="465" y="152"/>
      <point x="485" y="243"/>
      <point x="485" y="358" type="curve" smooth="yes"/>
      <point x="485" y="610"/>
      <point x="414" y="724"/>
      <point x="265" y="724" type="curve" smooth="yes"/>
      <point x="118" y="724"/>
      <point x="44" y="596"/>
      <point x="44" y="359" type="curve" smooth="yes"/>
      <point x="44" y="137"/>
      <point x="116" y="-10"/>
      <point x="264" y="-10" type="curve" smooth="yes"/>
      <point x="327" y="-10"/>
      <point x="378" y="17"/>
      <point x="415" y="68" type="curve"/>
      <point x="452" y="52"/>
      <point x="474" y="18"/>
      <point x="474" y="-33" type="curve" smooth="yes"/>
      <point x="474" y="-101"/>
      <point x="440" y="-135"/>
      <point x="386" y="-135" type="curve" smooth="yes"/>
      <point x="345" y="-135"/>
      <point x="324" y="-119"/>
      <point x="324" y="-78" type="curve"/>
      <point x="309" y="-78"/>
      <point x="299" y="-86"/>
      <point x="299" y="-108" type="curve" smooth="yes"/>
      <point x="299" y="-136"/>
      <point x="330" y="-160"/>
    </contour>
    <contour>
      <point x="264" y="15" type="curve" smooth="yes"/>
      <point x="137" y="15"/>
      <point x="72" y="153"/>
      <point x="72" y="358" type="curve" smooth="yes"/>
      <point x="72" y="574"/>
      <point x="131" y="699"/>
      <point x="265" y="699" type="curve" smooth="yes"/>
      <point x="406" y="699"/>
      <point x="457" y="574"/>
      <point x="457" y="358" type="curve" smooth="yes"/>
      <point x="457" y="146"/>
      <point x="392" y="15"/>
    </contour>
  </outline>
</glyph>
<glyph name="Phar-oldgeorgian" format="2">
  <advance width="532"/>
  <unicode hex="10B4"/>
  <note>
uni10B4
</note>
  <outline>
    <contour>
      <point x="252" y="0" type="line"/>
      <point x="280" y="0" type="line"/>
      <point x="280" y="228" type="line"/>
      <point x="424" y="238"/>
      <point x="496" y="330"/>
      <point x="496" y="480" type="curve" smooth="yes"/>
      <point x="496" y="634"/>
      <point x="410" y="724"/>
      <point x="267" y="724" type="curve" smooth="yes"/>
      <point x="123" y="724"/>
      <point x="36" y="636"/>
      <point x="36" y="474" type="curve" smooth="yes"/>
      <point x="36" y="322"/>
      <point x="108" y="238"/>
      <point x="252" y="228" type="curve"/>
    </contour>
    <contour>
      <point x="252" y="253" type="line"/>
      <point x="128" y="263"/>
      <point x="64" y="336"/>
      <point x="64" y="475" type="curve" smooth="yes"/>
      <point x="64" y="611"/>
      <point x="126" y="689"/>
      <point x="252" y="699" type="curve"/>
    </contour>
    <contour>
      <point x="280" y="253" type="curve"/>
      <point x="280" y="699" type="line"/>
      <point x="402" y="689"/>
      <point x="468" y="618"/>
      <point x="468" y="481" type="curve" smooth="yes"/>
      <point x="468" y="339"/>
      <point x="405" y="263"/>
    </contour>
  </outline>
</glyph>
<glyph name="Khar-oldgeorgian" format="2">
  <advance width="482"/>
  <unicode hex="10B5"/>
  <note>
uni10B5
</note>
  <outline>
    <contour>
      <point x="391" y="524" type="curve" smooth="yes"/>
      <point x="357" y="524"/>
      <point x="288" y="509"/>
      <point x="253" y="501" type="curve"/>
      <point x="253" y="646" type="line" smooth="yes"/>
      <point x="253" y="683"/>
      <point x="259" y="694"/>
      <point x="299" y="694" type="curve" smooth="yes"/>
      <point x="319" y="694" type="line"/>
      <point x="319" y="714" type="line"/>
      <point x="159" y="714" type="line"/>
      <point x="159" y="694" type="line"/>
      <point x="179" y="694" type="line" smooth="yes"/>
      <point x="209" y="694"/>
      <point x="225" y="683"/>
      <point x="225" y="646" type="curve" smooth="yes"/>
      <point x="225" y="496" type="line"/>
      <point x="179" y="487"/>
      <point x="139" y="483"/>
      <point x="120" y="483" type="curve" smooth="yes"/>
      <point x="90" y="483"/>
      <point x="67" y="494"/>
      <point x="65" y="524" type="curve"/>
      <point x="46" y="518"/>
      <point x="35" y="507"/>
      <point x="35" y="493" type="curve" smooth="yes"/>
      <point x="35" y="470"/>
      <point x="54" y="459"/>
      <point x="92" y="459" type="curve" smooth="yes"/>
      <point x="128" y="459"/>
      <point x="194" y="470"/>
      <point x="225" y="476" type="curve"/>
      <point x="225" y="0" type="line"/>
      <point x="253" y="0" type="line"/>
      <point x="253" y="482" type="line"/>
      <point x="307" y="494"/>
      <point x="339" y="500"/>
      <point x="367" y="500" type="curve" smooth="yes"/>
      <point x="404" y="500"/>
      <point x="413" y="479"/>
      <point x="418" y="449" type="curve"/>
      <point x="436" y="455"/>
      <point x="447" y="468"/>
      <point x="447" y="485" type="curve" smooth="yes"/>
      <point x="447" y="511"/>
      <point x="428" y="524"/>
    </contour>
  </outline>
</glyph>
<glyph name="Ghan-oldgeorgian" format="2">
  <advance width="561"/>
  <unicode hex="10B6"/>
  <note>
uni10B6
</note>
  <outline>
    <contour>
      <point x="503" y="20" type="line" smooth="yes"/>
      <point x="463" y="20"/>
      <point x="457" y="31"/>
      <point x="457" y="68" type="curve" smooth="yes"/>
      <point x="457" y="500" type="line" smooth="yes"/>
      <point x="457" y="659"/>
      <point x="387" y="724"/>
      <point x="284" y="724" type="curve" smooth="yes"/>
      <point x="161" y="724"/>
      <point x="104" y="625"/>
      <point x="104" y="514" type="curve" smooth="yes"/>
      <point x="104" y="68" type="line" smooth="yes"/>
      <point x="104" y="31"/>
      <point x="88" y="20"/>
      <point x="58" y="20" type="curve" smooth="yes"/>
      <point x="38" y="20" type="line"/>
      <point x="38" y="0" type="line"/>
      <point x="198" y="0" type="line"/>
      <point x="198" y="20" type="line"/>
      <point x="178" y="20" type="line" smooth="yes"/>
      <point x="138" y="20"/>
      <point x="132" y="31"/>
      <point x="132" y="68" type="curve" smooth="yes"/>
      <point x="132" y="512" type="line" smooth="yes"/>
      <point x="132" y="600"/>
      <point x="171" y="699"/>
      <point x="283" y="699" type="curve" smooth="yes"/>
      <point x="371" y="699"/>
      <point x="429" y="640"/>
      <point x="429" y="504" type="curve" smooth="yes"/>
      <point x="429" y="68" type="line" smooth="yes"/>
      <point x="429" y="31"/>
      <point x="413" y="20"/>
      <point x="383" y="20" type="curve" smooth="yes"/>
      <point x="363" y="20" type="line"/>
      <point x="363" y="0" type="line"/>
      <point x="523" y="0" type="line"/>
      <point x="523" y="20" type="line"/>
    </contour>
  </outline>
</glyph>
<glyph name="Qar-oldgeorgian" format="2">
  <advance width="516"/>
  <unicode hex="10B7"/>
  <note>
uni10B7
</note>
  <outline>
    <contour>
      <point x="312" y="0" type="line"/>
      <point x="472" y="0" type="line"/>
      <point x="472" y="20" type="line"/>
      <point x="452" y="20" type="line" smooth="yes"/>
      <point x="412" y="20"/>
      <point x="406" y="31"/>
      <point x="406" y="68" type="curve" smooth="yes"/>
      <point x="406" y="646" type="line" smooth="yes"/>
      <point x="406" y="683"/>
      <point x="412" y="694"/>
      <point x="446" y="694" type="curve" smooth="yes"/>
      <point x="466" y="694" type="line"/>
      <point x="466" y="714" type="line"/>
      <point x="312" y="714" type="line"/>
      <point x="312" y="694" type="line"/>
      <point x="332" y="694" type="line" smooth="yes"/>
      <point x="362" y="694"/>
      <point x="378" y="683"/>
      <point x="378" y="646" type="curve" smooth="yes"/>
      <point x="378" y="399" type="line" smooth="yes"/>
      <point x="378" y="332"/>
      <point x="316" y="263"/>
      <point x="227" y="263" type="curve" smooth="yes"/>
      <point x="118" y="263"/>
      <point x="76" y="337"/>
      <point x="76" y="477" type="curve" smooth="yes"/>
      <point x="76" y="619"/>
      <point x="126" y="695"/>
      <point x="205" y="695" type="curve"/>
      <point x="205" y="703"/>
      <point x="203" y="724"/>
      <point x="174" y="718" type="curve" smooth="yes"/>
      <point x="100" y="703"/>
      <point x="48" y="636"/>
      <point x="48" y="477" type="curve" smooth="yes"/>
      <point x="48" y="312"/>
      <point x="105" y="238"/>
      <point x="225" y="238" type="curve" smooth="yes"/>
      <point x="283" y="238"/>
      <point x="343" y="264"/>
      <point x="376" y="330" type="curve"/>
      <point x="380" y="330" type="line"/>
      <point x="379" y="309"/>
      <point x="378" y="289"/>
      <point x="378" y="268" type="curve" smooth="yes"/>
      <point x="378" y="68" type="line" smooth="yes"/>
      <point x="378" y="31"/>
      <point x="362" y="20"/>
      <point x="332" y="20" type="curve" smooth="yes"/>
      <point x="312" y="20" type="line"/>
    </contour>
  </outline>
</glyph>
<glyph name="Shin-oldgeorgian" format="2">
  <advance width="492"/>
  <unicode hex="10B8"/>
  <note>
uni10B8
</note>
  <outline>
    <contour>
      <point x="318" y="714" type="line"/>
      <point x="318" y="694" type="line"/>
      <point x="338" y="694" type="line" smooth="yes"/>
      <point x="368" y="694"/>
      <point x="384" y="683"/>
      <point x="384" y="646" type="curve" smooth="yes"/>
      <point x="384" y="459" type="line" smooth="yes"/>
      <point x="384" y="392"/>
      <point x="322" y="323"/>
      <point x="233" y="323" type="curve" smooth="yes"/>
      <point x="157" y="323"/>
      <point x="118" y="368"/>
      <point x="118" y="473" type="curve" smooth="yes"/>
      <point x="118" y="714" type="line"/>
      <point x="20" y="714" type="line"/>
      <point x="20" y="694" type="line"/>
      <point x="40" y="694" type="line" smooth="yes"/>
      <point x="86" y="694"/>
      <point x="90" y="683"/>
      <point x="90" y="609" type="curve" smooth="yes"/>
      <point x="90" y="461" type="line" smooth="yes"/>
      <point x="90" y="356"/>
      <point x="138" y="298"/>
      <point x="231" y="298" type="curve" smooth="yes"/>
      <point x="289" y="298"/>
      <point x="349" y="324"/>
      <point x="382" y="390" type="curve"/>
      <point x="386" y="390" type="line"/>
      <point x="385" y="369"/>
      <point x="384" y="349"/>
      <point x="384" y="328" type="curve" smooth="yes"/>
      <point x="384" y="200" type="line" smooth="yes"/>
      <point x="384" y="64"/>
      <point x="332" y="15"/>
      <point x="253" y="15" type="curve" smooth="yes"/>
      <point x="153" y="15"/>
      <point x="118" y="94"/>
      <point x="118" y="162" type="curve" smooth="yes"/>
      <point x="118" y="176"/>
      <point x="119" y="190"/>
      <point x="124" y="204" type="curve"/>
      <point x="121" y="205"/>
      <point x="118" y="206"/>
      <point x="115" y="206" type="curve" smooth="yes"/>
      <point x="98" y="206"/>
      <point x="90" y="183"/>
      <point x="90" y="155" type="curve" smooth="yes"/>
      <point x="90" y="74"/>
      <point x="142" y="-10"/>
      <point x="254" y="-10" type="curve" smooth="yes"/>
      <point x="348" y="-10"/>
      <point x="412" y="45"/>
      <point x="412" y="204" type="curve" smooth="yes"/>
      <point x="412" y="646" type="line" smooth="yes"/>
      <point x="412" y="683"/>
      <point x="418" y="694"/>
      <point x="458" y="694" type="curve" smooth="yes"/>
      <point x="478" y="694" type="line"/>
      <point x="478" y="714" type="line"/>
    </contour>
  </outline>
</glyph>
<glyph name="Chin-oldgeorgian" format="2">
  <advance width="564"/>
  <unicode hex="10B9"/>
  <note>
uni10B9
</note>
  <outline>
    <contour>
      <point x="510" y="20" type="line" smooth="yes"/>
      <point x="460" y="20"/>
      <point x="454" y="31"/>
      <point x="454" y="108" type="curve" smooth="yes"/>
      <point x="454" y="426" type="line"/>
      <point x="140" y="426" type="line"/>
      <point x="140" y="646" type="line" smooth="yes"/>
      <point x="140" y="683"/>
      <point x="156" y="694"/>
      <point x="186" y="694" type="curve" smooth="yes"/>
      <point x="206" y="694" type="line"/>
      <point x="206" y="714" type="line"/>
      <point x="46" y="714" type="line"/>
      <point x="46" y="694" type="line"/>
      <point x="66" y="694" type="line" smooth="yes"/>
      <point x="106" y="694"/>
      <point x="112" y="683"/>
      <point x="112" y="646" type="curve" smooth="yes"/>
      <point x="112" y="108" type="line" smooth="yes"/>
      <point x="112" y="31"/>
      <point x="106" y="20"/>
      <point x="56" y="20" type="curve" smooth="yes"/>
      <point x="39" y="20" type="line"/>
      <point x="39" y="0" type="line"/>
      <point x="221" y="0" type="line"/>
      <point x="221" y="20" type="line"/>
      <point x="196" y="20" type="line" smooth="yes"/>
      <point x="146" y="20"/>
      <point x="140" y="31"/>
      <point x="140" y="108" type="curve" smooth="yes"/>
      <point x="140" y="401" type="line"/>
      <point x="426" y="401" type="line"/>
      <point x="426" y="0" type="line"/>
      <point x="529" y="0" type="line"/>
      <point x="529" y="20" type="line"/>
    </contour>
  </outline>
</glyph>
<glyph name="Can-oldgeorgian" format="2">
  <advance width="427"/>
  <unicode hex="10BA"/>
  <note>
uni10BA
</note>
  <outline>
    <contour>
      <point x="241" y="-128" type="curve" smooth="yes"/>
      <point x="267" y="-128"/>
      <point x="301" y="-115"/>
      <point x="339" y="-66" type="curve" smooth="yes"/>
      <point x="375" y="-20"/>
      <point x="399" y="34"/>
      <point x="399" y="84" type="curve" smooth="yes"/>
      <point x="399" y="99"/>
      <point x="394" y="107"/>
      <point x="386" y="112" type="curve"/>
      <point x="364" y="55"/>
      <point x="328" y="15"/>
      <point x="254" y="15" type="curve" smooth="yes"/>
      <point x="131" y="15"/>
      <point x="72" y="162"/>
      <point x="72" y="358" type="curve" smooth="yes"/>
      <point x="72" y="553"/>
      <point x="130" y="699"/>
      <point x="256" y="699" type="curve" smooth="yes"/>
      <point x="345" y="699"/>
      <point x="382" y="650"/>
      <point x="382" y="566" type="curve"/>
      <point x="395" y="566"/>
      <point x="403" y="582"/>
      <point x="403" y="612" type="curve" smooth="yes"/>
      <point x="403" y="671"/>
      <point x="348" y="724"/>
      <point x="257" y="724" type="curve" smooth="yes"/>
      <point x="118" y="724"/>
      <point x="44" y="583"/>
      <point x="44" y="358" type="curve" smooth="yes"/>
      <point x="44" y="137"/>
      <point x="117" y="-10"/>
      <point x="254" y="-10" type="curve" smooth="yes"/>
      <point x="299" y="-10"/>
      <point x="338" y="6"/>
      <point x="365" y="29" type="curve"/>
      <point x="337" y="-47"/>
      <point x="287" y="-100"/>
      <point x="250" y="-100" type="curve" smooth="yes"/>
      <point x="237" y="-100"/>
      <point x="229" y="-96"/>
      <point x="221" y="-86" type="curve"/>
      <point x="215" y="-93"/>
      <point x="213" y="-99"/>
      <point x="213" y="-108" type="curve" smooth="yes"/>
      <point x="213" y="-119"/>
      <point x="223" y="-128"/>
    </contour>
  </outline>
</glyph>
<glyph name="Jil-oldgeorgian" format="2">
  <advance width="718"/>
  <unicode hex="10BB"/>
  <note>
uni10BB
</note>
  <outline>
    <contour>
      <point x="212" y="-10" type="curve" smooth="yes"/>
      <point x="305" y="-10"/>
      <point x="369" y="55"/>
      <point x="369" y="204" type="curve" smooth="yes"/>
      <point x="369" y="401" type="line"/>
      <point x="580" y="401" type="line"/>
      <point x="580" y="0" type="line"/>
      <point x="683" y="0" type="line"/>
      <point x="683" y="20" type="line"/>
      <point x="664" y="20" type="line" smooth="yes"/>
      <point x="614" y="20"/>
      <point x="608" y="31"/>
      <point x="608" y="108" type="curve" smooth="yes"/>
      <point x="608" y="426" type="line"/>
      <point x="369" y="426" type="line"/>
      <point x="369" y="646" type="line" smooth="yes"/>
      <point x="369" y="683"/>
      <point x="385" y="694"/>
      <point x="415" y="694" type="curve" smooth="yes"/>
      <point x="435" y="694" type="line"/>
      <point x="435" y="714" type="line"/>
      <point x="275" y="714" type="line"/>
      <point x="275" y="694" type="line"/>
      <point x="295" y="694" type="line" smooth="yes"/>
      <point x="335" y="694"/>
      <point x="341" y="683"/>
      <point x="341" y="646" type="curve" smooth="yes"/>
      <point x="341" y="426" type="line"/>
      <point x="230" y="426" type="line" smooth="yes"/>
      <point x="100" y="426"/>
      <point x="48" y="325"/>
      <point x="48" y="207" type="curve" smooth="yes"/>
      <point x="48" y="90"/>
      <point x="100" y="-10"/>
    </contour>
    <contour>
      <point x="211" y="15" type="curve" smooth="yes"/>
      <point x="111" y="15"/>
      <point x="76" y="116"/>
      <point x="76" y="207" type="curve" smooth="yes"/>
      <point x="76" y="299"/>
      <point x="111" y="401"/>
      <point x="229" y="401" type="curve" smooth="yes"/>
      <point x="341" y="401" type="line"/>
      <point x="341" y="205" type="line" smooth="yes"/>
      <point x="341" y="68"/>
      <point x="289" y="15"/>
    </contour>
  </outline>
</glyph>
<glyph name="Cil-oldgeorgian" format="2">
  <advance width="433"/>
  <unicode hex="10BC"/>
  <note>
uni10BC
</note>
  <outline>
    <contour>
      <point x="109" y="0" type="line"/>
      <point x="137" y="0" type="line"/>
      <point x="137" y="159" type="line"/>
      <point x="169" y="159" type="line" smooth="yes"/>
      <point x="210" y="159"/>
      <point x="227" y="144"/>
      <point x="227" y="78" type="curve"/>
      <point x="244" y="78"/>
      <point x="254" y="89"/>
      <point x="254" y="108" type="curve" smooth="yes"/>
      <point x="254" y="167"/>
      <point x="218" y="184"/>
      <point x="174" y="184" type="curve" smooth="yes"/>
      <point x="137" y="184" type="line"/>
      <point x="137" y="284" type="line"/>
      <point x="207" y="284" type="line" smooth="yes"/>
      <point x="349" y="284"/>
      <point x="393" y="399"/>
      <point x="393" y="509" type="curve" smooth="yes"/>
      <point x="393" y="647"/>
      <point x="339" y="714"/>
      <point x="217" y="714" type="curve" smooth="yes"/>
      <point x="36" y="714" type="line"/>
      <point x="36" y="694" type="line"/>
      <point x="53" y="694" type="line" smooth="yes"/>
      <point x="103" y="694"/>
      <point x="109" y="683"/>
      <point x="109" y="606" type="curve" smooth="yes"/>
    </contour>
    <contour>
      <point x="137" y="309" type="line"/>
      <point x="137" y="689" type="line"/>
      <point x="217" y="689" type="line" smooth="yes"/>
      <point x="325" y="689"/>
      <point x="365" y="629"/>
      <point x="365" y="509" type="curve" smooth="yes"/>
      <point x="365" y="420"/>
      <point x="333" y="309"/>
      <point x="210" y="309" type="curve" smooth="yes"/>
    </contour>
  </outline>
</glyph>
<glyph name="Xan-oldgeorgian" format="2">
  <advance width="549"/>
  <unicode hex="10BE"/>
  <note>
uni10BE
</note>
  <outline>
    <contour>
      <point x="37" y="0" type="line"/>
      <point x="452" y="0" type="line"/>
      <point x="452" y="20" type="line"/>
      <point x="138" y="20" type="line"/>
      <point x="138" y="308" type="line"/>
      <point x="442" y="308" type="line"/>
      <point x="442" y="606" type="line"/>
      <point x="442" y="683"/>
      <point x="448" y="694"/>
      <point x="498" y="694" type="curve" smooth="yes"/>
      <point x="517" y="694" type="line"/>
      <point x="517" y="714" type="line"/>
      <point x="414" y="714" type="line"/>
      <point x="414" y="333" type="line"/>
      <point x="138" y="333" type="line"/>
      <point x="138" y="606" type="line" smooth="yes"/>
      <point x="138" y="683"/>
      <point x="144" y="694"/>
      <point x="194" y="694" type="curve" smooth="yes"/>
      <point x="219" y="694" type="line"/>
      <point x="219" y="714" type="line"/>
      <point x="37" y="714" type="line"/>
      <point x="37" y="694" type="line"/>
      <point x="54" y="694" type="line" smooth="yes"/>
      <point x="104" y="694"/>
      <point x="110" y="683"/>
      <point x="110" y="606" type="curve" smooth="yes"/>
      <point x="110" y="108" type="line" smooth="yes"/>
      <point x="110" y="31"/>
      <point x="104" y="20"/>
      <point x="54" y="20" type="curve" smooth="yes"/>
      <point x="37" y="20" type="line"/>
    </contour>
  </outline>
</glyph>
<glyph name="Jhan-oldgeorgian" format="2">
  <advance width="443"/>
  <unicode hex="10BF"/>
  <note>
uni10BF
</note>
  <outline>
    <contour>
      <point x="4" y="0" type="line"/>
      <point x="25" y="0" type="line" smooth="yes"/>
      <point x="74" y="0"/>
      <point x="84" y="7"/>
      <point x="108" y="64" type="curve" smooth="yes"/>
      <point x="222" y="337" type="line"/>
      <point x="321" y="121" type="line" smooth="yes"/>
      <point x="345" y="68"/>
      <point x="355" y="47"/>
      <point x="355" y="36" type="curve" smooth="yes"/>
      <point x="355" y="26"/>
      <point x="351" y="20"/>
      <point x="313" y="20" type="curve" smooth="yes"/>
      <point x="283" y="20" type="line"/>
      <point x="283" y="0" type="line"/>
      <point x="441" y="0" type="line"/>
      <point x="441" y="20" type="line"/>
      <point x="437" y="20" type="line" smooth="yes"/>
      <point x="401" y="20"/>
      <point x="394" y="23"/>
      <point x="374" y="68" type="curve" smooth="yes"/>
      <point x="236" y="371" type="line"/>
      <point x="372" y="694" type="line"/>
      <point x="372" y="714" type="line"/>
      <point x="9" y="714" type="line"/>
      <point x="9" y="694" type="line"/>
      <point x="59" y="694" type="line"/>
      <point x="208" y="368" type="line"/>
      <point x="82" y="67" type="line" smooth="yes"/>
      <point x="63" y="22"/>
      <point x="54" y="20"/>
      <point x="10" y="20" type="curve" smooth="yes"/>
      <point x="4" y="20" type="line"/>
    </contour>
    <contour>
      <point x="222" y="402" type="line"/>
      <point x="89" y="694" type="line"/>
      <point x="295" y="694" type="line" smooth="yes"/>
      <point x="329" y="694"/>
      <point x="332" y="686"/>
      <point x="332" y="674" type="curve" smooth="yes"/>
      <point x="332" y="658"/>
      <point x="320" y="637"/>
      <point x="308" y="607" type="curve" smooth="yes"/>
    </contour>
  </outline>
</glyph>
<glyph name="Hae-oldgeorgian" format="2">
  <advance width="722"/>
  <unicode hex="10C0"/>
  <note>
uni10C0
</note>
  <outline>
    <contour>
      <point x="520" y="-10" type="curve" smooth="yes"/>
      <point x="633" y="-10"/>
      <point x="690" y="89"/>
      <point x="690" y="200" type="curve" smooth="yes"/>
      <point x="690" y="260"/>
      <point x="666" y="358"/>
      <point x="629" y="358" type="curve" smooth="yes"/>
      <point x="623" y="358"/>
      <point x="617" y="356"/>
      <point x="612" y="354" type="curve"/>
      <point x="651" y="315"/>
      <point x="662" y="260"/>
      <point x="662" y="202" type="curve" smooth="yes"/>
      <point x="662" y="114"/>
      <point x="623" y="15"/>
      <point x="521" y="15" type="curve" smooth="yes"/>
      <point x="423" y="15"/>
      <point x="365" y="74"/>
      <point x="365" y="210" type="curve" smooth="yes"/>
      <point x="365" y="646" type="line" smooth="yes"/>
      <point x="365" y="683"/>
      <point x="371" y="694"/>
      <point x="411" y="694" type="curve" smooth="yes"/>
      <point x="431" y="694" type="line"/>
      <point x="431" y="714" type="line"/>
      <point x="36" y="714" type="line"/>
      <point x="36" y="694" type="line"/>
      <point x="56" y="694" type="line" smooth="yes"/>
      <point x="96" y="694"/>
      <point x="102" y="683"/>
      <point x="102" y="646" type="curve" smooth="yes"/>
      <point x="102" y="426" type="line" smooth="yes"/>
      <point x="102" y="389"/>
      <point x="96" y="378"/>
      <point x="56" y="378" type="curve" smooth="yes"/>
      <point x="36" y="378" type="line"/>
      <point x="36" y="358" type="line"/>
      <point x="130" y="358" type="line"/>
      <point x="130" y="689" type="line"/>
      <point x="337" y="689" type="line"/>
      <point x="337" y="214" type="line" smooth="yes"/>
      <point x="337" y="55"/>
      <point x="407" y="-10"/>
    </contour>
  </outline>
</glyph>
<glyph name="He-oldgeorgian" format="2">
  <advance width="550"/>
  <unicode hex="10C1"/>
  <note>
uni10C1
</note>
  <outline>
    <contour>
      <point x="105" y="0" type="line"/>
      <point x="133" y="0" type="line"/>
      <point x="133" y="381" type="line" smooth="yes"/>
      <point x="133" y="448"/>
      <point x="195" y="517"/>
      <point x="284" y="517" type="curve" smooth="yes"/>
      <point x="360" y="517"/>
      <point x="399" y="472"/>
      <point x="399" y="367" type="curve" smooth="yes"/>
      <point x="399" y="290" type="line"/>
      <point x="532" y="290" type="line"/>
      <point x="532" y="315" type="line"/>
      <point x="427" y="315" type="line"/>
      <point x="427" y="379" type="line" smooth="yes"/>
      <point x="427" y="484"/>
      <point x="379" y="542"/>
      <point x="286" y="542" type="curve" smooth="yes"/>
      <point x="228" y="542"/>
      <point x="168" y="516"/>
      <point x="135" y="450" type="curve"/>
      <point x="131" y="450" type="line"/>
      <point x="132" y="471"/>
      <point x="133" y="491"/>
      <point x="133" y="512" type="curve" smooth="yes"/>
      <point x="133" y="714" type="line"/>
      <point x="35" y="714" type="line"/>
      <point x="35" y="694" type="line"/>
      <point x="55" y="694" type="line" smooth="yes"/>
      <point x="101" y="694"/>
      <point x="105" y="683"/>
      <point x="105" y="609" type="curve" smooth="yes"/>
    </contour>
  </outline>
</glyph>
<glyph name="Hie-oldgeorgian" format="2">
  <advance width="425"/>
  <unicode hex="10C2"/>
  <note>
uni10C2
</note>
  <outline>
    <contour>
      <point x="178" y="-10" type="curve" smooth="yes"/>
      <point x="317" y="-10"/>
      <point x="381" y="115"/>
      <point x="381" y="306" type="curve" smooth="yes"/>
      <point x="381" y="481"/>
      <point x="312" y="614"/>
      <point x="159" y="614" type="curve" smooth="yes"/>
      <point x="139" y="614" type="line"/>
      <point x="139" y="714" type="line"/>
      <point x="39" y="714" type="line"/>
      <point x="39" y="694" type="line"/>
      <point x="55" y="694" type="line" smooth="yes"/>
      <point x="105" y="694"/>
      <point x="111" y="683"/>
      <point x="111" y="614" type="curve" smooth="yes"/>
      <point x="111" y="589" type="line"/>
      <point x="161" y="589" type="line" smooth="yes"/>
      <point x="292" y="589"/>
      <point x="353" y="460"/>
      <point x="353" y="306" type="curve" smooth="yes"/>
      <point x="353" y="143"/>
      <point x="305" y="15"/>
      <point x="179" y="15" type="curve" smooth="yes"/>
      <point x="90" y="15"/>
      <point x="43" y="64"/>
      <point x="43" y="148" type="curve"/>
      <point x="30" y="148"/>
      <point x="22" y="132"/>
      <point x="22" y="102" type="curve" smooth="yes"/>
      <point x="22" y="43"/>
      <point x="77" y="-10"/>
    </contour>
  </outline>
</glyph>
<glyph name="We-oldgeorgian" format="2">
  <advance width="486"/>
  <unicode hex="10C3"/>
  <note>
uni10C3
</note>
  <outline>
    <contour>
      <point x="292" y="714" type="line"/>
      <point x="292" y="694" type="line"/>
      <point x="312" y="694" type="line" smooth="yes"/>
      <point x="342" y="694"/>
      <point x="358" y="683"/>
      <point x="358" y="646" type="curve" smooth="yes"/>
      <point x="358" y="399" type="line" smooth="yes"/>
      <point x="358" y="332"/>
      <point x="296" y="263"/>
      <point x="207" y="263" type="curve" smooth="yes"/>
      <point x="118" y="263"/>
      <point x="76" y="315"/>
      <point x="76" y="422" type="curve" smooth="yes"/>
      <point x="76" y="507"/>
      <point x="100" y="544"/>
      <point x="125" y="575" type="curve"/>
      <point x="123" y="577"/>
      <point x="120" y="577"/>
      <point x="116" y="577" type="curve" smooth="yes"/>
      <point x="92" y="577"/>
      <point x="48" y="534"/>
      <point x="48" y="422" type="curve" smooth="yes"/>
      <point x="48" y="295"/>
      <point x="105" y="238"/>
      <point x="207" y="238" type="curve" smooth="yes"/>
      <point x="263" y="238"/>
      <point x="323" y="264"/>
      <point x="356" y="330" type="curve"/>
      <point x="360" y="330" type="line"/>
      <point x="359" y="309"/>
      <point x="358" y="289"/>
      <point x="358" y="268" type="curve" smooth="yes"/>
      <point x="358" y="0" type="line"/>
      <point x="386" y="0" type="line"/>
      <point x="386" y="646" type="line" smooth="yes"/>
      <point x="386" y="683"/>
      <point x="392" y="694"/>
      <point x="432" y="694" type="curve" smooth="yes"/>
      <point x="452" y="694" type="line"/>
      <point x="452" y="714" type="line"/>
    </contour>
  </outline>
</glyph>
<glyph name="Har-oldgeorgian" format="2">
  <advance width="492"/>
  <unicode hex="10C4"/>
  <note>
uni10C4
</note>
  <outline>
    <contour>
      <point x="318" y="714" type="line"/>
      <point x="318" y="694" type="line"/>
      <point x="338" y="694" type="line" smooth="yes"/>
      <point x="368" y="694"/>
      <point x="384" y="683"/>
      <point x="384" y="646" type="curve" smooth="yes"/>
      <point x="384" y="460" type="line" smooth="yes"/>
      <point x="384" y="324"/>
      <point x="337" y="275"/>
      <point x="251" y="275" type="curve" smooth="yes"/>
      <point x="147" y="275"/>
      <point x="118" y="354"/>
      <point x="118" y="452" type="curve" smooth="yes"/>
      <point x="118" y="646" type="line" smooth="yes"/>
      <point x="118" y="683"/>
      <point x="124" y="694"/>
      <point x="164" y="694" type="curve" smooth="yes"/>
      <point x="184" y="694" type="line"/>
      <point x="184" y="714" type="line"/>
      <point x="24" y="714" type="line"/>
      <point x="24" y="694" type="line"/>
      <point x="44" y="694" type="line" smooth="yes"/>
      <point x="74" y="694"/>
      <point x="90" y="683"/>
      <point x="90" y="646" type="curve" smooth="yes"/>
      <point x="90" y="450" type="line" smooth="yes"/>
      <point x="90" y="334"/>
      <point x="134" y="254"/>
      <point x="237" y="250" type="curve"/>
      <point x="237" y="0" type="line"/>
      <point x="265" y="0" type="line"/>
      <point x="265" y="250" type="line"/>
      <point x="362" y="256"/>
      <point x="412" y="313"/>
      <point x="412" y="464" type="curve" smooth="yes"/>
      <point x="412" y="646" type="line" smooth="yes"/>
      <point x="412" y="683"/>
      <point x="418" y="694"/>
      <point x="458" y="694" type="curve" smooth="yes"/>
      <point x="478" y="694" type="line"/>
      <point x="478" y="714" type="line"/>
    </contour>
  </outline>
</glyph>
<glyph name="Hoe-oldgeorgian" format="2">
  <advance width="547"/>
  <unicode hex="10C5"/>
  <note>
uni10C5
</note>
  <outline>
    <contour>
      <point x="134" y="-10" type="curve" smooth="yes"/>
      <point x="206" y="-10"/>
      <point x="251" y="32"/>
      <point x="251" y="133" type="curve" smooth="yes"/>
      <point x="251" y="225" type="line"/>
      <point x="333" y="225" type="line"/>
      <point x="384" y="225"/>
      <point x="411" y="210"/>
      <point x="411" y="144" type="curve"/>
      <point x="428" y="144"/>
      <point x="438" y="155"/>
      <point x="438" y="174" type="curve" smooth="yes"/>
      <point x="438" y="233"/>
      <point x="392" y="250"/>
      <point x="343" y="250" type="curve"/>
      <point x="251" y="250" type="line"/>
      <point x="251" y="334" type="line"/>
      <point x="321" y="334" type="line" smooth="yes"/>
      <point x="463" y="334"/>
      <point x="507" y="428"/>
      <point x="507" y="533" type="curve" smooth="yes"/>
      <point x="507" y="653"/>
      <point x="453" y="714"/>
      <point x="331" y="714" type="curve" smooth="yes"/>
      <point x="150" y="714" type="line"/>
      <point x="150" y="694" type="line"/>
      <point x="167" y="694" type="line" smooth="yes"/>
      <point x="217" y="694"/>
      <point x="223" y="683"/>
      <point x="223" y="606" type="curve" smooth="yes"/>
      <point x="223" y="250" type="line"/>
      <point x="166" y="250" type="line" smooth="yes"/>
      <point x="77" y="250"/>
      <point x="20" y="212"/>
      <point x="20" y="120" type="curve" smooth="yes"/>
      <point x="20" y="31"/>
      <point x="70" y="-10"/>
    </contour>
    <contour>
      <point x="134" y="15" type="curve" smooth="yes"/>
      <point x="75" y="15"/>
      <point x="47" y="56"/>
      <point x="47" y="120" type="curve" smooth="yes"/>
      <point x="47" y="195"/>
      <point x="93" y="225"/>
      <point x="166" y="225" type="curve" smooth="yes"/>
      <point x="223" y="225" type="line"/>
      <point x="223" y="131" type="line" smooth="yes"/>
      <point x="223" y="46"/>
      <point x="188" y="15"/>
    </contour>
    <contour>
      <point x="251" y="359" type="line"/>
      <point x="251" y="689" type="line"/>
      <point x="331" y="689" type="line" smooth="yes"/>
      <point x="439" y="689"/>
      <point x="479" y="635"/>
      <point x="479" y="533" type="curve" smooth="yes"/>
      <point x="479" y="448"/>
      <point x="447" y="359"/>
      <point x="324" y="359" type="curve" smooth="yes"/>
    </contour>
  </outline>
</glyph>
<glyph name="Yn-oldgeorgian" format="2">
  <advance width="382"/>
  <unicode hex="10C7"/>
  <outline>
    <contour>
      <point x="193" y="-10" type="curve" smooth="yes"/>
      <point x="293" y="-10"/>
      <point x="334" y="64"/>
      <point x="334" y="124" type="curve" smooth="yes"/>
      <point x="334" y="140"/>
      <point x="331" y="168"/>
      <point x="315" y="168" type="curve"/>
      <point x="311" y="88"/>
      <point x="277" y="15"/>
      <point x="192" y="15" type="curve" smooth="yes"/>
      <point x="113" y="15"/>
      <point x="70" y="65"/>
      <point x="70" y="163" type="curve" smooth="yes"/>
      <point x="70" y="264"/>
      <point x="106" y="296"/>
      <point x="195" y="353" type="curve" smooth="yes"/>
      <point x="264" y="397"/>
      <point x="319" y="447"/>
      <point x="319" y="565" type="curve" smooth="yes"/>
      <point x="319" y="653"/>
      <point x="269" y="724"/>
      <point x="180" y="724" type="curve" smooth="yes"/>
      <point x="99" y="724"/>
      <point x="55" y="664"/>
      <point x="55" y="614" type="curve" smooth="yes"/>
      <point x="55" y="584"/>
      <point x="65" y="573"/>
      <point x="76" y="573" type="curve"/>
      <point x="76" y="648"/>
      <point x="112" y="699"/>
      <point x="180" y="699" type="curve" smooth="yes"/>
      <point x="255" y="699"/>
      <point x="291" y="638"/>
      <point x="291" y="557" type="curve" smooth="yes"/>
      <point x="291" y="463"/>
      <point x="255" y="425"/>
      <point x="178" y="376" type="curve" smooth="yes"/>
      <point x="104" y="329"/>
      <point x="42" y="284"/>
      <point x="42" y="172" type="curve" smooth="yes"/>
      <point x="42" y="54"/>
      <point x="93" y="-10"/>
    </contour>
  </outline>
</glyph>
<glyph name="Aen-oldgeorgian" format="2">
  <advance width="391"/>
  <unicode hex="10CD"/>
  <outline>
    <contour>
      <point x="22" y="0" type="line"/>
      <point x="358" y="0" type="line"/>
      <point x="361" y="139" type="line"/>
      <point x="341" y="139" type="line"/>
      <point x="339" y="93" type="line" smooth="yes"/>
      <point x="337" y="39"/>
      <point x="332" y="25"/>
      <point x="280" y="25" type="curve" smooth="yes"/>
      <point x="54" y="25" type="line"/>
      <point x="354" y="693" type="line"/>
      <point x="354" y="714" type="line"/>
      <point x="41" y="714" type="line"/>
      <point x="37" y="576" type="line"/>
      <point x="57" y="576" type="line"/>
      <point x="58" y="620" type="line" smooth="yes"/>
      <point x="59" y="675"/>
      <point x="67" y="689"/>
      <point x="119" y="689" type="curve" smooth="yes"/>
      <point x="322" y="689" type="line"/>
      <point x="22" y="22" type="line"/>
    </contour>
  </outline>
</glyph>
<glyph name="an-georgian" format="2">
  <advance width="388"/>
  <unicode hex="10D0"/>
  <note>
uni10D0
</note>
  <anchor x="194" y="536" name="top"/>
  <outline>
    <contour>
      <point x="191" y="-10" type="curve" smooth="yes"/>
      <point x="276" y="-10"/>
      <point x="340" y="44"/>
      <point x="340" y="174" type="curve" smooth="yes"/>
      <point x="340" y="276"/>
      <point x="293" y="327"/>
      <point x="256" y="369" type="curve" smooth="yes"/>
      <point x="222" y="407"/>
      <point x="202" y="442"/>
      <point x="202" y="494" type="curve" smooth="yes"/>
      <point x="202" y="515"/>
      <point x="209" y="533"/>
      <point x="217" y="542" type="curve"/>
      <point x="214" y="545"/>
      <point x="211" y="546"/>
      <point x="206" y="546" type="curve" smooth="yes"/>
      <point x="188" y="546"/>
      <point x="174" y="523"/>
      <point x="174" y="493" type="curve" smooth="yes"/>
      <point x="174" y="428"/>
      <point x="205" y="390"/>
      <point x="237" y="350" type="curve" smooth="yes"/>
      <point x="273" y="305"/>
      <point x="312" y="259"/>
      <point x="312" y="174" type="curve" smooth="yes"/>
      <point x="312" y="66"/>
      <point x="263" y="15"/>
      <point x="191" y="15" type="curve" smooth="yes"/>
      <point x="126" y="15"/>
      <point x="72" y="59"/>
      <point x="72" y="158" type="curve" smooth="yes"/>
      <point x="72" y="207"/>
      <point x="83" y="231"/>
      <point x="94" y="248" type="curve"/>
      <point x="91" y="250"/>
      <point x="88" y="251"/>
      <point x="85" y="251" type="curve" smooth="yes"/>
      <point x="67" y="251"/>
      <point x="43" y="222"/>
      <point x="43" y="158" type="curve" smooth="yes"/>
      <point x="43" y="42"/>
      <point x="108" y="-10"/>
    </contour>
  </outline>
</glyph>
<glyph name="ban-georgian" format="2">
  <advance width="410"/>
  <unicode hex="10D1"/>
  <note>
uni10D1
</note>
  <outline>
    <contour>
      <point x="224" y="545" type="curve"/>
      <point x="231" y="557"/>
      <point x="235" y="571"/>
      <point x="235" y="586" type="curve" smooth="yes"/>
      <point x="235" y="630"/>
      <point x="210" y="654"/>
      <point x="190" y="673" type="curve" smooth="yes"/>
      <point x="176" y="687"/>
      <point x="164" y="703"/>
      <point x="164" y="724" type="curve" smooth="yes"/>
      <point x="164" y="738"/>
      <point x="168" y="754"/>
      <point x="175" y="764" type="curve"/>
      <point x="172" y="768"/>
      <point x="167" y="770"/>
      <point x="162" y="770" type="curve" smooth="yes"/>
      <point x="145" y="770"/>
      <point x="136" y="747"/>
      <point x="136" y="727" type="curve" smooth="yes"/>
      <point x="136" y="694"/>
      <point x="155" y="672"/>
      <point x="173" y="655" type="curve" smooth="yes"/>
      <point x="190" y="639"/>
      <point x="207" y="620"/>
      <point x="207" y="586" type="curve" smooth="yes"/>
      <point x="207" y="571"/>
      <point x="205" y="558"/>
      <point x="199" y="546" type="curve"/>
      <point x="95" y="541"/>
      <point x="48" y="450"/>
      <point x="48" y="267" type="curve" smooth="yes"/>
      <point x="48" y="76"/>
      <point x="105" y="-10"/>
      <point x="205" y="-10" type="curve" smooth="yes"/>
      <point x="308" y="-10"/>
      <point x="362" y="73"/>
      <point x="362" y="267" type="curve" smooth="yes"/>
      <point x="362" y="443"/>
      <point x="319" y="536"/>
    </contour>
    <contour>
      <point x="206" y="15" type="curve" smooth="yes"/>
      <point x="117" y="15"/>
      <point x="76" y="102"/>
      <point x="76" y="267" type="curve" smooth="yes"/>
      <point x="76" y="438"/>
      <point x="110" y="521"/>
      <point x="205" y="521" type="curve" smooth="yes"/>
      <point x="301" y="521"/>
      <point x="334" y="438"/>
      <point x="334" y="267" type="curve" smooth="yes"/>
      <point x="334" y="103"/>
      <point x="301" y="15"/>
    </contour>
  </outline>
</glyph>
<glyph name="gan-georgian" format="2">
  <advance width="400"/>
  <unicode hex="10D2"/>
  <note>
uni10D2
</note>
  <outline>
    <contour>
      <point x="200" y="-250" type="curve" smooth="yes"/>
      <point x="303" y="-250"/>
      <point x="357" y="-167"/>
      <point x="357" y="27" type="curve" smooth="yes"/>
      <point x="357" y="192"/>
      <point x="321" y="287"/>
      <point x="224" y="300" type="curve"/>
      <point x="224" y="302" type="line"/>
      <point x="289" y="323"/>
      <point x="314" y="378"/>
      <point x="314" y="428" type="curve" smooth="yes"/>
      <point x="314" y="496"/>
      <point x="260" y="546"/>
      <point x="196" y="546" type="curve" smooth="yes"/>
      <point x="139" y="546"/>
      <point x="78" y="509"/>
      <point x="78" y="436" type="curve" smooth="yes"/>
      <point x="78" y="407"/>
      <point x="90" y="385"/>
      <point x="107" y="385" type="curve" smooth="yes"/>
      <point x="109" y="385"/>
      <point x="113" y="386"/>
      <point x="115" y="387" type="curve"/>
      <point x="109" y="404"/>
      <point x="106" y="416"/>
      <point x="106" y="432" type="curve" smooth="yes"/>
      <point x="106" y="488"/>
      <point x="146" y="521"/>
      <point x="196" y="521" type="curve" smooth="yes"/>
      <point x="241" y="521"/>
      <point x="286" y="488"/>
      <point x="286" y="425" type="curve" smooth="yes"/>
      <point x="286" y="367"/>
      <point x="252" y="322"/>
      <point x="178" y="304" type="curve" smooth="yes"/>
      <point x="79" y="280"/>
      <point x="43" y="201"/>
      <point x="43" y="27" type="curve" smooth="yes"/>
      <point x="43" y="-164"/>
      <point x="100" y="-250"/>
    </contour>
    <contour>
      <point x="201" y="-225" type="curve" smooth="yes"/>
      <point x="112" y="-225"/>
      <point x="71" y="-138"/>
      <point x="71" y="27" type="curve" smooth="yes"/>
      <point x="71" y="198"/>
      <point x="108" y="281"/>
      <point x="200" y="281" type="curve" smooth="yes"/>
      <point x="296" y="281"/>
      <point x="329" y="198"/>
      <point x="329" y="27" type="curve" smooth="yes"/>
      <point x="329" y="-137"/>
      <point x="296" y="-225"/>
    </contour>
  </outline>
</glyph>
<glyph name="don-georgian" format="2">
  <advance width="651"/>
  <unicode hex="10D3"/>
  <note>
uni10D3
</note>
  <outline>
    <contour>
      <point x="456" y="-10" type="curve" smooth="yes"/>
      <point x="546" y="-10"/>
      <point x="603" y="76"/>
      <point x="603" y="267" type="curve" smooth="yes"/>
      <point x="603" y="453"/>
      <point x="555" y="546"/>
      <point x="453" y="546" type="curve" smooth="yes"/>
      <point x="387" y="546"/>
      <point x="329" y="502"/>
      <point x="320" y="400" type="curve"/>
      <point x="318" y="400" type="line"/>
      <point x="309" y="502"/>
      <point x="256" y="546"/>
      <point x="195" y="546" type="curve" smooth="yes"/>
      <point x="98" y="546"/>
      <point x="48" y="460"/>
      <point x="48" y="277" type="curve" smooth="yes"/>
      <point x="48" y="100"/>
      <point x="112" y="-33"/>
      <point x="260" y="-87" type="curve"/>
      <point x="260" y="-89" type="line"/>
      <point x="213" y="-91"/>
      <point x="168" y="-103"/>
      <point x="141" y="-119" type="curve"/>
      <point x="150" y="-135" type="line"/>
      <point x="178" y="-120"/>
      <point x="221" y="-108"/>
      <point x="274" y="-108" type="curve" smooth="yes"/>
      <point x="387" y="-108"/>
      <point x="470" y="-173"/>
      <point x="470" y="-250" type="curve"/>
      <point x="484" y="-250"/>
      <point x="493" y="-242"/>
      <point x="493" y="-227" type="curve" smooth="yes"/>
      <point x="493" y="-182"/>
      <point x="445" y="-119"/>
      <point x="341" y="-92" type="curve" smooth="yes"/>
      <point x="216" y="-59"/>
      <point x="76" y="17"/>
      <point x="76" y="277" type="curve" smooth="yes"/>
      <point x="76" y="438"/>
      <point x="109" y="521"/>
      <point x="195" y="521" type="curve" smooth="yes"/>
      <point x="275" y="521"/>
      <point x="304" y="438"/>
      <point x="304" y="291" type="curve" smooth="yes"/>
      <point x="304" y="267" type="line" smooth="yes"/>
      <point x="304" y="73"/>
      <point x="358" y="-10"/>
    </contour>
    <contour>
      <point x="453" y="521" type="curve" smooth="yes"/>
      <point x="541" y="521"/>
      <point x="575" y="437"/>
      <point x="575" y="267" type="curve" smooth="yes"/>
      <point x="575" y="102"/>
      <point x="534" y="15"/>
      <point x="455" y="15" type="curve" smooth="yes"/>
      <point x="365" y="15"/>
      <point x="332" y="103"/>
      <point x="332" y="267" type="curve" smooth="yes"/>
      <point x="332" y="446"/>
      <point x="364" y="521"/>
    </contour>
  </outline>
</glyph>
<glyph name="en-georgian" format="2">
  <advance width="403"/>
  <unicode hex="10D4"/>
  <note>
uni10D4
</note>
  <anchor x="202" y="536" name="top"/>
  <outline>
    <contour>
      <point x="191" y="-250" type="curve" smooth="yes"/>
      <point x="284" y="-250"/>
      <point x="338" y="-180"/>
      <point x="338" y="-30" type="curve" smooth="yes"/>
      <point x="338" y="371" type="line" smooth="yes"/>
      <point x="338" y="487"/>
      <point x="280" y="546"/>
      <point x="195" y="546" type="curve" smooth="yes"/>
      <point x="106" y="546"/>
      <point x="60" y="473"/>
      <point x="60" y="389" type="curve" smooth="yes"/>
      <point x="60" y="315"/>
      <point x="88" y="283"/>
      <point x="102" y="283" type="curve" smooth="yes"/>
      <point x="105" y="283"/>
      <point x="108" y="284"/>
      <point x="111" y="286" type="curve"/>
      <point x="90" y="324"/>
      <point x="88" y="364"/>
      <point x="88" y="384" type="curve" smooth="yes"/>
      <point x="88" y="470"/>
      <point x="131" y="521"/>
      <point x="195" y="521" type="curve" smooth="yes"/>
      <point x="263" y="521"/>
      <point x="310" y="470"/>
      <point x="310" y="372" type="curve" smooth="yes"/>
      <point x="310" y="-30" type="line" smooth="yes"/>
      <point x="310" y="-162"/>
      <point x="267" y="-225"/>
      <point x="190" y="-225" type="curve" smooth="yes"/>
      <point x="115" y="-225"/>
      <point x="71" y="-153"/>
      <point x="71" y="-62" type="curve" smooth="yes"/>
      <point x="71" y="0"/>
      <point x="86" y="52"/>
      <point x="105" y="78" type="curve"/>
      <point x="102" y="80"/>
      <point x="99" y="82"/>
      <point x="94" y="82" type="curve" smooth="yes"/>
      <point x="70" y="82"/>
      <point x="43" y="18"/>
      <point x="43" y="-56" type="curve" smooth="yes"/>
      <point x="43" y="-180"/>
      <point x="100" y="-250"/>
    </contour>
  </outline>
</glyph>
<glyph name="vin-georgian" format="2">
  <advance width="402"/>
  <unicode hex="10D5"/>
  <note>
uni10D5
</note>
  <outline>
    <contour>
      <point x="201" y="-250" type="curve" smooth="yes"/>
      <point x="292" y="-250"/>
      <point x="359" y="-180"/>
      <point x="359" y="-30" type="curve" smooth="yes"/>
      <point x="359" y="113"/>
      <point x="304" y="176"/>
      <point x="223" y="193" type="curve"/>
      <point x="223" y="195" type="line"/>
      <point x="304" y="212"/>
      <point x="338" y="276"/>
      <point x="338" y="371" type="curve" smooth="yes"/>
      <point x="338" y="487"/>
      <point x="280" y="546"/>
      <point x="195" y="546" type="curve" smooth="yes"/>
      <point x="106" y="546"/>
      <point x="60" y="473"/>
      <point x="60" y="405" type="curve" smooth="yes"/>
      <point x="60" y="350"/>
      <point x="83" y="318"/>
      <point x="96" y="318" type="curve" smooth="yes"/>
      <point x="100" y="318"/>
      <point x="103" y="319"/>
      <point x="106" y="321" type="curve"/>
      <point x="90" y="354"/>
      <point x="88" y="380"/>
      <point x="88" y="404" type="curve" smooth="yes"/>
      <point x="88" y="470"/>
      <point x="131" y="521"/>
      <point x="195" y="521" type="curve" smooth="yes"/>
      <point x="263" y="521"/>
      <point x="310" y="470"/>
      <point x="310" y="372" type="curve" smooth="yes"/>
      <point x="310" y="265"/>
      <point x="267" y="207"/>
      <point x="180" y="207" type="curve" smooth="yes"/>
      <point x="160" y="207" type="line"/>
      <point x="160" y="182" type="line"/>
      <point x="179" y="182" type="line" smooth="yes"/>
      <point x="270" y="182"/>
      <point x="331" y="112"/>
      <point x="331" y="-30" type="curve" smooth="yes"/>
      <point x="331" y="-162"/>
      <point x="277" y="-225"/>
      <point x="200" y="-225" type="curve" smooth="yes"/>
      <point x="125" y="-225"/>
      <point x="71" y="-162"/>
      <point x="71" y="-66" type="curve" smooth="yes"/>
      <point x="71" y="-25"/>
      <point x="80" y="17"/>
      <point x="99" y="43" type="curve"/>
      <point x="96" y="45"/>
      <point x="93" y="47"/>
      <point x="88" y="47" type="curve" smooth="yes"/>
      <point x="64" y="47"/>
      <point x="43" y="-17"/>
      <point x="43" y="-66" type="curve" smooth="yes"/>
      <point x="43" y="-180"/>
      <point x="110" y="-250"/>
    </contour>
  </outline>
</glyph>
<glyph name="zen-georgian" format="2">
  <advance width="435"/>
  <unicode hex="10D6"/>
  <note>
uni10D6
</note>
  <outline>
    <contour>
      <point x="230" y="-10" type="curve" smooth="yes"/>
      <point x="333" y="-10"/>
      <point x="387" y="73"/>
      <point x="387" y="263" type="curve" smooth="yes"/>
      <point x="387" y="437"/>
      <point x="352" y="536"/>
      <point x="242" y="536" type="curve" smooth="yes"/>
      <point x="240" y="536"/>
      <point x="234" y="536"/>
      <point x="231" y="535" type="curve"/>
      <point x="230" y="536" type="line"/>
      <point x="251" y="557"/>
      <point x="265" y="589"/>
      <point x="265" y="634" type="curve" smooth="yes"/>
      <point x="265" y="722"/>
      <point x="209" y="770"/>
      <point x="148" y="770" type="curve" smooth="yes"/>
      <point x="86" y="770"/>
      <point x="30" y="723"/>
      <point x="30" y="634" type="curve" smooth="yes"/>
      <point x="30" y="541"/>
      <point x="81" y="503"/>
      <point x="133" y="498" type="curve"/>
      <point x="134" y="497" type="line"/>
      <point x="94" y="454"/>
      <point x="73" y="396"/>
      <point x="73" y="263" type="curve" smooth="yes"/>
      <point x="73" y="76"/>
      <point x="130" y="-10"/>
    </contour>
    <contour>
      <point x="231" y="15" type="curve" smooth="yes"/>
      <point x="142" y="15"/>
      <point x="101" y="102"/>
      <point x="101" y="263" type="curve" smooth="yes"/>
      <point x="101" y="428"/>
      <point x="135" y="512"/>
      <point x="230" y="512" type="curve" smooth="yes"/>
      <point x="326" y="512"/>
      <point x="359" y="428"/>
      <point x="359" y="263" type="curve" smooth="yes"/>
      <point x="359" y="103"/>
      <point x="326" y="15"/>
    </contour>
    <contour>
      <point x="148" y="519" type="curve" smooth="yes"/>
      <point x="97" y="519"/>
      <point x="57" y="550"/>
      <point x="57" y="634" type="curve" smooth="yes"/>
      <point x="57" y="713"/>
      <point x="97" y="748"/>
      <point x="148" y="748" type="curve" smooth="yes"/>
      <point x="198" y="748"/>
      <point x="238" y="713"/>
      <point x="238" y="634" type="curve" smooth="yes"/>
      <point x="238" y="550"/>
      <point x="198" y="519"/>
    </contour>
  </outline>
</glyph>
<glyph name="tan-georgian" format="2">
  <advance width="651"/>
  <unicode hex="10D7"/>
  <note>
uni10D7
</note>
  <outline>
    <contour>
      <point x="195" y="-10" type="curve" smooth="yes"/>
      <point x="293" y="-10"/>
      <point x="347" y="73"/>
      <point x="347" y="267" type="curve" smooth="yes"/>
      <point x="347" y="291" type="line" smooth="yes"/>
      <point x="347" y="438"/>
      <point x="376" y="521"/>
      <point x="456" y="521" type="curve" smooth="yes"/>
      <point x="542" y="521"/>
      <point x="575" y="438"/>
      <point x="575" y="271" type="curve" smooth="yes"/>
      <point x="575" y="121"/>
      <point x="543" y="12"/>
      <point x="471" y="10" type="curve"/>
      <point x="471" y="3"/>
      <point x="474" y="-7"/>
      <point x="486" y="-7" type="curve" smooth="yes"/>
      <point x="555" y="-7"/>
      <point x="603" y="96"/>
      <point x="603" y="271" type="curve" smooth="yes"/>
      <point x="603" y="460"/>
      <point x="553" y="546"/>
      <point x="456" y="546" type="curve" smooth="yes"/>
      <point x="395" y="546"/>
      <point x="342" y="502"/>
      <point x="333" y="400" type="curve"/>
      <point x="331" y="400" type="line"/>
      <point x="322" y="502"/>
      <point x="264" y="546"/>
      <point x="198" y="546" type="curve" smooth="yes"/>
      <point x="96" y="546"/>
      <point x="48" y="453"/>
      <point x="48" y="267" type="curve" smooth="yes"/>
      <point x="48" y="76"/>
      <point x="105" y="-10"/>
    </contour>
    <contour>
      <point x="196" y="15" type="curve" smooth="yes"/>
      <point x="117" y="15"/>
      <point x="76" y="102"/>
      <point x="76" y="267" type="curve" smooth="yes"/>
      <point x="76" y="437"/>
      <point x="110" y="521"/>
      <point x="198" y="521" type="curve" smooth="yes"/>
      <point x="287" y="521"/>
      <point x="319" y="446"/>
      <point x="319" y="267" type="curve" smooth="yes"/>
      <point x="319" y="103"/>
      <point x="286" y="15"/>
    </contour>
  </outline>
</glyph>
<glyph name="in-georgian" format="2">
  <advance width="400"/>
  <unicode hex="10D8"/>
  <note>
uni10D8
</note>
  <anchor x="200" y="536" name="top"/>
  <outline>
    <contour>
      <point x="149" y="-7" type="curve" smooth="yes"/>
      <point x="160" y="-7"/>
      <point x="165" y="0"/>
      <point x="165" y="7" type="curve"/>
      <point x="108" y="18"/>
      <point x="76" y="123"/>
      <point x="76" y="267" type="curve" smooth="yes"/>
      <point x="76" y="438"/>
      <point x="110" y="521"/>
      <point x="200" y="521" type="curve" smooth="yes"/>
      <point x="291" y="521"/>
      <point x="324" y="438"/>
      <point x="324" y="267" type="curve" smooth="yes"/>
      <point x="324" y="121"/>
      <point x="297" y="18"/>
      <point x="235" y="7" type="curve"/>
      <point x="235" y="0"/>
      <point x="240" y="-7"/>
      <point x="251" y="-7" type="curve" smooth="yes"/>
      <point x="306" y="-7"/>
      <point x="352" y="96"/>
      <point x="352" y="267" type="curve" smooth="yes"/>
      <point x="352" y="453"/>
      <point x="304" y="546"/>
      <point x="202" y="546" type="curve" smooth="yes"/>
      <point x="97" y="546"/>
      <point x="48" y="455"/>
      <point x="48" y="267" type="curve" smooth="yes"/>
      <point x="48" y="101"/>
      <point x="93" y="-7"/>
    </contour>
  </outline>
</glyph>
<glyph name="kan-georgian" format="2">
  <advance width="387"/>
  <unicode hex="10D9"/>
  <note>
uni10D9
</note>
  <outline>
    <contour>
      <point x="191" y="-250" type="curve" smooth="yes"/>
      <point x="280" y="-250"/>
      <point x="344" y="-180"/>
      <point x="344" y="-20" type="curve" smooth="yes"/>
      <point x="344" y="133"/>
      <point x="289" y="198"/>
      <point x="208" y="213" type="curve"/>
      <point x="208" y="215" type="line"/>
      <point x="289" y="232"/>
      <point x="323" y="296"/>
      <point x="323" y="376" type="curve" smooth="yes"/>
      <point x="323" y="487"/>
      <point x="265" y="541"/>
      <point x="180" y="541" type="curve"/>
      <point x="180" y="521" type="line"/>
      <point x="248" y="521"/>
      <point x="295" y="470"/>
      <point x="295" y="377" type="curve" smooth="yes"/>
      <point x="295" y="285"/>
      <point x="252" y="227"/>
      <point x="165" y="227" type="curve" smooth="yes"/>
      <point x="145" y="227" type="line"/>
      <point x="145" y="202" type="line"/>
      <point x="164" y="202" type="line" smooth="yes"/>
      <point x="255" y="202"/>
      <point x="316" y="132"/>
      <point x="316" y="-20" type="curve" smooth="yes"/>
      <point x="316" y="-162"/>
      <point x="265" y="-225"/>
      <point x="190" y="-225" type="curve" smooth="yes"/>
      <point x="107" y="-225"/>
      <point x="66" y="-162"/>
      <point x="66" y="-66" type="curve" smooth="yes"/>
      <point x="66" y="-25"/>
      <point x="75" y="17"/>
      <point x="94" y="43" type="curve"/>
      <point x="91" y="45"/>
      <point x="88" y="47"/>
      <point x="83" y="47" type="curve" smooth="yes"/>
      <point x="59" y="47"/>
      <point x="38" y="-17"/>
      <point x="38" y="-66" type="curve" smooth="yes"/>
      <point x="38" y="-180"/>
      <point x="92" y="-250"/>
    </contour>
  </outline>
</glyph>
<glyph name="las-georgian" format="2">
  <advance width="855"/>
  <unicode hex="10DA"/>
  <note>
uni10DA
</note>
  <outline>
    <contour>
      <point x="670" y="546" type="curve" smooth="yes"/>
      <point x="607" y="546"/>
      <point x="556" y="502"/>
      <point x="548" y="400" type="curve"/>
      <point x="546" y="400" type="line"/>
      <point x="536" y="502"/>
      <point x="485" y="546"/>
      <point x="431" y="546" type="curve" smooth="yes"/>
      <point x="374" y="546"/>
      <point x="322" y="502"/>
      <point x="313" y="400" type="curve"/>
      <point x="311" y="400" type="line"/>
      <point x="302" y="502"/>
      <point x="252" y="546"/>
      <point x="193" y="546" type="curve" smooth="yes"/>
      <point x="97" y="546"/>
      <point x="48" y="462"/>
      <point x="48" y="277" type="curve" smooth="yes"/>
      <point x="48" y="100"/>
      <point x="123" y="-35"/>
      <point x="292" y="-87" type="curve"/>
      <point x="292" y="-89" type="line"/>
      <point x="242" y="-91"/>
      <point x="203" y="-101"/>
      <point x="174" y="-117" type="curve"/>
      <point x="183" y="-135" type="line"/>
      <point x="210" y="-121"/>
      <point x="260" y="-108"/>
      <point x="314" y="-108" type="curve" smooth="yes"/>
      <point x="444" y="-108"/>
      <point x="570" y="-173"/>
      <point x="570" y="-250" type="curve"/>
      <point x="584" y="-250"/>
      <point x="593" y="-242"/>
      <point x="593" y="-229" type="curve" smooth="yes"/>
      <point x="593" y="-176"/>
      <point x="491" y="-105"/>
      <point x="372" y="-86" type="curve" smooth="yes"/>
      <point x="248" y="-66"/>
      <point x="76" y="17"/>
      <point x="76" y="277" type="curve" smooth="yes"/>
      <point x="76" y="438"/>
      <point x="110" y="521"/>
      <point x="193" y="521" type="curve" smooth="yes"/>
      <point x="270" y="521"/>
      <point x="298" y="438"/>
      <point x="298" y="291" type="curve" smooth="yes"/>
      <point x="298" y="180" type="line"/>
      <point x="326" y="180" type="line"/>
      <point x="326" y="291" type="line" smooth="yes"/>
      <point x="326" y="438"/>
      <point x="349" y="521"/>
      <point x="431" y="521" type="curve" smooth="yes"/>
      <point x="509" y="521"/>
      <point x="533" y="438"/>
      <point x="533" y="291" type="curve" smooth="yes"/>
      <point x="533" y="180" type="line"/>
      <point x="561" y="180" type="line"/>
      <point x="561" y="291" type="line" smooth="yes"/>
      <point x="561" y="438"/>
      <point x="588" y="521"/>
      <point x="670" y="521" type="curve" smooth="yes"/>
      <point x="746" y="521"/>
      <point x="779" y="438"/>
      <point x="779" y="271" type="curve" smooth="yes"/>
      <point x="779" y="121"/>
      <point x="747" y="10"/>
      <point x="679" y="10" type="curve"/>
      <point x="679" y="3"/>
      <point x="682" y="-7"/>
      <point x="694" y="-7" type="curve" smooth="yes"/>
      <point x="759" y="-7"/>
      <point x="807" y="96"/>
      <point x="807" y="271" type="curve" smooth="yes"/>
      <point x="807" y="460"/>
      <point x="757" y="546"/>
    </contour>
  </outline>
</glyph>
<glyph name="man-georgian" format="2">
  <advance width="421"/>
  <unicode hex="10DB"/>
  <note>
uni10DB
</note>
  <outline>
    <contour>
      <point x="200" y="-10" type="curve" smooth="yes"/>
      <point x="297" y="-10"/>
      <point x="351" y="60"/>
      <point x="351" y="265" type="curve" smooth="yes"/>
      <point x="351" y="611" type="line" smooth="yes"/>
      <point x="351" y="727"/>
      <point x="291" y="770"/>
      <point x="206" y="770" type="curve" smooth="yes"/>
      <point x="117" y="770"/>
      <point x="73" y="713"/>
      <point x="73" y="659" type="curve" smooth="yes"/>
      <point x="73" y="637"/>
      <point x="81" y="623"/>
      <point x="92" y="623" type="curve" smooth="yes"/>
      <point x="95" y="623"/>
      <point x="101" y="623"/>
      <point x="104" y="624" type="curve"/>
      <point x="102" y="634"/>
      <point x="101" y="644"/>
      <point x="101" y="654" type="curve" smooth="yes"/>
      <point x="101" y="710"/>
      <point x="142" y="745"/>
      <point x="206" y="745" type="curve" smooth="yes"/>
      <point x="274" y="745"/>
      <point x="323" y="710"/>
      <point x="323" y="612" type="curve" smooth="yes"/>
      <point x="323" y="544" type="line" smooth="yes"/>
      <point x="323" y="509"/>
      <point x="324" y="476"/>
      <point x="328" y="445" type="curve"/>
      <point x="324" y="445" type="line"/>
      <point x="301" y="504"/>
      <point x="265" y="544"/>
      <point x="201" y="544" type="curve" smooth="yes"/>
      <point x="111" y="544"/>
      <point x="48" y="476"/>
      <point x="48" y="267" type="curve" smooth="yes"/>
      <point x="48" y="60"/>
      <point x="105" y="-10"/>
    </contour>
    <contour>
      <point x="199" y="15" type="curve" smooth="yes"/>
      <point x="120" y="15"/>
      <point x="76" y="87"/>
      <point x="76" y="265" type="curve" smooth="yes"/>
      <point x="76" y="452"/>
      <point x="125" y="519"/>
      <point x="203" y="519" type="curve" smooth="yes"/>
      <point x="293" y="519"/>
      <point x="324" y="429"/>
      <point x="324" y="265" type="curve" smooth="yes"/>
      <point x="324" y="87"/>
      <point x="280" y="15"/>
    </contour>
  </outline>
</glyph>
<glyph name="nar-georgian" format="2">
  <advance width="439"/>
  <unicode hex="10DC"/>
  <note>
uni10DC
</note>
  <outline>
    <contour>
      <point x="239" y="-10" type="curve" smooth="yes"/>
      <point x="334" y="-10"/>
      <point x="391" y="60"/>
      <point x="391" y="267" type="curve" smooth="yes"/>
      <point x="391" y="478"/>
      <point x="328" y="546"/>
      <point x="238" y="546" type="curve" smooth="yes"/>
      <point x="174" y="546"/>
      <point x="138" y="506"/>
      <point x="115" y="447" type="curve"/>
      <point x="111" y="447" type="line"/>
      <point x="115" y="478"/>
      <point x="116" y="511"/>
      <point x="116" y="546" type="curve" smooth="yes"/>
      <point x="116" y="622" type="line" smooth="yes"/>
      <point x="116" y="709"/>
      <point x="163" y="742"/>
      <point x="220" y="742" type="curve" smooth="yes"/>
      <point x="244" y="742"/>
      <point x="258" y="740"/>
      <point x="275" y="735" type="curve" smooth="yes"/>
      <point x="289" y="731"/>
      <point x="301" y="729"/>
      <point x="317" y="729" type="curve" smooth="yes"/>
      <point x="344" y="729"/>
      <point x="357" y="739"/>
      <point x="357" y="753" type="curve" smooth="yes"/>
      <point x="357" y="765"/>
      <point x="345" y="770"/>
      <point x="337" y="770" type="curve"/>
      <point x="336" y="763"/>
      <point x="329" y="754"/>
      <point x="313" y="754" type="curve" smooth="yes"/>
      <point x="302" y="754"/>
      <point x="285" y="757"/>
      <point x="270" y="761" type="curve" smooth="yes"/>
      <point x="256" y="765"/>
      <point x="236" y="767"/>
      <point x="220" y="767" type="curve" smooth="yes"/>
      <point x="147" y="767"/>
      <point x="88" y="727"/>
      <point x="88" y="621" type="curve" smooth="yes"/>
      <point x="88" y="265" type="line" smooth="yes"/>
      <point x="88" y="60"/>
      <point x="142" y="-10"/>
    </contour>
    <contour>
      <point x="240" y="15" type="curve" smooth="yes"/>
      <point x="159" y="15"/>
      <point x="115" y="87"/>
      <point x="115" y="265" type="curve" smooth="yes"/>
      <point x="115" y="431"/>
      <point x="146" y="521"/>
      <point x="236" y="521" type="curve" smooth="yes"/>
      <point x="314" y="521"/>
      <point x="363" y="454"/>
      <point x="363" y="265" type="curve" smooth="yes"/>
      <point x="363" y="87"/>
      <point x="319" y="15"/>
    </contour>
  </outline>
</glyph>
<glyph name="par-georgian" format="2">
  <advance width="396"/>
  <unicode hex="10DE"/>
  <note>
uni10DE
</note>
  <outline>
    <contour>
      <point x="192" y="-10" type="curve" smooth="yes"/>
      <point x="296" y="-10"/>
      <point x="348" y="67"/>
      <point x="348" y="205" type="curve" smooth="yes"/>
      <point x="348" y="336"/>
      <point x="294" y="395"/>
      <point x="226" y="404" type="curve"/>
      <point x="226" y="406" type="line"/>
      <point x="295" y="421"/>
      <point x="324" y="469"/>
      <point x="324" y="518" type="curve" smooth="yes"/>
      <point x="324" y="580"/>
      <point x="286" y="614"/>
      <point x="251" y="643" type="curve" smooth="yes"/>
      <point x="225" y="665"/>
      <point x="201" y="689"/>
      <point x="201" y="724" type="curve" smooth="yes"/>
      <point x="201" y="745"/>
      <point x="203" y="757"/>
      <point x="211" y="766" type="curve"/>
      <point x="208" y="769"/>
      <point x="205" y="770"/>
      <point x="200" y="770" type="curve" smooth="yes"/>
      <point x="185" y="770"/>
      <point x="173" y="753"/>
      <point x="173" y="725" type="curve" smooth="yes"/>
      <point x="173" y="681"/>
      <point x="200" y="655"/>
      <point x="229" y="629" type="curve" smooth="yes"/>
      <point x="262" y="600"/>
      <point x="296" y="570"/>
      <point x="296" y="514" type="curve" smooth="yes"/>
      <point x="296" y="452"/>
      <point x="243" y="417"/>
      <point x="185" y="417" type="curve" smooth="yes"/>
      <point x="160" y="417" type="line"/>
      <point x="160" y="392" type="line"/>
      <point x="184" y="392" type="line" smooth="yes"/>
      <point x="273" y="392"/>
      <point x="320" y="331"/>
      <point x="320" y="205" type="curve" smooth="yes"/>
      <point x="320" y="81"/>
      <point x="278" y="15"/>
      <point x="192" y="15" type="curve" smooth="yes"/>
      <point x="127" y="15"/>
      <point x="72" y="59"/>
      <point x="72" y="158" type="curve" smooth="yes"/>
      <point x="72" y="207"/>
      <point x="83" y="231"/>
      <point x="94" y="248" type="curve"/>
      <point x="91" y="250"/>
      <point x="88" y="251"/>
      <point x="85" y="251" type="curve" smooth="yes"/>
      <point x="67" y="251"/>
      <point x="43" y="222"/>
      <point x="43" y="158" type="curve" smooth="yes"/>
      <point x="43" y="42"/>
      <point x="109" y="-10"/>
    </contour>
  </outline>
</glyph>
<glyph name="zhar-georgian" format="2">
  <advance width="444"/>
  <unicode hex="10DF"/>
  <note>
uni10DF
</note>
  <outline>
    <contour>
      <point x="221" y="-250" type="curve" smooth="yes"/>
      <point x="310" y="-250"/>
      <point x="374" y="-180"/>
      <point x="374" y="-20" type="curve" smooth="yes"/>
      <point x="374" y="536" type="line"/>
      <point x="346" y="536" type="line"/>
      <point x="286" y="494"/>
      <point x="214" y="468"/>
      <point x="132" y="456" type="curve"/>
      <point x="132" y="432" type="line"/>
      <point x="186" y="415"/>
      <point x="215" y="383"/>
      <point x="215" y="317" type="curve" smooth="yes"/>
      <point x="215" y="253"/>
      <point x="183" y="225"/>
      <point x="141" y="225" type="curve" smooth="yes"/>
      <point x="101" y="225"/>
      <point x="70" y="253"/>
      <point x="70" y="303" type="curve" smooth="yes"/>
      <point x="70" y="315"/>
      <point x="72" y="326"/>
      <point x="75" y="339" type="curve"/>
      <point x="72" y="340"/>
      <point x="69" y="341"/>
      <point x="66" y="341" type="curve" smooth="yes"/>
      <point x="53" y="341"/>
      <point x="43" y="326"/>
      <point x="43" y="303" type="curve" smooth="yes"/>
      <point x="43" y="238"/>
      <point x="86" y="202"/>
      <point x="141" y="202" type="curve" smooth="yes"/>
      <point x="191" y="202"/>
      <point x="242" y="236"/>
      <point x="242" y="316" type="curve" smooth="yes"/>
      <point x="242" y="381"/>
      <point x="215" y="422"/>
      <point x="163" y="440" type="curve"/>
      <point x="163" y="442" type="line"/>
      <point x="233" y="451"/>
      <point x="296" y="474"/>
      <point x="346" y="510" type="curve"/>
      <point x="349" y="510" type="line"/>
      <point x="347" y="489"/>
      <point x="346" y="468"/>
      <point x="346" y="447" type="curve" smooth="yes"/>
      <point x="346" y="-20" type="line" smooth="yes"/>
      <point x="346" y="-162"/>
      <point x="295" y="-225"/>
      <point x="220" y="-225" type="curve" smooth="yes"/>
      <point x="137" y="-225"/>
      <point x="96" y="-162"/>
      <point x="96" y="-66" type="curve" smooth="yes"/>
      <point x="96" y="-25"/>
      <point x="105" y="17"/>
      <point x="124" y="43" type="curve"/>
      <point x="121" y="45"/>
      <point x="118" y="47"/>
      <point x="113" y="47" type="curve" smooth="yes"/>
      <point x="89" y="47"/>
      <point x="68" y="-17"/>
      <point x="68" y="-66" type="curve" smooth="yes"/>
      <point x="68" y="-180"/>
      <point x="122" y="-250"/>
    </contour>
  </outline>
</glyph>
<glyph name="rae-georgian" format="2">
  <advance width="636"/>
  <unicode hex="10E0"/>
  <note>
uni10E0
</note>
  <outline>
    <contour>
      <point x="165" y="-7" type="curve" smooth="yes"/>
      <point x="175" y="-7"/>
      <point x="180" y="1"/>
      <point x="180" y="10" type="curve"/>
      <point x="112" y="13"/>
      <point x="76" y="123"/>
      <point x="76" y="271" type="curve" smooth="yes"/>
      <point x="76" y="438"/>
      <point x="110" y="521"/>
      <point x="197" y="521" type="curve" smooth="yes"/>
      <point x="276" y="521"/>
      <point x="304" y="438"/>
      <point x="304" y="291" type="curve" smooth="yes"/>
      <point x="304" y="180" type="line"/>
      <point x="332" y="180" type="line"/>
      <point x="332" y="291" type="line" smooth="yes"/>
      <point x="332" y="438"/>
      <point x="360" y="521"/>
      <point x="441" y="521" type="curve" smooth="yes"/>
      <point x="527" y="521"/>
      <point x="560" y="438"/>
      <point x="560" y="271" type="curve" smooth="yes"/>
      <point x="560" y="121"/>
      <point x="528" y="12"/>
      <point x="456" y="10" type="curve"/>
      <point x="456" y="3"/>
      <point x="459" y="-7"/>
      <point x="471" y="-7" type="curve" smooth="yes"/>
      <point x="540" y="-7"/>
      <point x="588" y="96"/>
      <point x="588" y="271" type="curve" smooth="yes"/>
      <point x="588" y="460"/>
      <point x="538" y="546"/>
      <point x="441" y="546" type="curve" smooth="yes"/>
      <point x="380" y="546"/>
      <point x="329" y="502"/>
      <point x="319" y="400" type="curve"/>
      <point x="317" y="400" type="line"/>
      <point x="308" y="502"/>
      <point x="258" y="546"/>
      <point x="197" y="546" type="curve" smooth="yes"/>
      <point x="147" y="546"/>
      <point x="108" y="520"/>
      <point x="84" y="467" type="curve"/>
      <point x="82" y="467" type="line"/>
      <point x="107" y="573"/>
      <point x="171" y="636"/>
      <point x="278" y="666" type="curve" smooth="yes"/>
      <point x="361" y="689"/>
      <point x="412" y="717"/>
      <point x="412" y="770" type="curve"/>
      <point x="393" y="770" type="line"/>
      <point x="390" y="729"/>
      <point x="332" y="708"/>
      <point x="278" y="693" type="curve" smooth="yes"/>
      <point x="139" y="654"/>
      <point x="48" y="577"/>
      <point x="48" y="313" type="curve" smooth="yes"/>
      <point x="48" y="281" type="line" smooth="yes"/>
      <point x="48" y="101"/>
      <point x="98" y="-7"/>
    </contour>
  </outline>
</glyph>
<glyph name="san-georgian" format="2">
  <advance width="437"/>
  <unicode hex="10E1"/>
  <note>
uni10E1
</note>
  <outline>
    <contour>
      <point x="238" y="-10" type="curve" smooth="yes"/>
      <point x="333" y="-10"/>
      <point x="389" y="63"/>
      <point x="389" y="185" type="curve" smooth="yes"/>
      <point x="389" y="278"/>
      <point x="362" y="323"/>
      <point x="338" y="368" type="curve" smooth="yes"/>
      <point x="320" y="402"/>
      <point x="305" y="436"/>
      <point x="305" y="494" type="curve" smooth="yes"/>
      <point x="305" y="515"/>
      <point x="312" y="533"/>
      <point x="320" y="542" type="curve"/>
      <point x="317" y="545"/>
      <point x="314" y="546"/>
      <point x="309" y="546" type="curve" smooth="yes"/>
      <point x="291" y="546"/>
      <point x="277" y="523"/>
      <point x="277" y="489" type="curve" smooth="yes"/>
      <point x="277" y="428"/>
      <point x="296" y="391"/>
      <point x="315" y="353" type="curve" smooth="yes"/>
      <point x="336" y="310"/>
      <point x="361" y="266"/>
      <point x="361" y="184" type="curve" smooth="yes"/>
      <point x="361" y="80"/>
      <point x="321" y="15"/>
      <point x="238" y="15" type="curve" smooth="yes"/>
      <point x="150" y="15"/>
      <point x="113" y="78"/>
      <point x="113" y="213" type="curve" smooth="yes"/>
      <point x="113" y="760" type="line"/>
      <point x="20" y="760" type="line"/>
      <point x="20" y="740" type="line"/>
      <point x="22" y="740" type="line" smooth="yes"/>
      <point x="78" y="740"/>
      <point x="85" y="738"/>
      <point x="85" y="665" type="curve" smooth="yes"/>
      <point x="85" y="213" type="line" smooth="yes"/>
      <point x="85" y="62"/>
      <point x="132" y="-10"/>
    </contour>
  </outline>
</glyph>
<glyph name="tar-georgian" format="2">
  <advance width="538"/>
  <unicode hex="10E2"/>
  <note>
uni10E2
</note>
  <outline>
    <contour>
      <point x="268" y="-250" type="curve" smooth="yes"/>
      <point x="408" y="-250"/>
      <point x="490" y="-106"/>
      <point x="490" y="153" type="curve" smooth="yes"/>
      <point x="490" y="386"/>
      <point x="428" y="522"/>
      <point x="303" y="541" type="curve"/>
      <point x="303" y="543" type="line"/>
      <point x="337" y="568"/>
      <point x="366" y="604"/>
      <point x="366" y="657" type="curve" smooth="yes"/>
      <point x="366" y="724"/>
      <point x="325" y="770"/>
      <point x="269" y="770" type="curve" smooth="yes"/>
      <point x="213" y="770"/>
      <point x="173" y="724"/>
      <point x="173" y="657" type="curve" smooth="yes"/>
      <point x="173" y="604"/>
      <point x="203" y="568"/>
      <point x="235" y="543" type="curve"/>
      <point x="235" y="541" type="line"/>
      <point x="110" y="522"/>
      <point x="48" y="386"/>
      <point x="48" y="154" type="curve" smooth="yes"/>
      <point x="48" y="-93"/>
      <point x="120" y="-250"/>
    </contour>
    <contour>
      <point x="268" y="-225" type="curve" smooth="yes"/>
      <point x="141" y="-225"/>
      <point x="76" y="-76"/>
      <point x="76" y="155" type="curve" smooth="yes"/>
      <point x="76" y="354"/>
      <point x="122" y="493"/>
      <point x="232" y="523" type="curve"/>
      <point x="232" y="521" type="line"/>
      <point x="191" y="492"/>
      <point x="163" y="447"/>
      <point x="163" y="385" type="curve" smooth="yes"/>
      <point x="163" y="314"/>
      <point x="203" y="262"/>
      <point x="269" y="262" type="curve" smooth="yes"/>
      <point x="332" y="262"/>
      <point x="374" y="314"/>
      <point x="374" y="385" type="curve" smooth="yes"/>
      <point x="374" y="450"/>
      <point x="349" y="492"/>
      <point x="306" y="521" type="curve"/>
      <point x="306" y="523" type="line"/>
      <point x="420" y="493"/>
      <point x="462" y="354"/>
      <point x="462" y="155" type="curve" smooth="yes"/>
      <point x="462" y="-84"/>
      <point x="396" y="-225"/>
    </contour>
    <contour>
      <point x="269" y="285" type="curve" smooth="yes"/>
      <point x="217" y="285"/>
      <point x="191" y="327"/>
      <point x="191" y="384" type="curve" smooth="yes"/>
      <point x="191" y="443"/>
      <point x="210" y="489"/>
      <point x="269" y="522" type="curve"/>
      <point x="327" y="489"/>
      <point x="346" y="450"/>
      <point x="346" y="384" type="curve" smooth="yes"/>
      <point x="346" y="327"/>
      <point x="318" y="285"/>
    </contour>
    <contour>
      <point x="269" y="542" type="curve"/>
      <point x="227" y="569"/>
      <point x="201" y="603"/>
      <point x="201" y="659" type="curve" smooth="yes"/>
      <point x="201" y="710"/>
      <point x="225" y="748"/>
      <point x="269" y="748" type="curve" smooth="yes"/>
      <point x="315" y="748"/>
      <point x="338" y="710"/>
      <point x="338" y="657" type="curve" smooth="yes"/>
      <point x="338" y="603"/>
      <point x="310" y="569"/>
    </contour>
  </outline>
</glyph>
<glyph name="un-georgian" format="2">
  <advance width="490"/>
  <unicode hex="10E3"/>
  <note>
uni10E3
</note>
  <anchor x="245" y="536" name="top"/>
  <outline>
    <contour>
      <point x="251" y="-250" type="curve" smooth="yes"/>
      <point x="368" y="-250"/>
      <point x="425" y="-173"/>
      <point x="425" y="-25" type="curve" smooth="yes"/>
      <point x="425" y="407" type="line" smooth="yes"/>
      <point x="425" y="506"/>
      <point x="378" y="546"/>
      <point x="315" y="546" type="curve" smooth="yes"/>
      <point x="276" y="546"/>
      <point x="233" y="524"/>
      <point x="220" y="473" type="curve"/>
      <point x="218" y="473" type="line"/>
      <point x="209" y="524"/>
      <point x="178" y="544"/>
      <point x="149" y="544" type="curve" smooth="yes"/>
      <point x="137" y="544"/>
      <point x="126" y="542"/>
      <point x="117" y="538" type="curve" smooth="yes"/>
      <point x="105" y="533"/>
      <point x="95" y="530"/>
      <point x="84" y="530" type="curve" smooth="yes"/>
      <point x="68" y="530"/>
      <point x="61" y="539"/>
      <point x="60" y="546" type="curve"/>
      <point x="52" y="546"/>
      <point x="40" y="541"/>
      <point x="40" y="529" type="curve" smooth="yes"/>
      <point x="40" y="515"/>
      <point x="54" y="505"/>
      <point x="80" y="505" type="curve" smooth="yes"/>
      <point x="92" y="505"/>
      <point x="103" y="508"/>
      <point x="114" y="512" type="curve" smooth="yes"/>
      <point x="125" y="516"/>
      <point x="135" y="519"/>
      <point x="149" y="519" type="curve" smooth="yes"/>
      <point x="182" y="519"/>
      <point x="202" y="492"/>
      <point x="202" y="431" type="curve" smooth="yes"/>
      <point x="202" y="278" type="line"/>
      <point x="230" y="278" type="line"/>
      <point x="230" y="411" type="line" smooth="yes"/>
      <point x="230" y="492"/>
      <point x="267" y="521"/>
      <point x="313" y="521" type="curve" smooth="yes"/>
      <point x="364" y="521"/>
      <point x="397" y="490"/>
      <point x="397" y="401" type="curve" smooth="yes"/>
      <point x="397" y="-25" type="line" smooth="yes"/>
      <point x="397" y="-159"/>
      <point x="353" y="-225"/>
      <point x="251" y="-225" type="curve" smooth="yes"/>
      <point x="156" y="-225"/>
      <point x="111" y="-153"/>
      <point x="111" y="-62" type="curve" smooth="yes"/>
      <point x="111" y="0"/>
      <point x="126" y="52"/>
      <point x="145" y="78" type="curve"/>
      <point x="142" y="80"/>
      <point x="139" y="82"/>
      <point x="134" y="82" type="curve" smooth="yes"/>
      <point x="110" y="82"/>
      <point x="83" y="18"/>
      <point x="83" y="-56" type="curve" smooth="yes"/>
      <point x="83" y="-174"/>
      <point x="142" y="-250"/>
    </contour>
  </outline>
</glyph>
<glyph name="phar-georgian" format="2">
  <advance width="651"/>
  <unicode hex="10E4"/>
  <note>
uni10E4
</note>
  <outline>
    <contour>
      <point x="386" y="-250" type="curve" smooth="yes"/>
      <point x="497" y="-250"/>
      <point x="594" y="-185"/>
      <point x="594" y="-35" type="curve" smooth="yes"/>
      <point x="594" y="58"/>
      <point x="562" y="136"/>
      <point x="481" y="153" type="curve"/>
      <point x="481" y="155" type="line"/>
      <point x="562" y="172"/>
      <point x="603" y="236"/>
      <point x="603" y="341" type="curve" smooth="yes"/>
      <point x="603" y="460"/>
      <point x="553" y="546"/>
      <point x="456" y="546" type="curve" smooth="yes"/>
      <point x="395" y="546"/>
      <point x="342" y="502"/>
      <point x="333" y="400" type="curve"/>
      <point x="331" y="400" type="line"/>
      <point x="322" y="502"/>
      <point x="264" y="546"/>
      <point x="198" y="546" type="curve" smooth="yes"/>
      <point x="96" y="546"/>
      <point x="48" y="453"/>
      <point x="48" y="297" type="curve" smooth="yes"/>
      <point x="48" y="136"/>
      <point x="105" y="50"/>
      <point x="195" y="50" type="curve" smooth="yes"/>
      <point x="293" y="50"/>
      <point x="347" y="133"/>
      <point x="347" y="297" type="curve" smooth="yes"/>
      <point x="347" y="313" type="line" smooth="yes"/>
      <point x="347" y="440"/>
      <point x="376" y="521"/>
      <point x="456" y="521" type="curve" smooth="yes"/>
      <point x="542" y="521"/>
      <point x="575" y="438"/>
      <point x="575" y="342" type="curve" smooth="yes"/>
      <point x="575" y="225"/>
      <point x="525" y="167"/>
      <point x="438" y="167" type="curve" smooth="yes"/>
      <point x="418" y="167" type="line"/>
      <point x="418" y="142" type="line"/>
      <point x="437" y="142" type="line" smooth="yes"/>
      <point x="528" y="142"/>
      <point x="566" y="57"/>
      <point x="566" y="-35" type="curve" smooth="yes"/>
      <point x="566" y="-167"/>
      <point x="482" y="-225"/>
      <point x="385" y="-225" type="curve" smooth="yes"/>
      <point x="292" y="-225"/>
      <point x="228" y="-161"/>
      <point x="228" y="-86" type="curve" smooth="yes"/>
      <point x="228" y="-73"/>
      <point x="230" y="-60"/>
      <point x="234" y="-47" type="curve"/>
      <point x="231" y="-45"/>
      <point x="228" y="-45"/>
      <point x="225" y="-45" type="curve" smooth="yes"/>
      <point x="211" y="-45"/>
      <point x="200" y="-62"/>
      <point x="200" y="-93" type="curve" smooth="yes"/>
      <point x="200" y="-173"/>
      <point x="271" y="-250"/>
    </contour>
    <contour>
      <point x="196" y="75" type="curve" smooth="yes"/>
      <point x="117" y="75"/>
      <point x="76" y="162"/>
      <point x="76" y="297" type="curve" smooth="yes"/>
      <point x="76" y="437"/>
      <point x="110" y="521"/>
      <point x="198" y="521" type="curve" smooth="yes"/>
      <point x="287" y="521"/>
      <point x="319" y="446"/>
      <point x="319" y="297" type="curve" smooth="yes"/>
      <point x="319" y="163"/>
      <point x="286" y="75"/>
    </contour>
  </outline>
</glyph>
<glyph name="khar-georgian" format="2">
  <advance width="413"/>
  <unicode hex="10E5"/>
  <note>
uni10E5
</note>
  <outline>
    <contour>
      <point x="191" y="-250" type="curve" smooth="yes"/>
      <point x="284" y="-250"/>
      <point x="338" y="-180"/>
      <point x="338" y="-30" type="curve" smooth="yes"/>
      <point x="338" y="760" type="line"/>
      <point x="253" y="760" type="line"/>
      <point x="253" y="740" type="line"/>
      <point x="258" y="740" type="line" smooth="yes"/>
      <point x="304" y="740"/>
      <point x="310" y="735"/>
      <point x="310" y="686" type="curve" smooth="yes"/>
      <point x="310" y="544" type="line" smooth="yes"/>
      <point x="310" y="509"/>
      <point x="311" y="476"/>
      <point x="315" y="445" type="curve"/>
      <point x="311" y="445" type="line"/>
      <point x="288" y="504"/>
      <point x="252" y="546"/>
      <point x="188" y="546" type="curve" smooth="yes"/>
      <point x="106" y="546"/>
      <point x="60" y="473"/>
      <point x="60" y="389" type="curve" smooth="yes"/>
      <point x="60" y="315"/>
      <point x="88" y="283"/>
      <point x="102" y="283" type="curve" smooth="yes"/>
      <point x="105" y="283"/>
      <point x="108" y="284"/>
      <point x="111" y="286" type="curve"/>
      <point x="90" y="324"/>
      <point x="88" y="364"/>
      <point x="88" y="384" type="curve" smooth="yes"/>
      <point x="88" y="470"/>
      <point x="131" y="521"/>
      <point x="190" y="521" type="curve" smooth="yes"/>
      <point x="272" y="521"/>
      <point x="310" y="445"/>
      <point x="310" y="309" type="curve" smooth="yes"/>
      <point x="310" y="-30" type="line" smooth="yes"/>
      <point x="310" y="-162"/>
      <point x="267" y="-225"/>
      <point x="190" y="-225" type="curve" smooth="yes"/>
      <point x="115" y="-225"/>
      <point x="71" y="-153"/>
      <point x="71" y="-62" type="curve" smooth="yes"/>
      <point x="71" y="0"/>
      <point x="86" y="52"/>
      <point x="105" y="78" type="curve"/>
      <point x="102" y="80"/>
      <point x="99" y="82"/>
      <point x="94" y="82" type="curve" smooth="yes"/>
      <point x="70" y="82"/>
      <point x="43" y="18"/>
      <point x="43" y="-56" type="curve" smooth="yes"/>
      <point x="43" y="-180"/>
      <point x="100" y="-250"/>
    </contour>
  </outline>
</glyph>
<glyph name="ghan-georgian" format="2">
  <advance width="636"/>
  <unicode hex="10E6"/>
  <note>
uni10E6
</note>
  <outline>
    <contour>
      <point x="420" y="-250" type="curve"/>
      <point x="434" y="-250"/>
      <point x="443" y="-242"/>
      <point x="443" y="-227" type="curve" smooth="yes"/>
      <point x="443" y="-182"/>
      <point x="403" y="-121"/>
      <point x="306" y="-89" type="curve" smooth="yes"/>
      <point x="180" y="-47"/>
      <point x="76" y="27"/>
      <point x="76" y="277" type="curve" smooth="yes"/>
      <point x="76" y="438"/>
      <point x="110" y="521"/>
      <point x="197" y="521" type="curve" smooth="yes"/>
      <point x="276" y="521"/>
      <point x="304" y="438"/>
      <point x="304" y="291" type="curve" smooth="yes"/>
      <point x="304" y="180" type="line"/>
      <point x="332" y="180" type="line"/>
      <point x="332" y="291" type="line" smooth="yes"/>
      <point x="332" y="438"/>
      <point x="361" y="521"/>
      <point x="441" y="521" type="curve" smooth="yes"/>
      <point x="527" y="521"/>
      <point x="560" y="438"/>
      <point x="560" y="271" type="curve" smooth="yes"/>
      <point x="560" y="121"/>
      <point x="528" y="12"/>
      <point x="456" y="10" type="curve"/>
      <point x="456" y="3"/>
      <point x="459" y="-7"/>
      <point x="471" y="-7" type="curve" smooth="yes"/>
      <point x="540" y="-7"/>
      <point x="588" y="96"/>
      <point x="588" y="271" type="curve" smooth="yes"/>
      <point x="588" y="460"/>
      <point x="538" y="546"/>
      <point x="441" y="546" type="curve" smooth="yes"/>
      <point x="380" y="546"/>
      <point x="329" y="502"/>
      <point x="319" y="400" type="curve"/>
      <point x="317" y="400" type="line"/>
      <point x="308" y="502"/>
      <point x="258" y="546"/>
      <point x="197" y="546" type="curve" smooth="yes"/>
      <point x="97" y="546"/>
      <point x="48" y="462"/>
      <point x="48" y="277" type="curve" smooth="yes"/>
      <point x="48" y="100"/>
      <point x="100" y="-30"/>
      <point x="240" y="-87" type="curve"/>
      <point x="240" y="-89" type="line"/>
      <point x="193" y="-91"/>
      <point x="150" y="-102"/>
      <point x="121" y="-117" type="curve"/>
      <point x="130" y="-133" type="line"/>
      <point x="160" y="-118"/>
      <point x="201" y="-108"/>
      <point x="247" y="-108" type="curve" smooth="yes"/>
      <point x="352" y="-108"/>
      <point x="420" y="-173"/>
    </contour>
  </outline>
</glyph>
<glyph name="qar-georgian" format="2">
  <advance width="414"/>
  <unicode hex="10E7"/>
  <note>
uni10E7
</note>
  <outline>
    <contour>
      <point x="196" y="-250" type="curve" smooth="yes"/>
      <point x="280" y="-250"/>
      <point x="344" y="-190"/>
      <point x="344" y="-30" type="curve" smooth="yes"/>
      <point x="344" y="536" type="line"/>
      <point x="316" y="536" type="line"/>
      <point x="316" y="378" type="line" smooth="yes"/>
      <point x="316" y="286"/>
      <point x="277" y="204"/>
      <point x="195" y="204" type="curve" smooth="yes"/>
      <point x="126" y="204"/>
      <point x="86" y="255"/>
      <point x="86" y="360" type="curve" smooth="yes"/>
      <point x="86" y="450"/>
      <point x="113" y="503"/>
      <point x="135" y="536" type="curve"/>
      <point x="132" y="539"/>
      <point x="128" y="540"/>
      <point x="124" y="540" type="curve" smooth="yes"/>
      <point x="105" y="540"/>
      <point x="58" y="479"/>
      <point x="58" y="355" type="curve" smooth="yes"/>
      <point x="58" y="252"/>
      <point x="101" y="179"/>
      <point x="193" y="179" type="curve" smooth="yes"/>
      <point x="257" y="179"/>
      <point x="296" y="213"/>
      <point x="319" y="272" type="curve"/>
      <point x="321" y="272" type="line"/>
      <point x="318" y="245"/>
      <point x="316" y="217"/>
      <point x="316" y="190" type="curve" smooth="yes"/>
      <point x="316" y="-30" type="line" smooth="yes"/>
      <point x="316" y="-172"/>
      <point x="265" y="-225"/>
      <point x="195" y="-225" type="curve" smooth="yes"/>
      <point x="117" y="-225"/>
      <point x="76" y="-162"/>
      <point x="76" y="-66" type="curve" smooth="yes"/>
      <point x="76" y="-25"/>
      <point x="85" y="17"/>
      <point x="104" y="43" type="curve"/>
      <point x="101" y="45"/>
      <point x="98" y="47"/>
      <point x="93" y="47" type="curve" smooth="yes"/>
      <point x="69" y="47"/>
      <point x="48" y="-17"/>
      <point x="48" y="-66" type="curve" smooth="yes"/>
      <point x="48" y="-180"/>
      <point x="102" y="-250"/>
    </contour>
  </outline>
</glyph>
<glyph name="shin-georgian" format="2">
  <advance width="430"/>
  <unicode hex="10E8"/>
  <note>
uni10E8
</note>
  <outline>
    <contour>
      <point x="209" y="-10" type="curve" smooth="yes"/>
      <point x="306" y="-10"/>
      <point x="360" y="60"/>
      <point x="360" y="255" type="curve" smooth="yes"/>
      <point x="360" y="643" type="line" smooth="yes"/>
      <point x="360" y="732"/>
      <point x="323" y="770"/>
      <point x="270" y="770" type="curve" smooth="yes"/>
      <point x="241" y="770"/>
      <point x="204" y="754"/>
      <point x="193" y="701" type="curve"/>
      <point x="191" y="701" type="line"/>
      <point x="180" y="754"/>
      <point x="143" y="770"/>
      <point x="117" y="770" type="curve" smooth="yes"/>
      <point x="67" y="770"/>
      <point x="30" y="731"/>
      <point x="30" y="669" type="curve" smooth="yes"/>
      <point x="30" y="615"/>
      <point x="46" y="592"/>
      <point x="60" y="592" type="curve" smooth="yes"/>
      <point x="62" y="592"/>
      <point x="66" y="593"/>
      <point x="68" y="594" type="curve"/>
      <point x="64" y="605"/>
      <point x="57" y="626"/>
      <point x="57" y="666" type="curve" smooth="yes"/>
      <point x="57" y="717"/>
      <point x="81" y="745"/>
      <point x="117" y="745" type="curve" smooth="yes"/>
      <point x="149" y="745"/>
      <point x="177" y="716"/>
      <point x="177" y="646" type="curve" smooth="yes"/>
      <point x="177" y="602" type="line"/>
      <point x="205" y="602" type="line"/>
      <point x="205" y="646" type="line" smooth="yes"/>
      <point x="205" y="716"/>
      <point x="232" y="745"/>
      <point x="268" y="745" type="curve" smooth="yes"/>
      <point x="309" y="745"/>
      <point x="332" y="714"/>
      <point x="332" y="635" type="curve" smooth="yes"/>
      <point x="332" y="524" type="line" smooth="yes"/>
      <point x="332" y="489"/>
      <point x="333" y="456"/>
      <point x="337" y="425" type="curve"/>
      <point x="333" y="425" type="line"/>
      <point x="310" y="484"/>
      <point x="274" y="524"/>
      <point x="210" y="524" type="curve" smooth="yes"/>
      <point x="120" y="524"/>
      <point x="57" y="456"/>
      <point x="57" y="257" type="curve" smooth="yes"/>
      <point x="57" y="60"/>
      <point x="114" y="-10"/>
    </contour>
    <contour>
      <point x="208" y="15" type="curve" smooth="yes"/>
      <point x="129" y="15"/>
      <point x="85" y="87"/>
      <point x="85" y="255" type="curve" smooth="yes"/>
      <point x="85" y="432"/>
      <point x="134" y="499"/>
      <point x="212" y="499" type="curve" smooth="yes"/>
      <point x="302" y="499"/>
      <point x="333" y="409"/>
      <point x="333" y="255" type="curve" smooth="yes"/>
      <point x="333" y="87"/>
      <point x="289" y="15"/>
    </contour>
  </outline>
</glyph>
<glyph name="chin-georgian" format="2">
  <advance width="442"/>
  <unicode hex="10E9"/>
  <note>
uni10E9
</note>
  <outline>
    <contour>
      <point x="293" y="-7" type="curve" smooth="yes"/>
      <point x="348" y="-7"/>
      <point x="394" y="96"/>
      <point x="394" y="267" type="curve" smooth="yes"/>
      <point x="394" y="427"/>
      <point x="336" y="502"/>
      <point x="249" y="502" type="curve" smooth="yes"/>
      <point x="176" y="502"/>
      <point x="138" y="458"/>
      <point x="120" y="411" type="curve"/>
      <point x="118" y="411" type="line"/>
      <point x="120" y="429"/>
      <point x="121" y="443"/>
      <point x="121" y="455" type="curve" smooth="yes"/>
      <point x="121" y="513" type="line"/>
      <point x="245" y="557"/>
      <point x="329" y="598"/>
      <point x="329" y="676" type="curve" smooth="yes"/>
      <point x="329" y="736"/>
      <point x="284" y="770"/>
      <point x="220" y="770" type="curve" smooth="yes"/>
      <point x="155" y="770"/>
      <point x="93" y="726"/>
      <point x="93" y="631" type="curve" smooth="yes"/>
      <point x="93" y="0" type="line"/>
      <point x="121" y="0" type="line"/>
      <point x="121" y="293" type="line" smooth="yes"/>
      <point x="121" y="419"/>
      <point x="162" y="477"/>
      <point x="244" y="477" type="curve" smooth="yes"/>
      <point x="324" y="477"/>
      <point x="366" y="402"/>
      <point x="366" y="267" type="curve" smooth="yes"/>
      <point x="366" y="121"/>
      <point x="339" y="18"/>
      <point x="277" y="7" type="curve"/>
      <point x="277" y="0"/>
      <point x="282" y="-7"/>
    </contour>
    <contour>
      <point x="121" y="538" type="curve"/>
      <point x="121" y="628" type="line" smooth="yes"/>
      <point x="121" y="714"/>
      <point x="172" y="745"/>
      <point x="220" y="745" type="curve" smooth="yes"/>
      <point x="263" y="745"/>
      <point x="301" y="728"/>
      <point x="301" y="676" type="curve" smooth="yes"/>
      <point x="301" y="615"/>
      <point x="230" y="575"/>
    </contour>
  </outline>
</glyph>
<glyph name="can-georgian" format="2">
  <advance width="489"/>
  <unicode hex="10EA"/>
  <note>
uni10EA
</note>
  <outline>
    <contour>
      <point x="262" y="-250" type="curve" smooth="yes"/>
      <point x="368" y="-250"/>
      <point x="446" y="-173"/>
      <point x="446" y="-19" type="curve" smooth="yes"/>
      <point x="446" y="95"/>
      <point x="392" y="164"/>
      <point x="324" y="173" type="curve"/>
      <point x="324" y="175" type="line"/>
      <point x="393" y="190"/>
      <point x="422" y="238"/>
      <point x="422" y="287" type="curve" smooth="yes"/>
      <point x="422" y="347"/>
      <point x="391" y="383"/>
      <point x="362" y="414" type="curve" smooth="yes"/>
      <point x="339" y="439"/>
      <point x="319" y="465"/>
      <point x="319" y="500" type="curve" smooth="yes"/>
      <point x="319" y="521"/>
      <point x="322" y="533"/>
      <point x="329" y="542" type="curve"/>
      <point x="326" y="545"/>
      <point x="323" y="546"/>
      <point x="318" y="546" type="curve" smooth="yes"/>
      <point x="303" y="546"/>
      <point x="291" y="529"/>
      <point x="291" y="500" type="curve" smooth="yes"/>
      <point x="291" y="455"/>
      <point x="316" y="428"/>
      <point x="344" y="398" type="curve" smooth="yes"/>
      <point x="370" y="370"/>
      <point x="394" y="337"/>
      <point x="394" y="283" type="curve" smooth="yes"/>
      <point x="394" y="221"/>
      <point x="341" y="186"/>
      <point x="283" y="186" type="curve" smooth="yes"/>
      <point x="248" y="186" type="line"/>
      <point x="248" y="161" type="line"/>
      <point x="282" y="161" type="line" smooth="yes"/>
      <point x="371" y="161"/>
      <point x="418" y="90"/>
      <point x="418" y="-19" type="curve" smooth="yes"/>
      <point x="418" y="-159"/>
      <point x="355" y="-225"/>
      <point x="262" y="-225" type="curve" smooth="yes"/>
      <point x="164" y="-225"/>
      <point x="76" y="-139"/>
      <point x="76" y="138" type="curve" smooth="yes"/>
      <point x="76" y="331"/>
      <point x="123" y="454"/>
      <point x="173" y="530" type="curve"/>
      <point x="158" y="544" type="line"/>
      <point x="112" y="483"/>
      <point x="48" y="364"/>
      <point x="48" y="138" type="curve" smooth="yes"/>
      <point x="48" y="-162"/>
      <point x="148" y="-250"/>
    </contour>
  </outline>
</glyph>
<glyph name="jil-georgian" format="2">
  <advance width="426"/>
  <unicode hex="10EB"/>
  <note>
uni10EB
</note>
  <outline>
    <contour>
      <point x="200" y="-10" type="curve" smooth="yes"/>
      <point x="297" y="-10"/>
      <point x="351" y="60"/>
      <point x="351" y="265" type="curve"/>
      <point x="351" y="760" type="line"/>
      <point x="266" y="760" type="line"/>
      <point x="266" y="740" type="line"/>
      <point x="271" y="740" type="line" smooth="yes"/>
      <point x="317" y="740"/>
      <point x="323" y="735"/>
      <point x="323" y="686" type="curve" smooth="yes"/>
      <point x="323" y="544" type="line" smooth="yes"/>
      <point x="323" y="509"/>
      <point x="324" y="476"/>
      <point x="328" y="445" type="curve"/>
      <point x="324" y="445" type="line"/>
      <point x="301" y="504"/>
      <point x="265" y="544"/>
      <point x="201" y="544" type="curve" smooth="yes"/>
      <point x="111" y="544"/>
      <point x="48" y="476"/>
      <point x="48" y="267" type="curve" smooth="yes"/>
      <point x="48" y="60"/>
      <point x="105" y="-10"/>
    </contour>
    <contour>
      <point x="199" y="15" type="curve" smooth="yes"/>
      <point x="120" y="15"/>
      <point x="76" y="87"/>
      <point x="76" y="265" type="curve" smooth="yes"/>
      <point x="76" y="452"/>
      <point x="125" y="519"/>
      <point x="203" y="519" type="curve" smooth="yes"/>
      <point x="293" y="519"/>
      <point x="324" y="429"/>
      <point x="324" y="265" type="curve" smooth="yes"/>
      <point x="324" y="87"/>
      <point x="280" y="15"/>
    </contour>
  </outline>
</glyph>
<glyph name="cil-georgian" format="2">
  <advance width="397"/>
  <unicode hex="10EC"/>
  <note>
uni10EC
</note>
  <guideline x="147" y="96" angle="101.5752"/>
  <outline>
    <contour>
      <point x="193" y="-240" type="line"/>
      <point x="224" y="-240" type="line"/>
      <point x="335" y="217" type="line" smooth="yes"/>
      <point x="347" y="267"/>
      <point x="353" y="320"/>
      <point x="353" y="358" type="curve" smooth="yes"/>
      <point x="353" y="476"/>
      <point x="298" y="524"/>
      <point x="215" y="524" type="curve" smooth="yes"/>
      <point x="151" y="524"/>
      <point x="96" y="481"/>
      <point x="85" y="409" type="curve"/>
      <point x="81" y="409" type="line"/>
      <point x="62" y="506" type="line" smooth="yes"/>
      <point x="54" y="546"/>
      <point x="48" y="605"/>
      <point x="48" y="640" type="curve" smooth="yes"/>
      <point x="48" y="693"/>
      <point x="62" y="745"/>
      <point x="117" y="745" type="curve" smooth="yes"/>
      <point x="154" y="745"/>
      <point x="181" y="716"/>
      <point x="181" y="646" type="curve" smooth="yes"/>
      <point x="181" y="602" type="line"/>
      <point x="209" y="602" type="line"/>
      <point x="209" y="646" type="line" smooth="yes"/>
      <point x="209" y="716"/>
      <point x="235" y="745"/>
      <point x="275" y="745" type="curve" smooth="yes"/>
      <point x="313" y="745"/>
      <point x="337" y="717"/>
      <point x="337" y="666" type="curve" smooth="yes"/>
      <point x="337" y="626"/>
      <point x="330" y="605"/>
      <point x="326" y="594" type="curve"/>
      <point x="328" y="593"/>
      <point x="332" y="592"/>
      <point x="334" y="592" type="curve" smooth="yes"/>
      <point x="348" y="592"/>
      <point x="364" y="615"/>
      <point x="364" y="669" type="curve" smooth="yes"/>
      <point x="364" y="734"/>
      <point x="327" y="770"/>
      <point x="277" y="770" type="curve" smooth="yes"/>
      <point x="243" y="770"/>
      <point x="207" y="754"/>
      <point x="196" y="701" type="curve"/>
      <point x="194" y="701" type="line"/>
      <point x="183" y="754"/>
      <point x="145" y="770"/>
      <point x="115" y="770" type="curve" smooth="yes"/>
      <point x="50" y="770"/>
      <point x="20" y="716"/>
      <point x="20" y="640" type="curve" smooth="yes"/>
      <point x="20" y="579"/>
      <point x="34" y="503"/>
      <point x="50" y="429" type="curve" smooth="yes"/>
    </contour>
    <contour>
      <point x="209" y="-217" type="curve"/>
      <point x="203" y="-174"/>
      <point x="186" y="-86"/>
      <point x="174" y="-27" type="curve" smooth="yes"/>
      <point x="123" y="220" type="line" smooth="yes"/>
      <point x="114" y="265"/>
      <point x="101" y="315"/>
      <point x="101" y="360" type="curve" smooth="yes"/>
      <point x="101" y="437"/>
      <point x="139" y="499"/>
      <point x="213" y="499" type="curve" smooth="yes"/>
      <point x="297" y="499"/>
      <point x="325" y="440"/>
      <point x="325" y="351" type="curve" smooth="yes"/>
      <point x="325" y="301"/>
      <point x="315" y="244"/>
      <point x="302" y="188" type="curve" smooth="yes"/>
      <point x="251" y="-26" type="line" smooth="yes"/>
      <point x="228" y="-124"/>
      <point x="215" y="-174"/>
    </contour>
  </outline>
</glyph>
<glyph name="char-georgian" format="2">
  <advance width="423"/>
  <unicode hex="10ED"/>
  <note>
uni10ED
</note>
  <outline>
    <contour>
      <point x="390" y="459" type="curve" smooth="yes"/>
      <point x="390" y="511"/>
      <point x="372" y="536"/>
      <point x="357" y="536" type="curve" smooth="yes"/>
      <point x="354" y="536"/>
      <point x="352" y="536"/>
      <point x="349" y="535" type="curve"/>
      <point x="357" y="512"/>
      <point x="362" y="490"/>
      <point x="362" y="458" type="curve" smooth="yes"/>
      <point x="362" y="374"/>
      <point x="333" y="304"/>
      <point x="248" y="285" type="curve"/>
      <point x="248" y="760" type="line"/>
      <point x="143" y="760" type="line"/>
      <point x="143" y="740" type="line"/>
      <point x="164" y="740" type="line" smooth="yes"/>
      <point x="214" y="740"/>
      <point x="220" y="729"/>
      <point x="220" y="652" type="curve" smooth="yes"/>
      <point x="220" y="488" type="line"/>
      <point x="203" y="518"/>
      <point x="175" y="536"/>
      <point x="138" y="536" type="curve" smooth="yes"/>
      <point x="96" y="536"/>
      <point x="43" y="504"/>
      <point x="43" y="409" type="curve" smooth="yes"/>
      <point x="43" y="305"/>
      <point x="124" y="256"/>
      <point x="220" y="256" type="curve"/>
      <point x="222" y="188"/>
      <point x="257" y="135"/>
      <point x="293" y="92" type="curve" smooth="yes"/>
      <point x="326" y="52"/>
      <point x="355" y="9"/>
      <point x="355" y="-63" type="curve" smooth="yes"/>
      <point x="355" y="-160"/>
      <point x="312" y="-225"/>
      <point x="225" y="-225" type="curve" smooth="yes"/>
      <point x="137" y="-225"/>
      <point x="95" y="-162"/>
      <point x="95" y="-66" type="curve" smooth="yes"/>
      <point x="95" y="-25"/>
      <point x="104" y="17"/>
      <point x="123" y="43" type="curve"/>
      <point x="120" y="45"/>
      <point x="117" y="47"/>
      <point x="112" y="47" type="curve" smooth="yes"/>
      <point x="88" y="47"/>
      <point x="67" y="-17"/>
      <point x="67" y="-66" type="curve" smooth="yes"/>
      <point x="67" y="-180"/>
      <point x="121" y="-250"/>
      <point x="225" y="-250" type="curve" smooth="yes"/>
      <point x="333" y="-250"/>
      <point x="383" y="-173"/>
      <point x="383" y="-63" type="curve" smooth="yes"/>
      <point x="383" y="20"/>
      <point x="347" y="67"/>
      <point x="310" y="114" type="curve" smooth="yes"/>
      <point x="278" y="155"/>
      <point x="249" y="196"/>
      <point x="248" y="260" type="curve"/>
      <point x="358" y="283"/>
      <point x="390" y="380"/>
    </contour>
    <contour>
      <point x="71" y="409" type="curve" smooth="yes"/>
      <point x="71" y="481"/>
      <point x="100" y="511"/>
      <point x="144" y="511" type="curve" smooth="yes"/>
      <point x="187" y="511"/>
      <point x="220" y="475"/>
      <point x="220" y="411" type="curve" smooth="yes"/>
      <point x="220" y="280" type="line"/>
      <point x="133" y="280"/>
      <point x="71" y="318"/>
    </contour>
  </outline>
</glyph>
<glyph name="xan-georgian" format="2">
  <advance width="435"/>
  <unicode hex="10EE"/>
  <note>
uni10EE
</note>
  <outline>
    <contour>
      <point x="234" y="544" type="curve" smooth="yes"/>
      <point x="170" y="544"/>
      <point x="134" y="504"/>
      <point x="111" y="445" type="curve"/>
      <point x="107" y="445" type="line"/>
      <point x="111" y="476"/>
      <point x="112" y="509"/>
      <point x="112" y="544" type="curve" smooth="yes"/>
      <point x="112" y="760" type="line"/>
      <point x="20" y="760" type="line"/>
      <point x="20" y="740" type="line"/>
      <point x="29" y="740" type="line" smooth="yes"/>
      <point x="77" y="740"/>
      <point x="84" y="735"/>
      <point x="84" y="661" type="curve" smooth="yes"/>
      <point x="84" y="265" type="line" smooth="yes"/>
      <point x="84" y="60"/>
      <point x="138" y="-10"/>
      <point x="235" y="-10" type="curve" smooth="yes"/>
      <point x="330" y="-10"/>
      <point x="387" y="60"/>
      <point x="387" y="267" type="curve" smooth="yes"/>
      <point x="387" y="476"/>
      <point x="324" y="544"/>
    </contour>
    <contour>
      <point x="236" y="15" type="curve" smooth="yes"/>
      <point x="155" y="15"/>
      <point x="111" y="87"/>
      <point x="111" y="265" type="curve" smooth="yes"/>
      <point x="111" y="429"/>
      <point x="142" y="519"/>
      <point x="232" y="519" type="curve" smooth="yes"/>
      <point x="310" y="519"/>
      <point x="359" y="452"/>
      <point x="359" y="265" type="curve" smooth="yes"/>
      <point x="359" y="87"/>
      <point x="315" y="15"/>
    </contour>
  </outline>
</glyph>
<glyph name="jhan-georgian" format="2">
  <advance width="595"/>
  <unicode hex="10EF"/>
  <note>
uni10EF
</note>
  <outline>
    <contour>
      <point x="514" y="202" type="curve" smooth="yes"/>
      <point x="511" y="202"/>
      <point x="508" y="201"/>
      <point x="504" y="199" type="curve"/>
      <point x="514" y="180"/>
      <point x="524" y="155"/>
      <point x="524" y="110" type="curve" smooth="yes"/>
      <point x="524" y="40"/>
      <point x="491" y="15"/>
      <point x="448" y="15" type="curve" smooth="yes"/>
      <point x="392" y="15"/>
      <point x="363" y="53"/>
      <point x="349" y="123" type="curve" smooth="yes"/>
      <point x="325" y="245" type="line"/>
      <point x="452" y="304"/>
      <point x="527" y="350"/>
      <point x="527" y="449" type="curve" smooth="yes"/>
      <point x="527" y="510"/>
      <point x="483" y="546"/>
      <point x="432" y="546" type="curve" smooth="yes"/>
      <point x="401" y="546"/>
      <point x="366" y="530"/>
      <point x="366" y="510" type="curve" smooth="yes"/>
      <point x="366" y="507"/>
      <point x="367" y="504"/>
      <point x="369" y="500" type="curve"/>
      <point x="387" y="513"/>
      <point x="403" y="521"/>
      <point x="432" y="521" type="curve" smooth="yes"/>
      <point x="473" y="521"/>
      <point x="499" y="495"/>
      <point x="499" y="449" type="curve" smooth="yes"/>
      <point x="499" y="367"/>
      <point x="438" y="323"/>
      <point x="321" y="269" type="curve"/>
      <point x="289" y="430" type="line" smooth="yes"/>
      <point x="276" y="493"/>
      <point x="237" y="546"/>
      <point x="177" y="546" type="curve" smooth="yes"/>
      <point x="117" y="546"/>
      <point x="70" y="507"/>
      <point x="70" y="426" type="curve" smooth="yes"/>
      <point x="70" y="380"/>
      <point x="88" y="334"/>
      <point x="112" y="334" type="curve" smooth="yes"/>
      <point x="115" y="334"/>
      <point x="118" y="335"/>
      <point x="122" y="337" type="curve"/>
      <point x="112" y="356"/>
      <point x="98" y="381"/>
      <point x="98" y="426" type="curve" smooth="yes"/>
      <point x="98" y="496"/>
      <point x="132" y="521"/>
      <point x="177" y="521" type="curve" smooth="yes"/>
      <point x="225" y="521"/>
      <point x="251" y="479"/>
      <point x="264" y="411" type="curve" smooth="yes"/>
      <point x="294" y="256" type="line"/>
      <point x="206" y="212"/>
      <point x="141" y="158"/>
      <point x="103" y="65" type="curve"/>
      <point x="103" y="38" type="line"/>
      <point x="131" y="38" type="line" smooth="yes"/>
      <point x="206" y="38"/>
      <point x="251" y="-13"/>
      <point x="251" y="-100" type="curve" smooth="yes"/>
      <point x="251" y="-175"/>
      <point x="220" y="-228"/>
      <point x="160" y="-228" type="curve" smooth="yes"/>
      <point x="103" y="-228"/>
      <point x="67" y="-191"/>
      <point x="67" y="-116" type="curve" smooth="yes"/>
      <point x="67" y="-107"/>
      <point x="69" y="-89"/>
      <point x="72" y="-79" type="curve"/>
      <point x="70" y="-78"/>
      <point x="66" y="-77"/>
      <point x="63" y="-77" type="curve" smooth="yes"/>
      <point x="48" y="-77"/>
      <point x="40" y="-101"/>
      <point x="40" y="-124" type="curve" smooth="yes"/>
      <point x="40" y="-194"/>
      <point x="78" y="-250"/>
      <point x="160" y="-250" type="curve" smooth="yes"/>
      <point x="227" y="-250"/>
      <point x="276" y="-195"/>
      <point x="276" y="-100" type="curve" smooth="yes"/>
      <point x="276" y="-10"/>
      <point x="231" y="59"/>
      <point x="128" y="59" type="curve"/>
      <point x="128" y="61" type="line"/>
      <point x="158" y="142"/>
      <point x="217" y="191"/>
      <point x="299" y="232" type="curve"/>
      <point x="323" y="109" type="line" smooth="yes"/>
      <point x="337" y="39"/>
      <point x="380" y="-10"/>
      <point x="448" y="-10" type="curve" smooth="yes"/>
      <point x="506" y="-10"/>
      <point x="552" y="30"/>
      <point x="552" y="111" type="curve" smooth="yes"/>
      <point x="552" y="157"/>
      <point x="538" y="202"/>
    </contour>
  </outline>
</glyph>
<glyph name="hae-georgian" format="2">
  <advance width="387"/>
  <unicode hex="10F0"/>
  <note>
uni10F0
</note>
  <outline>
    <contour>
      <point x="190" y="-10" type="curve" smooth="yes"/>
      <point x="298" y="-10"/>
      <point x="339" y="69"/>
      <point x="339" y="134" type="curve" smooth="yes"/>
      <point x="339" y="210"/>
      <point x="297" y="250"/>
      <point x="247" y="262" type="curve"/>
      <point x="247" y="264" type="line"/>
      <point x="297" y="275"/>
      <point x="330" y="304"/>
      <point x="330" y="358" type="curve" smooth="yes"/>
      <point x="330" y="411"/>
      <point x="297" y="439"/>
      <point x="247" y="450" type="curve"/>
      <point x="247" y="452" type="line"/>
      <point x="295" y="464"/>
      <point x="324" y="490"/>
      <point x="324" y="539" type="curve" smooth="yes"/>
      <point x="324" y="596"/>
      <point x="280" y="626"/>
      <point x="239" y="655" type="curve" smooth="yes"/>
      <point x="208" y="677"/>
      <point x="183" y="700"/>
      <point x="183" y="735" type="curve" smooth="yes"/>
      <point x="183" y="746"/>
      <point x="184" y="757"/>
      <point x="190" y="766" type="curve"/>
      <point x="187" y="769"/>
      <point x="184" y="770"/>
      <point x="179" y="770" type="curve" smooth="yes"/>
      <point x="161" y="770"/>
      <point x="155" y="754"/>
      <point x="155" y="734" type="curve" smooth="yes"/>
      <point x="155" y="691"/>
      <point x="189" y="663"/>
      <point x="223" y="638" type="curve" smooth="yes"/>
      <point x="262" y="610"/>
      <point x="296" y="582"/>
      <point x="296" y="536" type="curve" smooth="yes"/>
      <point x="296" y="492"/>
      <point x="269" y="463"/>
      <point x="198" y="463" type="curve" smooth="yes"/>
      <point x="154" y="463" type="line"/>
      <point x="154" y="438" type="line"/>
      <point x="198" y="438" type="line" smooth="yes"/>
      <point x="271" y="438"/>
      <point x="302" y="406"/>
      <point x="302" y="358" type="curve" smooth="yes"/>
      <point x="302" y="309"/>
      <point x="272" y="276"/>
      <point x="193" y="276" type="curve" smooth="yes"/>
      <point x="157" y="276" type="line"/>
      <point x="157" y="251" type="line"/>
      <point x="191" y="251" type="line" smooth="yes"/>
      <point x="274" y="251"/>
      <point x="311" y="204"/>
      <point x="311" y="135" type="curve" smooth="yes"/>
      <point x="311" y="64"/>
      <point x="267" y="15"/>
      <point x="191" y="15" type="curve" smooth="yes"/>
      <point x="123" y="15"/>
      <point x="71" y="52"/>
      <point x="71" y="115" type="curve" smooth="yes"/>
      <point x="71" y="136"/>
      <point x="74" y="147"/>
      <point x="79" y="161" type="curve"/>
      <point x="77" y="163"/>
      <point x="73" y="164"/>
      <point x="71" y="164" type="curve" smooth="yes"/>
      <point x="54" y="164"/>
      <point x="43" y="143"/>
      <point x="43" y="111" type="curve" smooth="yes"/>
      <point x="43" y="51"/>
      <point x="93" y="-10"/>
    </contour>
  </outline>
</glyph>
<glyph name="he-georgian" format="2">
  <advance width="494"/>
  <unicode hex="10F1"/>
  <note>
uni10F1
</note>
  <outline>
    <contour>
      <point x="282" y="-10" type="curve" smooth="yes"/>
      <point x="372" y="-10"/>
      <point x="446" y="50"/>
      <point x="446" y="144" type="curve" smooth="yes"/>
      <point x="446" y="210"/>
      <point x="404" y="250"/>
      <point x="354" y="262" type="curve"/>
      <point x="354" y="264" type="line"/>
      <point x="404" y="275"/>
      <point x="437" y="304"/>
      <point x="437" y="358" type="curve" smooth="yes"/>
      <point x="437" y="411"/>
      <point x="404" y="439"/>
      <point x="354" y="450" type="curve"/>
      <point x="354" y="452" type="line"/>
      <point x="402" y="464"/>
      <point x="431" y="490"/>
      <point x="431" y="539" type="curve" smooth="yes"/>
      <point x="431" y="594"/>
      <point x="391" y="629"/>
      <point x="359" y="658" type="curve" smooth="yes"/>
      <point x="333" y="681"/>
      <point x="318" y="704"/>
      <point x="318" y="735" type="curve" smooth="yes"/>
      <point x="318" y="746"/>
      <point x="319" y="757"/>
      <point x="325" y="766" type="curve"/>
      <point x="322" y="769"/>
      <point x="319" y="770"/>
      <point x="314" y="770" type="curve" smooth="yes"/>
      <point x="296" y="770"/>
      <point x="290" y="754"/>
      <point x="290" y="734" type="curve" smooth="yes"/>
      <point x="290" y="693"/>
      <point x="315" y="666"/>
      <point x="343" y="641" type="curve" smooth="yes"/>
      <point x="374" y="613"/>
      <point x="403" y="585"/>
      <point x="403" y="539" type="curve" smooth="yes"/>
      <point x="403" y="492"/>
      <point x="376" y="463"/>
      <point x="305" y="463" type="curve" smooth="yes"/>
      <point x="261" y="463" type="line"/>
      <point x="261" y="438" type="line"/>
      <point x="305" y="438" type="line" smooth="yes"/>
      <point x="378" y="438"/>
      <point x="409" y="406"/>
      <point x="409" y="358" type="curve" smooth="yes"/>
      <point x="409" y="309"/>
      <point x="379" y="276"/>
      <point x="300" y="276" type="curve" smooth="yes"/>
      <point x="264" y="276" type="line"/>
      <point x="264" y="251" type="line"/>
      <point x="298" y="251" type="line" smooth="yes"/>
      <point x="381" y="251"/>
      <point x="418" y="203"/>
      <point x="418" y="144" type="curve" smooth="yes"/>
      <point x="418" y="64"/>
      <point x="359" y="15"/>
      <point x="282" y="15" type="curve" smooth="yes"/>
      <point x="164" y="15"/>
      <point x="76" y="101"/>
      <point x="76" y="378" type="curve" smooth="yes"/>
      <point x="76" y="557"/>
      <point x="123" y="680"/>
      <point x="173" y="756" type="curve"/>
      <point x="158" y="770" type="line"/>
      <point x="112" y="709"/>
      <point x="48" y="590"/>
      <point x="48" y="378" type="curve" smooth="yes"/>
      <point x="48" y="78"/>
      <point x="148" y="-10"/>
    </contour>
  </outline>
</glyph>
<glyph name="hie-georgian" format="2">
  <advance width="410"/>
  <unicode hex="10F2"/>
  <note>
uni10F2
</note>
  <outline>
    <contour>
      <point x="77" y="-10" type="curve" smooth="yes"/>
      <point x="121" y="-10"/>
      <point x="166" y="-1"/>
      <point x="207" y="21" type="curve"/>
      <point x="248" y="-1"/>
      <point x="293" y="-10"/>
      <point x="336" y="-10" type="curve" smooth="yes"/>
      <point x="355" y="-10"/>
      <point x="358" y="1"/>
      <point x="360" y="14" type="curve"/>
      <point x="314" y="14"/>
      <point x="269" y="21"/>
      <point x="232" y="36" type="curve"/>
      <point x="305" y="87"/>
      <point x="362" y="169"/>
      <point x="362" y="326" type="curve" smooth="yes"/>
      <point x="362" y="453"/>
      <point x="314" y="546"/>
      <point x="207" y="546" type="curve" smooth="yes"/>
      <point x="97" y="546"/>
      <point x="48" y="455"/>
      <point x="48" y="326" type="curve" smooth="yes"/>
      <point x="48" y="169"/>
      <point x="107" y="87"/>
      <point x="181" y="36" type="curve"/>
      <point x="145" y="20"/>
      <point x="101" y="14"/>
      <point x="55" y="14" type="curve"/>
      <point x="56" y="-3"/>
      <point x="63" y="-10"/>
    </contour>
    <contour>
      <point x="207" y="47" type="curve"/>
      <point x="125" y="95"/>
      <point x="76" y="180"/>
      <point x="76" y="326" type="curve" smooth="yes"/>
      <point x="76" y="438"/>
      <point x="110" y="521"/>
      <point x="205" y="521" type="curve" smooth="yes"/>
      <point x="301" y="521"/>
      <point x="334" y="438"/>
      <point x="334" y="326" type="curve" smooth="yes"/>
      <point x="334" y="180"/>
      <point x="288" y="95"/>
    </contour>
  </outline>
</glyph>
<glyph name="we-georgian" format="2">
  <advance width="402"/>
  <unicode hex="10F3"/>
  <note>
uni10F3
</note>
  <outline>
    <contour>
      <point x="201" y="-250" type="curve" smooth="yes"/>
      <point x="292" y="-250"/>
      <point x="359" y="-180"/>
      <point x="359" y="-30" type="curve" smooth="yes"/>
      <point x="359" y="139"/>
      <point x="309" y="211"/>
      <point x="192" y="217" type="curve"/>
      <point x="335" y="514" type="line"/>
      <point x="335" y="536" type="line"/>
      <point x="68" y="536" type="line"/>
      <point x="61" y="429" type="line"/>
      <point x="81" y="429" type="line"/>
      <point x="82" y="442" type="line" smooth="yes"/>
      <point x="86" y="495"/>
      <point x="93" y="508"/>
      <point x="145" y="508" type="curve" smooth="yes"/>
      <point x="304" y="508" type="line"/>
      <point x="165" y="214" type="line"/>
      <point x="165" y="192" type="line"/>
      <point x="190" y="192" type="line" smooth="yes"/>
      <point x="289" y="192"/>
      <point x="331" y="121"/>
      <point x="331" y="-30" type="curve" smooth="yes"/>
      <point x="331" y="-162"/>
      <point x="277" y="-225"/>
      <point x="200" y="-225" type="curve" smooth="yes"/>
      <point x="125" y="-225"/>
      <point x="71" y="-162"/>
      <point x="71" y="-66" type="curve" smooth="yes"/>
      <point x="71" y="-25"/>
      <point x="80" y="17"/>
      <point x="99" y="43" type="curve"/>
      <point x="96" y="45"/>
      <point x="93" y="47"/>
      <point x="88" y="47" type="curve" smooth="yes"/>
      <point x="64" y="47"/>
      <point x="43" y="-17"/>
      <point x="43" y="-66" type="curve" smooth="yes"/>
      <point x="43" y="-180"/>
      <point x="110" y="-250"/>
    </contour>
  </outline>
</glyph>
<glyph name="har-georgian" format="2">
  <advance width="389"/>
  <unicode hex="10F4"/>
  <note>
uni10F4
</note>
  <outline>
    <contour>
      <point x="198" y="-250" type="curve" smooth="yes"/>
      <point x="282" y="-250"/>
      <point x="346" y="-190"/>
      <point x="346" y="-30" type="curve" smooth="yes"/>
      <point x="346" y="116"/>
      <point x="295" y="198"/>
      <point x="182" y="202" type="curve"/>
      <point x="340" y="464" type="line"/>
      <point x="340" y="486" type="line"/>
      <point x="209" y="486" type="line" smooth="yes"/>
      <point x="128" y="486"/>
      <point x="71" y="527"/>
      <point x="71" y="616" type="curve" smooth="yes"/>
      <point x="71" y="704"/>
      <point x="126" y="745"/>
      <point x="178" y="745" type="curve" smooth="yes"/>
      <point x="249" y="745"/>
      <point x="274" y="704"/>
      <point x="274" y="622" type="curve"/>
      <point x="286" y="622"/>
      <point x="299" y="630"/>
      <point x="299" y="653" type="curve" smooth="yes"/>
      <point x="299" y="718"/>
      <point x="259" y="770"/>
      <point x="178" y="770" type="curve" smooth="yes"/>
      <point x="105" y="770"/>
      <point x="43" y="717"/>
      <point x="43" y="615" type="curve" smooth="yes"/>
      <point x="43" y="504"/>
      <point x="120" y="458"/>
      <point x="209" y="458" type="curve" smooth="yes"/>
      <point x="307" y="458" type="line"/>
      <point x="150" y="199" type="line"/>
      <point x="150" y="177" type="line"/>
      <point x="175" y="177" type="line" smooth="yes"/>
      <point x="275" y="177"/>
      <point x="318" y="98"/>
      <point x="318" y="-30" type="curve" smooth="yes"/>
      <point x="318" y="-172"/>
      <point x="267" y="-225"/>
      <point x="197" y="-225" type="curve" smooth="yes"/>
      <point x="119" y="-225"/>
      <point x="78" y="-162"/>
      <point x="78" y="-66" type="curve" smooth="yes"/>
      <point x="78" y="-25"/>
      <point x="87" y="17"/>
      <point x="106" y="43" type="curve"/>
      <point x="103" y="45"/>
      <point x="100" y="47"/>
      <point x="95" y="47" type="curve" smooth="yes"/>
      <point x="71" y="47"/>
      <point x="50" y="-17"/>
      <point x="50" y="-66" type="curve" smooth="yes"/>
      <point x="50" y="-180"/>
      <point x="104" y="-250"/>
    </contour>
  </outline>
</glyph>
<glyph name="hoe-georgian" format="2">
  <advance width="463"/>
  <unicode hex="10F5"/>
  <note>
uni10F5
</note>
  <outline>
    <contour>
      <point x="204" y="-10" type="curve" smooth="yes"/>
      <point x="307" y="-10"/>
      <point x="345" y="43"/>
      <point x="345" y="153" type="curve" smooth="yes"/>
      <point x="345" y="297" type="line"/>
      <point x="433" y="297" type="line"/>
      <point x="433" y="322" type="line"/>
      <point x="345" y="322" type="line"/>
      <point x="345" y="438" type="line"/>
      <point x="433" y="438" type="line"/>
      <point x="433" y="463" type="line"/>
      <point x="345" y="463" type="line"/>
      <point x="345" y="607" type="line" smooth="yes"/>
      <point x="345" y="717"/>
      <point x="307" y="770"/>
      <point x="204" y="770" type="curve" smooth="yes"/>
      <point x="107" y="770"/>
      <point x="48" y="712"/>
      <point x="48" y="596" type="curve" smooth="yes"/>
      <point x="48" y="482"/>
      <point x="121" y="438"/>
      <point x="207" y="438" type="curve" smooth="yes"/>
      <point x="317" y="438" type="line"/>
      <point x="317" y="322" type="line"/>
      <point x="207" y="322" type="line" smooth="yes"/>
      <point x="121" y="322"/>
      <point x="48" y="278"/>
      <point x="48" y="164" type="curve" smooth="yes"/>
      <point x="48" y="48"/>
      <point x="107" y="-10"/>
    </contour>
    <contour>
      <point x="203" y="15" type="curve" smooth="yes"/>
      <point x="120" y="15"/>
      <point x="76" y="71"/>
      <point x="76" y="165" type="curve" smooth="yes"/>
      <point x="76" y="261"/>
      <point x="138" y="297"/>
      <point x="205" y="297" type="curve" smooth="yes"/>
      <point x="317" y="297" type="line"/>
      <point x="317" y="155" type="line" smooth="yes"/>
      <point x="317" y="70"/>
      <point x="294" y="15"/>
    </contour>
    <contour>
      <point x="205" y="463" type="line" smooth="yes"/>
      <point x="138" y="463"/>
      <point x="76" y="499"/>
      <point x="76" y="595" type="curve" smooth="yes"/>
      <point x="76" y="689"/>
      <point x="120" y="745"/>
      <point x="203" y="745" type="curve" smooth="yes"/>
      <point x="294" y="745"/>
      <point x="317" y="690"/>
      <point x="317" y="605" type="curve" smooth="yes"/>
      <point x="317" y="463" type="line"/>
    </contour>
  </outline>
</glyph>
<glyph name="fi-georgian" format="2">
  <advance width="677"/>
  <unicode hex="10F6"/>
  <note>
uni10F6
</note>
  <outline>
    <contour>
      <point x="266" y="-242" type="curve" smooth="yes"/>
      <point x="326" y="-242"/>
      <point x="353" y="-191"/>
      <point x="353" y="-65" type="curve" smooth="yes"/>
      <point x="353" y="-27" type="line" smooth="yes"/>
      <point x="353" y="16"/>
      <point x="352" y="59"/>
      <point x="350" y="88" type="curve"/>
      <point x="352" y="88" type="line"/>
      <point x="374" y="32"/>
      <point x="407" y="-10"/>
      <point x="478" y="-10" type="curve" smooth="yes"/>
      <point x="565" y="-10"/>
      <point x="629" y="54"/>
      <point x="629" y="268" type="curve" smooth="yes"/>
      <point x="629" y="482"/>
      <point x="565" y="546"/>
      <point x="478" y="546" type="curve" smooth="yes"/>
      <point x="407" y="546"/>
      <point x="374" y="504"/>
      <point x="352" y="448" type="curve"/>
      <point x="350" y="448" type="line"/>
      <point x="352" y="471"/>
      <point x="353" y="503"/>
      <point x="353" y="536" type="curve" smooth="yes"/>
      <point x="353" y="592" type="line" smooth="yes"/>
      <point x="353" y="690"/>
      <point x="366" y="739"/>
      <point x="413" y="739" type="curve" smooth="yes"/>
      <point x="447" y="739"/>
      <point x="455" y="704"/>
      <point x="455" y="676" type="curve"/>
      <point x="471" y="676"/>
      <point x="476" y="692"/>
      <point x="476" y="705" type="curve" smooth="yes"/>
      <point x="476" y="738"/>
      <point x="451" y="764"/>
      <point x="413" y="764" type="curve" smooth="yes"/>
      <point x="347" y="764"/>
      <point x="325" y="705"/>
      <point x="325" y="589" type="curve" smooth="yes"/>
      <point x="325" y="536" type="line" smooth="yes"/>
      <point x="325" y="507"/>
      <point x="327" y="477"/>
      <point x="329" y="447" type="curve"/>
      <point x="327" y="447" type="line"/>
      <point x="306" y="505"/>
      <point x="271" y="546"/>
      <point x="203" y="546" type="curve" smooth="yes"/>
      <point x="79" y="546"/>
      <point x="48" y="420"/>
      <point x="48" y="268" type="curve" smooth="yes"/>
      <point x="48" y="116"/>
      <point x="79" y="-10"/>
      <point x="203" y="-10" type="curve" smooth="yes"/>
      <point x="271" y="-10"/>
      <point x="306" y="31"/>
      <point x="327" y="89" type="curve"/>
      <point x="329" y="89" type="line"/>
      <point x="327" y="49"/>
      <point x="325" y="11"/>
      <point x="325" y="-28" type="curve" smooth="yes"/>
      <point x="325" y="-65" type="line" smooth="yes"/>
      <point x="325" y="-169"/>
      <point x="314" y="-217"/>
      <point x="268" y="-217" type="curve" smooth="yes"/>
      <point x="230" y="-217"/>
      <point x="221" y="-185"/>
      <point x="221" y="-152" type="curve"/>
      <point x="205" y="-152"/>
      <point x="200" y="-168"/>
      <point x="200" y="-181" type="curve" smooth="yes"/>
      <point x="200" y="-216"/>
      <point x="227" y="-242"/>
    </contour>
    <contour>
      <point x="201" y="15" type="curve" smooth="yes"/>
      <point x="109" y="15"/>
      <point x="76" y="99"/>
      <point x="76" y="268" type="curve" smooth="yes"/>
      <point x="76" y="437"/>
      <point x="109" y="521"/>
      <point x="201" y="521" type="curve" smooth="yes"/>
      <point x="295" y="521"/>
      <point x="325" y="429"/>
      <point x="325" y="268" type="curve" smooth="yes"/>
      <point x="325" y="107"/>
      <point x="295" y="15"/>
    </contour>
    <contour>
      <point x="476" y="15" type="curve" smooth="yes"/>
      <point x="382" y="15"/>
      <point x="353" y="109"/>
      <point x="353" y="268" type="curve" smooth="yes"/>
      <point x="353" y="427"/>
      <point x="382" y="521"/>
      <point x="476" y="521" type="curve" smooth="yes"/>
      <point x="561" y="521"/>
      <point x="601" y="454"/>
      <point x="601" y="268" type="curve" smooth="yes"/>
      <point x="601" y="82"/>
      <point x="561" y="15"/>
    </contour>
  </outline>
</glyph>
<glyph name="yn-georgian" format="2">
  <advance width="398"/>
  <unicode hex="10F7"/>
  <note>
uni10F7
</note>
  <anchor x="199" y="536" name="top"/>
  <outline>
    <contour>
      <point x="204" y="-250" type="curve" smooth="yes"/>
      <point x="298" y="-250"/>
      <point x="355" y="-184"/>
      <point x="355" y="-96" type="curve" smooth="yes"/>
      <point x="355" y="-47"/>
      <point x="341" y="7"/>
      <point x="317" y="7" type="curve" smooth="yes"/>
      <point x="312" y="7"/>
      <point x="309" y="5"/>
      <point x="306" y="3" type="curve"/>
      <point x="322" y="-23"/>
      <point x="327" y="-55"/>
      <point x="327" y="-96" type="curve" smooth="yes"/>
      <point x="327" y="-166"/>
      <point x="282" y="-225"/>
      <point x="204" y="-225" type="curve" smooth="yes"/>
      <point x="127" y="-225"/>
      <point x="71" y="-171"/>
      <point x="71" y="-40" type="curve" smooth="yes"/>
      <point x="71" y="58"/>
      <point x="115" y="124"/>
      <point x="205" y="185" type="curve" smooth="yes"/>
      <point x="294" y="245"/>
      <point x="331" y="305"/>
      <point x="331" y="396" type="curve" smooth="yes"/>
      <point x="331" y="489"/>
      <point x="275" y="546"/>
      <point x="196" y="546" type="curve" smooth="yes"/>
      <point x="120" y="546"/>
      <point x="68" y="489"/>
      <point x="68" y="421" type="curve" smooth="yes"/>
      <point x="68" y="387"/>
      <point x="80" y="365"/>
      <point x="97" y="365" type="curve" smooth="yes"/>
      <point x="99" y="365"/>
      <point x="103" y="366"/>
      <point x="105" y="367" type="curve"/>
      <point x="99" y="384"/>
      <point x="96" y="396"/>
      <point x="96" y="417" type="curve" smooth="yes"/>
      <point x="96" y="468"/>
      <point x="127" y="521"/>
      <point x="196" y="521" type="curve" smooth="yes"/>
      <point x="263" y="521"/>
      <point x="303" y="473"/>
      <point x="303" y="396" type="curve" smooth="yes"/>
      <point x="303" y="316"/>
      <point x="268" y="261"/>
      <point x="196" y="213" type="curve" smooth="yes"/>
      <point x="87" y="140"/>
      <point x="43" y="66"/>
      <point x="43" y="-43" type="curve" smooth="yes"/>
      <point x="43" y="-188"/>
      <point x="115" y="-250"/>
    </contour>
  </outline>
</glyph>
<glyph name="elifi-georgian" format="2">
  <advance width="432"/>
  <unicode hex="10F8"/>
  <note>
uni10F8
</note>
  <outline>
    <contour>
      <point x="236" y="-250" type="curve" smooth="yes"/>
      <point x="330" y="-250"/>
      <point x="384" y="-180"/>
      <point x="384" y="-66" type="curve" smooth="yes"/>
      <point x="384" y="-17"/>
      <point x="363" y="47"/>
      <point x="339" y="47" type="curve" smooth="yes"/>
      <point x="334" y="47"/>
      <point x="331" y="45"/>
      <point x="328" y="43" type="curve"/>
      <point x="347" y="17"/>
      <point x="356" y="-25"/>
      <point x="356" y="-66" type="curve" smooth="yes"/>
      <point x="356" y="-162"/>
      <point x="315" y="-225"/>
      <point x="237" y="-225" type="curve" smooth="yes"/>
      <point x="167" y="-225"/>
      <point x="116" y="-172"/>
      <point x="116" y="-30" type="curve" smooth="yes"/>
      <point x="116" y="190" type="line" smooth="yes"/>
      <point x="116" y="217"/>
      <point x="114" y="245"/>
      <point x="111" y="272" type="curve"/>
      <point x="113" y="272" type="line"/>
      <point x="136" y="213"/>
      <point x="175" y="179"/>
      <point x="239" y="179" type="curve" smooth="yes"/>
      <point x="331" y="179"/>
      <point x="374" y="252"/>
      <point x="374" y="355" type="curve" smooth="yes"/>
      <point x="374" y="479"/>
      <point x="327" y="540"/>
      <point x="308" y="540" type="curve" smooth="yes"/>
      <point x="304" y="540"/>
      <point x="300" y="539"/>
      <point x="297" y="536" type="curve"/>
      <point x="319" y="503"/>
      <point x="346" y="450"/>
      <point x="346" y="360" type="curve" smooth="yes"/>
      <point x="346" y="255"/>
      <point x="306" y="204"/>
      <point x="237" y="204" type="curve" smooth="yes"/>
      <point x="155" y="204"/>
      <point x="116" y="286"/>
      <point x="116" y="378" type="curve" smooth="yes"/>
      <point x="116" y="536" type="line"/>
      <point x="88" y="536" type="line"/>
      <point x="88" y="-30" type="line" smooth="yes"/>
      <point x="88" y="-190"/>
      <point x="152" y="-250"/>
    </contour>
  </outline>
</glyph>
<glyph name="turnedgan-georgian" format="2">
  <advance width="410"/>
  <unicode hex="10F9"/>
  <note>
uni10F9
</note>
  <outline>
    <contour>
      <point x="205" y="546" type="curve" smooth="yes"/>
      <point x="102" y="546"/>
      <point x="48" y="463"/>
      <point x="48" y="269" type="curve" smooth="yes"/>
      <point x="48" y="104"/>
      <point x="84" y="9"/>
      <point x="181" y="-4" type="curve"/>
      <point x="181" y="-6" type="line"/>
      <point x="116" y="-27"/>
      <point x="91" y="-82"/>
      <point x="91" y="-132" type="curve" smooth="yes"/>
      <point x="91" y="-200"/>
      <point x="145" y="-250"/>
      <point x="209" y="-250" type="curve" smooth="yes"/>
      <point x="266" y="-250"/>
      <point x="327" y="-213"/>
      <point x="327" y="-140" type="curve" smooth="yes"/>
      <point x="327" y="-111"/>
      <point x="315" y="-89"/>
      <point x="298" y="-89" type="curve" smooth="yes"/>
      <point x="296" y="-89"/>
      <point x="292" y="-90"/>
      <point x="290" y="-91" type="curve"/>
      <point x="296" y="-108"/>
      <point x="299" y="-120"/>
      <point x="299" y="-136" type="curve" smooth="yes"/>
      <point x="299" y="-192"/>
      <point x="259" y="-225"/>
      <point x="209" y="-225" type="curve" smooth="yes"/>
      <point x="164" y="-225"/>
      <point x="119" y="-192"/>
      <point x="119" y="-129" type="curve" smooth="yes"/>
      <point x="119" y="-71"/>
      <point x="153" y="-26"/>
      <point x="227" y="-8" type="curve" smooth="yes"/>
      <point x="326" y="16"/>
      <point x="362" y="95"/>
      <point x="362" y="269" type="curve" smooth="yes"/>
      <point x="362" y="460"/>
      <point x="305" y="546"/>
    </contour>
    <contour>
      <point x="204" y="521" type="curve" smooth="yes"/>
      <point x="293" y="521"/>
      <point x="334" y="434"/>
      <point x="334" y="269" type="curve" smooth="yes"/>
      <point x="334" y="98"/>
      <point x="297" y="15"/>
      <point x="205" y="15" type="curve" smooth="yes"/>
      <point x="109" y="15"/>
      <point x="76" y="98"/>
      <point x="76" y="269" type="curve" smooth="yes"/>
      <point x="76" y="433"/>
      <point x="109" y="521"/>
    </contour>
  </outline>
</glyph>
<glyph name="ain-georgian" format="2">
  <advance width="361"/>
  <unicode hex="10FA"/>
  <note>
uni10FA
</note>
  <outline>
    <contour>
      <point x="89" y="-80" type="line"/>
      <point x="318" y="50" type="line"/>
      <point x="318" y="79" type="line"/>
      <point x="295" y="62"/>
      <point x="235" y="23"/>
      <point x="190" y="23" type="curve" smooth="yes"/>
      <point x="122" y="23"/>
      <point x="76" y="86"/>
      <point x="76" y="264" type="curve" smooth="yes"/>
      <point x="76" y="462"/>
      <point x="125" y="517"/>
      <point x="200" y="517" type="curve" smooth="yes"/>
      <point x="266" y="517"/>
      <point x="290" y="480"/>
      <point x="290" y="406" type="curve"/>
      <point x="302" y="406"/>
      <point x="315" y="414"/>
      <point x="315" y="437" type="curve" smooth="yes"/>
      <point x="315" y="495"/>
      <point x="276" y="542"/>
      <point x="200" y="542" type="curve" smooth="yes"/>
      <point x="108" y="542"/>
      <point x="48" y="479"/>
      <point x="48" y="263" type="curve" smooth="yes"/>
      <point x="48" y="80"/>
      <point x="99" y="1"/>
      <point x="186" y="0" type="curve"/>
      <point x="89" y="-53" type="line"/>
    </contour>
  </outline>
</glyph>
<glyph name="paragraph-georgian" format="2">
  <advance width="453"/>
  <unicode hex="10FB"/>
  <note>
uni10FB
</note>
  <outline>
    <contour>
      <point x="311" y="237" type="curve" smooth="yes"/>
      <point x="328" y="237"/>
      <point x="341" y="247"/>
      <point x="341" y="276" type="curve" smooth="yes"/>
      <point x="341" y="306"/>
      <point x="328" y="316"/>
      <point x="311" y="316" type="curve" smooth="yes"/>
      <point x="297" y="316"/>
      <point x="284" y="306"/>
      <point x="284" y="276" type="curve" smooth="yes"/>
      <point x="284" y="247"/>
      <point x="297" y="237"/>
    </contour>
    <contour>
      <point x="140" y="0" type="curve" smooth="yes"/>
      <point x="157" y="0"/>
      <point x="170" y="10"/>
      <point x="170" y="39" type="curve" smooth="yes"/>
      <point x="170" y="69"/>
      <point x="157" y="79"/>
      <point x="140" y="79" type="curve" smooth="yes"/>
      <point x="126" y="79"/>
      <point x="113" y="69"/>
      <point x="113" y="39" type="curve" smooth="yes"/>
      <point x="113" y="10"/>
      <point x="126" y="0"/>
    </contour>
    <contour>
      <point x="140" y="457" type="curve" smooth="yes"/>
      <point x="157" y="457"/>
      <point x="170" y="467"/>
      <point x="170" y="496" type="curve" smooth="yes"/>
      <point x="170" y="526"/>
      <point x="157" y="536"/>
      <point x="140" y="536" type="curve" smooth="yes"/>
      <point x="126" y="536"/>
      <point x="113" y="526"/>
      <point x="113" y="496" type="curve" smooth="yes"/>
      <point x="113" y="467"/>
      <point x="126" y="457"/>
    </contour>
  </outline>
</glyph>
<glyph name="narMod-georgian" format="2">
  <advance width="286"/>
  <unicode hex="10FC"/>
  <note>
uni10FC
</note>
  <outline>
    <contour>
      <point x="151" y="381" type="curve" smooth="yes"/>
      <point x="212" y="381"/>
      <point x="246" y="433"/>
      <point x="246" y="538" type="curve" smooth="yes"/>
      <point x="246" y="645"/>
      <point x="218" y="696"/>
      <point x="158" y="696" type="curve" smooth="yes"/>
      <point x="121" y="696"/>
      <point x="96" y="678"/>
      <point x="81" y="642" type="curve"/>
      <point x="78" y="642" type="line"/>
      <point x="79" y="661"/>
      <point x="79" y="684"/>
      <point x="79" y="702" type="curve" smooth="yes"/>
      <point x="79" y="734" type="line" smooth="yes"/>
      <point x="79" y="785"/>
      <point x="117" y="798"/>
      <point x="138" y="798" type="curve" smooth="yes"/>
      <point x="172" y="798"/>
      <point x="180" y="789"/>
      <point x="202" y="789" type="curve" smooth="yes"/>
      <point x="216" y="789"/>
      <point x="228" y="795"/>
      <point x="228" y="807" type="curve" smooth="yes"/>
      <point x="228" y="814"/>
      <point x="225" y="818"/>
      <point x="220" y="820" type="curve"/>
      <point x="216" y="814"/>
      <point x="209" y="810"/>
      <point x="196" y="810" type="curve" smooth="yes"/>
      <point x="177" y="810"/>
      <point x="165" y="819"/>
      <point x="138" y="819" type="curve" smooth="yes"/>
      <point x="95" y="819"/>
      <point x="55" y="791"/>
      <point x="55" y="727" type="curve" smooth="yes"/>
      <point x="55" y="538" type="line" smooth="yes"/>
      <point x="55" y="433"/>
      <point x="88" y="381"/>
    </contour>
    <contour>
      <point x="151" y="402" type="curve" smooth="yes"/>
      <point x="101" y="402"/>
      <point x="80" y="450"/>
      <point x="80" y="538" type="curve" smooth="yes"/>
      <point x="80" y="627"/>
      <point x="103" y="674"/>
      <point x="155" y="674" type="curve" smooth="yes"/>
      <point x="204" y="674"/>
      <point x="220" y="625"/>
      <point x="220" y="537" type="curve" smooth="yes"/>
      <point x="220" y="448"/>
      <point x="197" y="402"/>
    </contour>
  </outline>
</glyph>
<glyph name="aen-georgian" format="2">
  <advance width="398"/>
  <unicode hex="10FD"/>
  <outline>
    <contour>
      <point x="194" y="-10" type="curve" smooth="yes"/>
      <point x="283" y="-10"/>
      <point x="355" y="52"/>
      <point x="355" y="194" type="curve" smooth="yes"/>
      <point x="355" y="306"/>
      <point x="311" y="374"/>
      <point x="202" y="447" type="curve" smooth="yes"/>
      <point x="130" y="495"/>
      <point x="93" y="550"/>
      <point x="93" y="620" type="curve" smooth="yes"/>
      <point x="93" y="697"/>
      <point x="133" y="745"/>
      <point x="200" y="745" type="curve" smooth="yes"/>
      <point x="269" y="745"/>
      <point x="300" y="692"/>
      <point x="300" y="641" type="curve" smooth="yes"/>
      <point x="300" y="620"/>
      <point x="297" y="608"/>
      <point x="291" y="591" type="curve"/>
      <point x="293" y="590"/>
      <point x="297" y="589"/>
      <point x="299" y="589" type="curve" smooth="yes"/>
      <point x="316" y="589"/>
      <point x="328" y="611"/>
      <point x="328" y="645" type="curve" smooth="yes"/>
      <point x="328" y="713"/>
      <point x="276" y="770"/>
      <point x="200" y="770" type="curve" smooth="yes"/>
      <point x="121" y="770"/>
      <point x="65" y="713"/>
      <point x="65" y="620" type="curve" smooth="yes"/>
      <point x="65" y="539"/>
      <point x="104" y="479"/>
      <point x="193" y="419" type="curve" smooth="yes"/>
      <point x="283" y="358"/>
      <point x="327" y="298"/>
      <point x="327" y="197" type="curve" smooth="yes"/>
      <point x="327" y="69"/>
      <point x="271" y="15"/>
      <point x="194" y="15" type="curve" smooth="yes"/>
      <point x="116" y="15"/>
      <point x="71" y="74"/>
      <point x="71" y="144" type="curve" smooth="yes"/>
      <point x="71" y="185"/>
      <point x="76" y="217"/>
      <point x="92" y="243" type="curve"/>
      <point x="89" y="245"/>
      <point x="86" y="247"/>
      <point x="81" y="247" type="curve" smooth="yes"/>
      <point x="57" y="247"/>
      <point x="43" y="193"/>
      <point x="43" y="144" type="curve" smooth="yes"/>
      <point x="43" y="56"/>
      <point x="100" y="-10"/>
    </contour>
  </outline>
</glyph>
<glyph name="hardsign-georgian" format="2">
  <advance width="410"/>
  <unicode hex="10FE"/>
  <outline>
    <contour>
      <point x="77" y="546" type="curve" smooth="yes"/>
      <point x="63" y="546"/>
      <point x="56" y="539"/>
      <point x="55" y="522" type="curve"/>
      <point x="101" y="522"/>
      <point x="145" y="516"/>
      <point x="181" y="500" type="curve"/>
      <point x="107" y="449"/>
      <point x="48" y="367"/>
      <point x="48" y="210" type="curve" smooth="yes"/>
      <point x="48" y="81"/>
      <point x="97" y="-10"/>
      <point x="207" y="-10" type="curve" smooth="yes"/>
      <point x="314" y="-10"/>
      <point x="362" y="83"/>
      <point x="362" y="210" type="curve" smooth="yes"/>
      <point x="362" y="367"/>
      <point x="305" y="449"/>
      <point x="232" y="500" type="curve"/>
      <point x="269" y="515"/>
      <point x="314" y="522"/>
      <point x="360" y="522" type="curve"/>
      <point x="358" y="535"/>
      <point x="355" y="546"/>
      <point x="336" y="546" type="curve" smooth="yes"/>
      <point x="293" y="546"/>
      <point x="248" y="537"/>
      <point x="207" y="515" type="curve"/>
      <point x="166" y="537"/>
      <point x="121" y="546"/>
    </contour>
    <contour>
      <point x="207" y="489" type="curve"/>
      <point x="288" y="441"/>
      <point x="334" y="356"/>
      <point x="334" y="210" type="curve" smooth="yes"/>
      <point x="334" y="98"/>
      <point x="301" y="15"/>
      <point x="205" y="15" type="curve" smooth="yes"/>
      <point x="110" y="15"/>
      <point x="76" y="98"/>
      <point x="76" y="210" type="curve" smooth="yes"/>
      <point x="76" y="356"/>
      <point x="125" y="441"/>
    </contour>
  </outline>
</glyph>
<glyph name="labial-georgian" format="2">
  <advance width="410"/>
  <unicode hex="10FF"/>
  <outline>
    <contour>
      <point x="205" y="-10" type="curve" smooth="yes"/>
      <point x="308" y="-10"/>
      <point x="362" y="73"/>
      <point x="362" y="267" type="curve" smooth="yes"/>
      <point x="362" y="453"/>
      <point x="314" y="546"/>
      <point x="207" y="546" type="curve" smooth="yes"/>
      <point x="97" y="546"/>
      <point x="48" y="455"/>
      <point x="48" y="267" type="curve" smooth="yes"/>
      <point x="48" y="76"/>
      <point x="105" y="-10"/>
    </contour>
    <contour>
      <point x="206" y="15" type="curve" smooth="yes"/>
      <point x="117" y="15"/>
      <point x="76" y="102"/>
      <point x="76" y="267" type="curve" smooth="yes"/>
      <point x="76" y="438"/>
      <point x="110" y="521"/>
      <point x="205" y="521" type="curve" smooth="yes"/>
      <point x="301" y="521"/>
      <point x="334" y="438"/>
      <point x="334" y="267" type="curve" smooth="yes"/>
      <point x="334" y="103"/>
      <point x="301" y="15"/>
    </contour>
  </outline>
</glyph>
<glyph name="An-georgian" format="2">
  <advance width="414"/>
  <unicode hex="1C90"/>
  <anchor x="214" y="714" name="top"/>
  <outline>
    <contour>
      <point x="204" y="-10" type="curve" smooth="yes"/>
      <point x="299" y="-10"/>
      <point x="361" y="59"/>
      <point x="361" y="200" type="curve" smooth="yes"/>
      <point x="361" y="327"/>
      <point x="323" y="401"/>
      <point x="284" y="466" type="curve" smooth="yes"/>
      <point x="250" y="523"/>
      <point x="221" y="576"/>
      <point x="221" y="654" type="curve" smooth="yes"/>
      <point x="221" y="688"/>
      <point x="232" y="711"/>
      <point x="239" y="720" type="curve"/>
      <point x="237" y="723"/>
      <point x="234" y="725"/>
      <point x="229" y="725" type="curve" smooth="yes"/>
      <point x="209" y="725"/>
      <point x="193" y="693"/>
      <point x="193" y="653" type="curve" smooth="yes"/>
      <point x="193" y="570"/>
      <point x="223" y="514"/>
      <point x="258" y="455" type="curve" smooth="yes"/>
      <point x="296" y="391"/>
      <point x="333" y="319"/>
      <point x="333" y="200" type="curve" smooth="yes"/>
      <point x="333" y="75"/>
      <point x="283" y="15"/>
      <point x="204" y="15" type="curve" smooth="yes"/>
      <point x="127" y="15"/>
      <point x="75" y="75"/>
      <point x="75" y="200" type="curve" smooth="yes"/>
      <point x="75" y="265"/>
      <point x="93" y="309"/>
      <point x="115" y="342" type="curve"/>
      <point x="112" y="344"/>
      <point x="109" y="345"/>
      <point x="105" y="345" type="curve" smooth="yes"/>
      <point x="87" y="345"/>
      <point x="47" y="295"/>
      <point x="47" y="199" type="curve" smooth="yes"/>
      <point x="47" y="59"/>
      <point x="110" y="-10"/>
    </contour>
  </outline>
</glyph>
<glyph name="Ban-georgian" format="2">
  <advance width="443"/>
  <unicode hex="1C91"/>
  <outline>
    <contour>
      <point x="222" y="-10" type="curve" smooth="yes"/>
      <point x="332" y="-10"/>
      <point x="390" y="69"/>
      <point x="390" y="251" type="curve" smooth="yes"/>
      <point x="390" y="431"/>
      <point x="336" y="514"/>
      <point x="221" y="514" type="curve"/>
      <point x="106" y="514"/>
      <point x="53" y="426"/>
      <point x="53" y="251" type="curve" smooth="yes"/>
      <point x="53" y="72"/>
      <point x="114" y="-10"/>
    </contour>
    <contour>
      <point x="223" y="15" type="curve" smooth="yes"/>
      <point x="126" y="15"/>
      <point x="81" y="97"/>
      <point x="81" y="251" type="curve" smooth="yes"/>
      <point x="81" y="410"/>
      <point x="118" y="489"/>
      <point x="221" y="489" type="curve" smooth="yes"/>
      <point x="326" y="489"/>
      <point x="362" y="410"/>
      <point x="362" y="251" type="curve" smooth="yes"/>
      <point x="362" y="98"/>
      <point x="326" y="15"/>
    </contour>
    <contour>
      <point x="219" y="506" type="curve"/>
      <point x="244" y="507" type="line"/>
      <point x="253" y="519"/>
      <point x="256" y="535"/>
      <point x="256" y="551" type="curve" smooth="yes"/>
      <point x="256" y="629"/>
      <point x="182" y="623"/>
      <point x="182" y="681" type="curve" smooth="yes"/>
      <point x="182" y="694"/>
      <point x="186" y="710"/>
      <point x="194" y="719" type="curve"/>
      <point x="192" y="722"/>
      <point x="186" y="725"/>
      <point x="180" y="725" type="curve" smooth="yes"/>
      <point x="162" y="725"/>
      <point x="153" y="703"/>
      <point x="153" y="685" type="curve" smooth="yes"/>
      <point x="153" y="607"/>
      <point x="229" y="620"/>
      <point x="229" y="551" type="curve" smooth="yes"/>
      <point x="229" y="534"/>
      <point x="227" y="518"/>
    </contour>
  </outline>
</glyph>
<glyph name="Gan-georgian" format="2">
  <advance width="431"/>
  <unicode hex="1C92"/>
  <outline>
    <contour>
      <point x="216" y="-10" type="curve" smooth="yes"/>
      <point x="326" y="-10"/>
      <point x="384" y="69"/>
      <point x="384" y="251" type="curve" smooth="yes"/>
      <point x="384" y="409"/>
      <point x="338" y="489"/>
      <point x="254" y="499" type="curve"/>
      <point x="254" y="501" type="line"/>
      <point x="309" y="515"/>
      <point x="337" y="560"/>
      <point x="337" y="612" type="curve" smooth="yes"/>
      <point x="337" y="680"/>
      <point x="284" y="725"/>
      <point x="211" y="725" type="curve" smooth="yes"/>
      <point x="152" y="725"/>
      <point x="85" y="689"/>
      <point x="85" y="622" type="curve" smooth="yes"/>
      <point x="85" y="595"/>
      <point x="97" y="575"/>
      <point x="115" y="575" type="curve" smooth="yes"/>
      <point x="118" y="575"/>
      <point x="121" y="576"/>
      <point x="123" y="577" type="curve"/>
      <point x="116" y="591"/>
      <point x="113" y="605"/>
      <point x="113" y="618" type="curve" smooth="yes"/>
      <point x="113" y="669"/>
      <point x="157" y="700"/>
      <point x="211" y="700" type="curve" smooth="yes"/>
      <point x="260" y="700"/>
      <point x="309" y="671"/>
      <point x="309" y="612" type="curve" smooth="yes"/>
      <point x="309" y="557"/>
      <point x="276" y="515"/>
      <point x="203" y="507" type="curve" smooth="yes"/>
      <point x="93" y="495"/>
      <point x="47" y="409"/>
      <point x="47" y="251" type="curve" smooth="yes"/>
      <point x="47" y="72"/>
      <point x="108" y="-10"/>
    </contour>
    <contour>
      <point x="217" y="15" type="curve" smooth="yes"/>
      <point x="120" y="15"/>
      <point x="75" y="97"/>
      <point x="75" y="251" type="curve" smooth="yes"/>
      <point x="75" y="403"/>
      <point x="114" y="482"/>
      <point x="215" y="482" type="curve" smooth="yes"/>
      <point x="320" y="482"/>
      <point x="356" y="403"/>
      <point x="356" y="251" type="curve" smooth="yes"/>
      <point x="356" y="98"/>
      <point x="320" y="15"/>
    </contour>
  </outline>
</glyph>
<glyph name="Don-georgian" format="2">
  <advance width="703"/>
  <unicode hex="1C93"/>
  <outline>
    <contour>
      <point x="493" y="249" type="curve" smooth="yes"/>
      <point x="589" y="249"/>
      <point x="650" y="328"/>
      <point x="650" y="486" type="curve" smooth="yes"/>
      <point x="650" y="644"/>
      <point x="599" y="725"/>
      <point x="489" y="725" type="curve" smooth="yes"/>
      <point x="419" y="725"/>
      <point x="355" y="686"/>
      <point x="346" y="594" type="curve"/>
      <point x="344" y="594" type="line"/>
      <point x="334" y="686"/>
      <point x="277" y="725"/>
      <point x="211" y="725" type="curve" smooth="yes"/>
      <point x="107" y="725"/>
      <point x="53" y="647"/>
      <point x="53" y="482" type="curve" smooth="yes"/>
      <point x="53" y="312"/>
      <point x="127" y="194"/>
      <point x="282" y="146" type="curve"/>
      <point x="282" y="144" type="line"/>
      <point x="231" y="142"/>
      <point x="184" y="131"/>
      <point x="155" y="115" type="curve"/>
      <point x="163" y="99" type="line"/>
      <point x="194" y="114"/>
      <point x="240" y="124"/>
      <point x="296" y="124" type="curve" smooth="yes"/>
      <point x="418" y="124"/>
      <point x="508" y="66"/>
      <point x="508" y="-5" type="curve"/>
      <point x="522" y="-5"/>
      <point x="532" y="3"/>
      <point x="532" y="17" type="curve" smooth="yes"/>
      <point x="532" y="57"/>
      <point x="485" y="117"/>
      <point x="368" y="143" type="curve" smooth="yes"/>
      <point x="236" y="172"/>
      <point x="81" y="238"/>
      <point x="81" y="482" type="curve" smooth="yes"/>
      <point x="81" y="620"/>
      <point x="120" y="700"/>
      <point x="211" y="700" type="curve" smooth="yes"/>
      <point x="309" y="700"/>
      <point x="329" y="603"/>
      <point x="329" y="504" type="curve" smooth="yes"/>
      <point x="329" y="486" type="line" smooth="yes"/>
      <point x="329" y="325"/>
      <point x="388" y="249"/>
    </contour>
    <contour>
      <point x="489" y="700" type="curve" smooth="yes"/>
      <point x="585" y="700"/>
      <point x="622" y="625"/>
      <point x="622" y="486" type="curve" smooth="yes"/>
      <point x="622" y="352"/>
      <point x="577" y="274"/>
      <point x="492" y="274" type="curve" smooth="yes"/>
      <point x="394" y="274"/>
      <point x="358" y="353"/>
      <point x="358" y="486" type="curve" smooth="yes"/>
      <point x="358" y="634"/>
      <point x="395" y="700"/>
    </contour>
  </outline>
</glyph>
<glyph name="Vin-georgian" format="2">
  <advance width="433"/>
  <unicode hex="1C95"/>
  <outline>
    <contour>
      <point x="217" y="-10" type="curve" smooth="yes"/>
      <point x="314" y="-10"/>
      <point x="386" y="56"/>
      <point x="386" y="194" type="curve" smooth="yes"/>
      <point x="386" y="323"/>
      <point x="328" y="388"/>
      <point x="243" y="399" type="curve"/>
      <point x="243" y="401" type="line"/>
      <point x="328" y="414"/>
      <point x="363" y="475"/>
      <point x="363" y="562" type="curve" smooth="yes"/>
      <point x="363" y="669"/>
      <point x="301" y="725"/>
      <point x="210" y="725" type="curve" smooth="yes"/>
      <point x="115" y="725"/>
      <point x="65" y="656"/>
      <point x="65" y="593" type="curve" smooth="yes"/>
      <point x="65" y="543"/>
      <point x="88" y="513"/>
      <point x="103" y="513" type="curve" smooth="yes"/>
      <point x="107" y="513"/>
      <point x="110" y="514"/>
      <point x="113" y="516" type="curve"/>
      <point x="96" y="546"/>
      <point x="94" y="571"/>
      <point x="94" y="592" type="curve" smooth="yes"/>
      <point x="94" y="652"/>
      <point x="141" y="700"/>
      <point x="210" y="700" type="curve" smooth="yes"/>
      <point x="284" y="700"/>
      <point x="335" y="652"/>
      <point x="335" y="563" type="curve" smooth="yes"/>
      <point x="335" y="465"/>
      <point x="289" y="412"/>
      <point x="194" y="412" type="curve" smooth="yes"/>
      <point x="173" y="412" type="line"/>
      <point x="173" y="387" type="line"/>
      <point x="193" y="387" type="line" smooth="yes"/>
      <point x="291" y="387"/>
      <point x="358" y="329"/>
      <point x="358" y="193" type="curve" smooth="yes"/>
      <point x="358" y="73"/>
      <point x="299" y="15"/>
      <point x="216" y="15" type="curve" smooth="yes"/>
      <point x="134" y="15"/>
      <point x="75" y="73"/>
      <point x="75" y="168" type="curve" smooth="yes"/>
      <point x="75" y="198"/>
      <point x="81" y="237"/>
      <point x="102" y="261" type="curve"/>
      <point x="98" y="263"/>
      <point x="95" y="265"/>
      <point x="90" y="265" type="curve" smooth="yes"/>
      <point x="65" y="265"/>
      <point x="47" y="216"/>
      <point x="47" y="168" type="curve" smooth="yes"/>
      <point x="47" y="56"/>
      <point x="120" y="-10"/>
    </contour>
  </outline>
</glyph>
